#N canvas 446 95 737 573 10;
#X obj 138 101 mm-vco~;
#X obj 317 240 *~;
#X msg 109 51 400;
#X msg 138 39 500;
#X obj 296 294 output~;
#X text 172 38 <- click to set frequency;
#X text 347 245 <- multiply audio signal by another signal to control
amplitude (volume);
#X text 369 304 <- output to speakers;
#X floatatom 149 65 5 0 0 0 - - -;
#X text 186 64 <- click and drag;
#X obj 408 101 mm-adsr~;
#X connect 0 0 1 0;
#X connect 1 0 4 0;
#X connect 1 0 4 1;
#X connect 2 0 0 0;
#X connect 3 0 0 0;
#X connect 8 0 0 0;
#X connect 10 0 1 1;
