#N canvas 47 92 1216 632 10;
#X obj 68 330 *~;
#X msg 39 161 400;
#X msg 68 149 500;
#X text 102 148 <- click to set frequency;
#X text 106 384 <- output to speakers;
#X floatatom 79 175 5 0 0 0 - - -;
#X text 116 174 <- click and drag;
#X obj 87 302 tgl 15 0 empty empty empty 17 7 0 10 -262144 -1 -1 0
1;
#X text 108 301 <- turn on to hear;
#X obj 67 384 dac~;
#X obj 348 336 *~;
#X msg 319 167 400;
#X msg 348 155 500;
#X text 382 154 <- click to set frequency;
#X text 386 390 <- output to speakers;
#X floatatom 359 181 5 0 0 0 - - -;
#X text 396 180 <- click and drag;
#X obj 367 308 tgl 15 0 empty empty empty 17 7 0 10 -262144 -1 -1 0
1;
#X text 388 307 <- turn on to hear;
#X obj 347 390 dac~;
#X obj 618 336 *~;
#X msg 589 167 400;
#X msg 618 155 500;
#X text 652 154 <- click to set frequency;
#X text 656 390 <- output to speakers;
#X floatatom 629 181 5 0 0 0 - - -;
#X text 666 180 <- click and drag;
#X obj 637 308 tgl 15 0 empty empty empty 17 7 0 10 -262144 -1 -1 0
1;
#X text 658 307 <- turn on to hear;
#X obj 617 390 dac~;
#X obj 618 217 mm-fm~;
#X obj 888 336 *~;
#X msg 859 167 400;
#X msg 888 155 500;
#X text 922 154 <- click to set frequency;
#X text 926 390 <- output to speakers;
#X floatatom 899 181 5 0 0 0 - - -;
#X text 936 180 <- click and drag;
#X obj 907 308 tgl 15 0 empty empty empty 17 7 0 10 -262144 -1 -1 0
1;
#X text 928 307 <- turn on to hear;
#X obj 887 390 dac~;
#X obj 888 217 mm-pluck~;
#X obj 1009 121 bng 15 250 50 0 empty empty empty 17 7 0 10 -262144
-1 -1;
#X text 1032 121 <- trigger a pluck;
#X text 303 21 Different synthesis techniques can be used to create
different sounds.;
#X obj 68 211 mm-waves~;
#X obj 348 217 mm-pwm~;
#X connect 0 0 9 0;
#X connect 0 0 9 1;
#X connect 1 0 45 0;
#X connect 2 0 45 0;
#X connect 5 0 45 0;
#X connect 7 0 0 1;
#X connect 10 0 19 0;
#X connect 10 0 19 1;
#X connect 11 0 46 0;
#X connect 12 0 46 0;
#X connect 15 0 46 0;
#X connect 17 0 10 1;
#X connect 20 0 29 0;
#X connect 20 0 29 1;
#X connect 21 0 30 0;
#X connect 22 0 30 0;
#X connect 25 0 30 0;
#X connect 27 0 20 1;
#X connect 30 0 20 0;
#X connect 31 0 40 0;
#X connect 31 0 40 1;
#X connect 32 0 41 0;
#X connect 33 0 41 0;
#X connect 36 0 41 0;
#X connect 38 0 31 1;
#X connect 41 0 31 0;
#X connect 42 0 41 2;
#X connect 45 0 0 0;
#X connect 46 0 10 0;
