#N canvas 446 95 737 573 10;
#X obj 116 258 mm-vco~;
#X obj 295 397 *~;
#X msg 87 208 400;
#X msg 116 196 500;
#X obj 274 451 output~;
#X text 150 195 <- click to set frequency;
#X text 325 402 <- multiply audio signal by another signal to control
amplitude (volume);
#X text 347 461 <- output to speakers;
#X floatatom 127 222 5 0 0 0 - - -;
#X text 164 221 <- click and drag;
#X obj 386 258 mm-adsr~;
#X text 311 19 Volume and other sound parameters can be automated in
a variety of ways. Envelopes are something that change automatically
over time once triggered. A common envelope is the ADSR (Attack \,
Decay \, Sustain \, Release) - see adsr~ help for more details.;
#X text 313 103 Other modular-muse envelopes include the [mm-ar~] and
[mm-readarray~] objects;
#X connect 0 0 1 0;
#X connect 1 0 4 0;
#X connect 1 0 4 1;
#X connect 2 0 0 0;
#X connect 3 0 0 0;
#X connect 8 0 0 0;
#X connect 10 0 1 1;
