#N canvas 446 95 801 585 10;
#X obj 116 258 mm-vco~;
#X obj 295 397 *~;
#X msg 87 208 400;
#X msg 116 196 500;
#X text 150 195 <- click to set frequency;
#X text 325 402 <- multiply audio signal by another signal to control
amplitude (volume);
#X text 309 449 <- output to speakers;
#X floatatom 127 222 5 0 0 0 - - -;
#X text 164 221 <- click and drag;
#X text 311 19 Volume and other sound parameters can be automated in
a variety of ways. Envelopes are something that change automatically
over time once triggered. A common envelope is the AR (Attack \, Release)
- see mm-ar~-help for more details.;
#X text 313 103 Other modular-muse envelopes include the [mm-adsr~]
and [mm-readarray~] objects;
#X obj 386 258 mm-ar~;
#X floatatom 507 240 5 0 0 0 - - -;
#X floatatom 658 227 5 0 0 0 - - -;
#X msg 507 198 200;
#X msg 658 203 500;
#X obj 505 174 loadbang;
#X obj 658 180 loadbang;
#X text 533 198 on in 200 ms;
#X text 686 202 off in 500 ms;
#X obj 386 220 bng 15 250 50 0 empty empty empty 17 7 0 10 -262144
-1 -1;
#X text 378 201 trigger envelope;
#X msg 540 219 0;
#X text 567 220 try 0 ms;
#X obj 274 451 dac~;
#X connect 0 0 1 0;
#X connect 1 0 24 0;
#X connect 1 0 24 1;
#X connect 2 0 0 0;
#X connect 3 0 0 0;
#X connect 7 0 0 0;
#X connect 11 0 1 1;
#X connect 12 0 11 1;
#X connect 13 0 11 2;
#X connect 14 0 12 0;
#X connect 15 0 13 0;
#X connect 16 0 14 0;
#X connect 17 0 15 0;
#X connect 20 0 11 0;
#X connect 22 0 12 0;
