#N canvas 446 95 801 585 10;
#X obj 116 258 mm-vco~;
#X obj 295 397 *~;
#X msg 87 208 400;
#X msg 116 196 500;
#X text 150 195 <- click to set frequency;
#X text 325 402 <- multiply audio signal by another signal to control
amplitude (volume);
#X text 309 449 <- output to speakers;
#X floatatom 127 222 5 0 0 0 - - -;
#X text 164 221 <- click and drag;
#X floatatom 444 224 5 0 0 0 - - -;
#X floatatom 658 227 5 0 0 0 - - -;
#X msg 444 182 200;
#X msg 658 203 500;
#X obj 442 158 loadbang;
#X obj 658 180 loadbang;
#X text 686 202 off in 500 ms;
#X text 336 187 trigger envelope;
#X msg 465 203 0;
#X obj 274 451 dac~;
#X obj 386 258 mm-adsr~;
#X obj 344 209 tgl 15 0 empty empty empty 17 7 0 10 -262144 -1 -1 0
1;
#X floatatom 506 234 5 0 0 0 - - -;
#X floatatom 564 235 5 0 0 0 - - -;
#X obj 567 123 vsl 15 100 0 1 0 0 empty empty empty 0 -9 0 10 -262144
-1 -1 0 1;
#X text 471 181 on in 200ms;
#X text 311 19 Another common envelope is the ADSR (Attack \, Decay
\, Sustain \, Release) - see mm-adsr~-help for more details.;
#X text 312 73 Other modular-muse envelopes include the [mm-ar~] and
[mm-readarray~] objects;
#X connect 0 0 1 0;
#X connect 1 0 18 0;
#X connect 1 0 18 1;
#X connect 2 0 0 0;
#X connect 3 0 0 0;
#X connect 7 0 0 0;
#X connect 9 0 19 1;
#X connect 10 0 19 4;
#X connect 11 0 9 0;
#X connect 12 0 10 0;
#X connect 13 0 11 0;
#X connect 14 0 12 0;
#X connect 17 0 9 0;
#X connect 19 0 1 1;
#X connect 20 0 19 0;
#X connect 21 0 19 2;
#X connect 22 0 19 3;
#X connect 23 0 22 0;
