#N canvas 446 95 737 573 10;
#X obj 140 175 mm-vco~;
#X obj 319 314 *~;
#X obj 298 368 output~;
#X text 349 319 <- multiply audio signal by another signal to control
amplitude (volume);
#X text 371 378 <- output to speakers;
#X floatatom 182 89 5 0 0 0 - - -;
#X text 219 88 <- click and drag;
#X obj 410 175 mm-adsr~;
#X msg 135 73 60;
#X msg 125 50 62;
#X obj 136 126 mtof;
#X floatatom 136 148 5 0 0 0 - - -;
#X text 165 71 <- click to set note (60 = middle C);
#X msg 111 29 64;
#X msg 98 8 65;
#X text 174 126 <- convert to frequency;
#X connect 0 0 1 0;
#X connect 1 0 2 0;
#X connect 1 0 2 1;
#X connect 5 0 10 0;
#X connect 7 0 1 1;
#X connect 8 0 10 0;
#X connect 9 0 10 0;
#X connect 10 0 11 0;
#X connect 11 0 0 0;
#X connect 13 0 10 0;
#X connect 14 0 10 0;
