#N canvas 446 95 737 573 10;
#X obj 126 322 mm-vco~;
#X obj 305 461 *~;
#X obj 284 515 output~;
#X text 335 466 <- multiply audio signal by another signal to control
amplitude (volume);
#X text 357 525 <- output to speakers;
#X obj 396 322 mm-adsr~;
#X obj 125 284 mtof;
#X floatatom 125 303 5 0 0 0 - - -;
#X msg 98 163 60;
#X msg 129 163 62;
#X msg 162 163 64;
#X msg 193 163 65;
#X msg 223 162 67;
#X msg 257 163 69;
#X msg 288 163 71;
#X msg 319 163 72;
#X text 343 132 <- send a bang out outlet that matches input;
#X text 350 162 <- major scale starting at middle C;
#X obj 396 298 tgl 15 0 empty empty empty 17 7 0 10 -262144 -1 -1 0
1;
#X text 416 297 <- note on/off;
#X obj 130 81 key;
#X floatatom 130 104 5 0 0 0 - - -;
#X obj 130 133 sel 97 115 100 102 106 107 108 59;
#X text 131 37 the [key] object generates a number;
#X text 131 54 the [sel] object routes the number to set the pitch
;
#X msg 407 267 0;
#X msg 389 224 1;
#X obj 387 194 bng 15 250 50 0 empty empty empty 17 7 0 10 -262144
-1 -1;
#X obj 408 244 pipe 80;
#X text 434 224 <- send a 1;
#X text 462 243 <- wait 80 ms;
#X text 463 267 <- send a 0;
#X text 130 5 keys "asdf jkl \; " play a major scale;
#X connect 0 0 1 0;
#X connect 1 0 2 0;
#X connect 1 0 2 1;
#X connect 5 0 1 1;
#X connect 6 0 7 0;
#X connect 7 0 0 0;
#X connect 8 0 6 0;
#X connect 9 0 6 0;
#X connect 10 0 6 0;
#X connect 11 0 6 0;
#X connect 12 0 6 0;
#X connect 13 0 6 0;
#X connect 14 0 6 0;
#X connect 15 0 6 0;
#X connect 18 0 5 0;
#X connect 20 0 21 0;
#X connect 21 0 22 0;
#X connect 21 0 27 0;
#X connect 22 0 8 0;
#X connect 22 1 9 0;
#X connect 22 2 10 0;
#X connect 22 3 11 0;
#X connect 22 4 12 0;
#X connect 22 5 13 0;
#X connect 22 6 14 0;
#X connect 22 7 15 0;
#X connect 25 0 18 0;
#X connect 26 0 18 0;
#X connect 27 0 26 0;
#X connect 27 0 28 0;
#X connect 28 0 25 0;
