#N canvas 446 95 737 573 10;
#X obj 127 208 mm-vco~;
#X obj 306 347 *~;
#X obj 285 401 output~;
#X text 336 352 <- multiply audio signal by another signal to control
amplitude (volume);
#X text 358 411 <- output to speakers;
#X obj 397 208 mm-adsr~;
#X obj 162 93 metro 200;
#X floatatom 162 141 5 0 0 0 - - -;
#X obj 161 73 tgl 15 0 empty empty empty 17 7 0 10 -262144 -1 -1 0
1;
#X text 187 72 <- start metronome;
#X text 227 92 <- send a bang every 200 ms;
#X obj 397 184 tgl 15 0 empty empty empty 17 7 0 10 -262144 -1 -1 0
1;
#X text 417 183 <- note on/off;
#X obj 162 117 random 1000;
#X text 239 117 <- generate a random number from [0 \, 999];
#X text 162 23 Generates random numbers to set the frequency;
#X connect 0 0 1 0;
#X connect 1 0 2 0;
#X connect 1 0 2 1;
#X connect 5 0 1 1;
#X connect 6 0 13 0;
#X connect 7 0 0 0;
#X connect 8 0 6 0;
#X connect 11 0 5 0;
#X connect 13 0 7 0;
