#N canvas 446 95 737 573 10;
#X obj 305 411 *~;
#X obj 284 465 output~;
#X text 335 416 <- multiply audio signal by another signal to control
amplitude (volume);
#X text 357 475 <- output to speakers;
#X obj 396 272 mm-adsr~;
#X obj 125 234 mtof;
#X floatatom 125 253 5 0 0 0 - - -;
#X msg 98 193 60;
#X msg 129 193 62;
#X msg 162 193 64;
#X msg 193 193 65;
#X msg 223 192 67;
#X msg 257 193 69;
#X msg 288 193 71;
#X obj 162 160 sel 0 1 2 3 4 5 6 7;
#X obj 162 93 metro 200;
#X floatatom 162 141 5 0 0 0 - - -;
#X obj 161 73 tgl 15 0 empty empty empty 17 7 0 10 -262144 -1 -1 1
1;
#X msg 319 193 72;
#X text 187 72 <- start metronome;
#X text 227 92 <- send a bang every 200 ms;
#X text 289 158 <- send a bang out outlet that matches input;
#X text 359 193 <- major scale starting at middle C;
#X obj 162 117 random 8;
#X text 229 117 <- generate a random number from [0 \, 7];
#X obj 396 248 tgl 15 0 empty empty empty 17 7 0 10 -262144 -1 -1 0
1;
#X text 416 247 <- note on/off;
#X text 162 23 Generates random numbers to select from a list of notes
;
#X obj 126 272 mm-waves~;
#X connect 0 0 1 0;
#X connect 0 0 1 1;
#X connect 4 0 0 1;
#X connect 5 0 6 0;
#X connect 6 0 28 0;
#X connect 7 0 5 0;
#X connect 8 0 5 0;
#X connect 9 0 5 0;
#X connect 10 0 5 0;
#X connect 11 0 5 0;
#X connect 12 0 5 0;
#X connect 13 0 5 0;
#X connect 14 0 7 0;
#X connect 14 1 8 0;
#X connect 14 2 9 0;
#X connect 14 3 10 0;
#X connect 14 4 11 0;
#X connect 14 5 12 0;
#X connect 14 6 13 0;
#X connect 14 7 18 0;
#X connect 15 0 23 0;
#X connect 16 0 14 0;
#X connect 17 0 15 0;
#X connect 18 0 5 0;
#X connect 23 0 16 0;
#X connect 25 0 4 0;
#X connect 28 0 0 0;
