#N canvas 347 187 755 450 10;
#X obj 102 167 mm-waves~;
#X obj 122 25 mm-lfo~ 5 -5 5;
#X obj 87 134 +;
#X msg 47 94 400;
#X obj 45 69 loadbang;
#X obj 103 281 output~;
#X obj 135 108 t b f;
#X connect 0 0 5 0;
#X connect 0 0 5 1;
#X connect 1 1 6 0;
#X connect 2 0 0 0;
#X connect 3 0 2 0;
#X connect 4 0 3 0;
#X connect 6 0 2 0;
#X connect 6 1 2 1;
