#N canvas 69 22 1037 756 10;
#N canvas 264 66 881 712 board 0;
#X msg 75 112 close;
#X msg 57 61 devices;
#X msg 74 85 open 4;
#X floatatom 328 449 5 0 0 0 - - -;
#N canvas 95 274 651 363 read_analog 0;
#X obj 167 67 inlet;
#X obj 156 319 outlet;
#X obj 229 319 outlet;
#X obj 278 320 outlet;
#X obj 181 232 list prepend;
#X obj 267 233 t l;
#N canvas 163 220 646 477 serial_println 0;
#X obj 60 25 inlet;
#X obj 156 145 t f b;
#X obj 156 209 +;
#X obj 183 170 f;
#X obj 183 192 * 10;
#X msg 198 139 0;
#X obj 156 231 t f f;
#X obj 60 248 f;
#X obj 60 122 t b b;
#X obj 60 270 outlet;
#X text 152 17 to be used with [comport] for utilising Arduino's Serial.println()
function;
#X obj 156 116 - 48;
#X text 186 211 this is taken from the code often used in the Arduino:
;
#X text 208 229 while(Serial.available));
#X text 216 244 byte inByte = Serial.read() \;;
#X text 216 257 if((inByte >= '0') && (inByte <= '9'));
#X text 208 295 (curly brackets are not available in Pd's comments)
;
#X text 235 273 int temp = temp * 10 + inByte - '0' \;;
#X text 214 345 written by Alexandros Drymonitis;
#X obj 111 73 moses 48;
#X obj 156 95 moses 58;
#X text 172 72 let only digits through;
#X obj 60 47 sel 10 13;
#X connect 0 0 22 0;
#X connect 1 0 2 0;
#X connect 1 1 3 0;
#X connect 2 0 6 0;
#X connect 3 0 4 0;
#X connect 4 0 2 1;
#X connect 5 0 3 1;
#X connect 6 0 7 1;
#X connect 6 1 3 1;
#X connect 7 0 9 0;
#X connect 8 0 7 0;
#X connect 8 1 5 0;
#X connect 11 0 1 0;
#X connect 19 1 20 0;
#X connect 20 0 11 0;
#X connect 22 0 8 0;
#X connect 22 2 19 0;
#X restore 167 160 pd serial_println;
#X obj 181 283 unpack f f f;
#X text 285 160 turn Serial.println characters into integers;
#X text 303 230 pack values into a list that starts right after the
;
#X text 303 245 begin packet character;
#X text 283 278 send each value to its own outlet add an 'f' and an
outlet for each value you are sending between begin/end chars;
#X text 315 89 65 = 'A': begin digital packet;
#X text 316 104 97 = 'a' : end digital packet;
#N canvas 556 208 852 430 parse-start-stop-Aa 0;
#X msg 179 182 0;
#X msg 152 182 1;
#X msg 238 333 1;
#X obj 238 239 counter;
#X obj 176 387 &&;
#X msg 272 333 0;
#X obj 241 191 gate;
#X obj 205 364 f;
#X obj 171 314 t b b;
#X obj 241 270 > 2;
#X obj 241 308 sel 1 0;
#X obj 209 436 gate;
#X obj 209 478 outlet;
#X text 313 116 65 = 'A' is to start listening;
#X obj 227 60 inlet;
#X obj 342 456 outlet;
#X obj 145 276 f;
#X obj 228 121 t f f f f;
#X text 326 473 send bang when new group is starting;
#X text 58 516 by Jiffer Harriman;
#X text 57 530 Creative Commons Open Source;
#X text 313 133 97 = 'a' is to stop;
#X obj 157 155 sel 65 97;
#X connect 0 0 16 0;
#X connect 0 0 6 0;
#X connect 1 0 16 0;
#X connect 1 0 6 0;
#X connect 2 0 7 1;
#X connect 3 0 9 0;
#X connect 4 0 11 0;
#X connect 5 0 7 1;
#X connect 6 0 3 0;
#X connect 7 0 4 1;
#X connect 8 0 4 0;
#X connect 8 1 7 0;
#X connect 9 0 10 0;
#X connect 10 0 2 0;
#X connect 10 1 5 0;
#X connect 11 0 12 0;
#X connect 14 0 17 0;
#X connect 16 0 4 0;
#X connect 17 0 11 1;
#X connect 17 1 8 0;
#X connect 17 2 6 1;
#X connect 17 3 22 0;
#X connect 22 0 1 0;
#X connect 22 0 15 0;
#X connect 22 1 0 0;
#X connect 22 1 3 2;
#X restore 166 99 pd parse-start-stop-Aa;
#X connect 0 0 14 0;
#X connect 4 0 5 0;
#X connect 4 0 7 0;
#X connect 5 0 4 1;
#X connect 6 0 4 0;
#X connect 7 0 1 0;
#X connect 7 1 2 0;
#X connect 7 2 3 0;
#X connect 14 0 6 0;
#X connect 14 1 4 1;
#X restore 330 353 pd read_analog;
#N canvas 95 274 761 439 read_digital 0;
#X obj 167 61 inlet;
#X obj 156 319 outlet;
#X obj 202 334 outlet;
#X obj 225 361 outlet;
#X obj 181 232 list prepend;
#X obj 267 233 t l;
#N canvas 163 220 646 477 serial_println 0;
#X obj 60 25 inlet;
#X obj 156 145 t f b;
#X obj 156 209 +;
#X obj 183 170 f;
#X obj 183 192 * 10;
#X msg 198 139 0;
#X obj 156 231 t f f;
#X obj 60 248 f;
#X obj 60 122 t b b;
#X obj 60 270 outlet;
#X text 152 17 to be used with [comport] for utilising Arduino's Serial.println()
function;
#X obj 156 116 - 48;
#X text 186 211 this is taken from the code often used in the Arduino:
;
#X text 208 229 while(Serial.available));
#X text 216 244 byte inByte = Serial.read() \;;
#X text 216 257 if((inByte >= '0') && (inByte <= '9'));
#X text 208 295 (curly brackets are not available in Pd's comments)
;
#X text 235 273 int temp = temp * 10 + inByte - '0' \;;
#X text 214 345 written by Alexandros Drymonitis;
#X obj 111 73 moses 48;
#X obj 156 95 moses 58;
#X text 172 72 let only digits through;
#X obj 60 47 sel 10 13;
#X connect 0 0 22 0;
#X connect 1 0 2 0;
#X connect 1 1 3 0;
#X connect 2 0 6 0;
#X connect 3 0 4 0;
#X connect 4 0 2 1;
#X connect 5 0 3 1;
#X connect 6 0 7 1;
#X connect 6 1 3 1;
#X connect 7 0 9 0;
#X connect 8 0 7 0;
#X connect 8 1 5 0;
#X connect 11 0 1 0;
#X connect 19 1 20 0;
#X connect 20 0 11 0;
#X connect 22 0 8 0;
#X connect 22 2 19 0;
#X restore 167 160 pd serial_println;
#X text 316 104 100 = 'd' : end digital packet;
#X text 315 89 68 = 'D': begin digital packet;
#X text 285 160 turn Serial.println characters into integers;
#X text 303 230 pack values into a list that starts right after the
;
#X text 303 245 begin packet character;
#X text 421 276 send each value to its own outlet add an 'f' and an
outlet for each value you are sending between begin/end chars;
#X obj 181 283 unpack f f f f f f;
#X obj 260 328 outlet;
#X obj 293 357 outlet;
#X obj 325 329 outlet;
#N canvas 556 208 852 430 parse-start-stop-Dd 0;
#X msg 179 182 0;
#X msg 152 182 1;
#X msg 238 333 1;
#X obj 238 239 counter;
#X obj 176 387 &&;
#X msg 272 333 0;
#X obj 241 191 gate;
#X obj 205 364 f;
#X obj 171 314 t b b;
#X obj 241 270 > 2;
#X obj 241 308 sel 1 0;
#X obj 209 436 gate;
#X obj 209 478 outlet;
#X text 313 116 65 = 'A' is to start listening;
#X obj 227 60 inlet;
#X obj 342 456 outlet;
#X obj 145 276 f;
#X obj 228 121 t f f f f;
#X text 326 473 send bang when new group is starting;
#X text 58 516 by Jiffer Harriman;
#X text 57 530 Creative Commons Open Source;
#X text 313 133 97 = 'a' is to stop;
#X obj 157 155 sel 68 100;
#X connect 0 0 16 0;
#X connect 0 0 6 0;
#X connect 1 0 16 0;
#X connect 1 0 6 0;
#X connect 2 0 7 1;
#X connect 3 0 9 0;
#X connect 4 0 11 0;
#X connect 5 0 7 1;
#X connect 6 0 3 0;
#X connect 7 0 4 1;
#X connect 8 0 4 0;
#X connect 8 1 7 0;
#X connect 9 0 10 0;
#X connect 10 0 2 0;
#X connect 10 1 5 0;
#X connect 11 0 12 0;
#X connect 14 0 17 0;
#X connect 16 0 4 0;
#X connect 17 0 11 1;
#X connect 17 1 8 0;
#X connect 17 2 6 1;
#X connect 17 3 22 0;
#X connect 22 0 1 0;
#X connect 22 0 15 0;
#X connect 22 1 0 0;
#X connect 22 1 3 2;
#X restore 161 96 pd parse-start-stop-Dd;
#X connect 0 0 17 0;
#X connect 4 0 5 0;
#X connect 4 0 13 0;
#X connect 5 0 4 1;
#X connect 6 0 4 0;
#X connect 13 0 1 0;
#X connect 13 1 2 0;
#X connect 13 2 3 0;
#X connect 13 3 14 0;
#X connect 13 4 15 0;
#X connect 13 5 16 0;
#X connect 17 0 6 0;
#X connect 17 1 4 1;
#X restore 40 251 pd read_digital;
#X text 121 84 <- open the port where your Arduino is connected \,
mine is 4;
#X text 116 60 <- click to list the devices available;
#X obj 76 140 r toArduino;
#X obj 469 313 f;
#X obj 555 313 f;
#X obj 630 311 f;
#X obj 411 204 tgl 15 0 empty empty empty 17 7 0 10 -262144 -1 -1 1
1;
#X floatatom 484 258 5 0 0 0 - - -;
#X floatatom 569 258 5 0 0 0 - - -;
#X floatatom 645 255 5 0 0 0 - - -;
#X obj 469 353 s toArduino;
#X obj 484 288 clip 0 255;
#X obj 411 184 loadbang;
#X obj 570 284 clip 0 255;
#X obj 645 284 clip 0 255;
#X obj 329 386 resample 50;
#X floatatom 29 359 5 0 0 0 - - -;
#X floatatom 69 356 5 0 0 0 - - -;
#X floatatom 110 357 5 0 0 0 - - -;
#X obj 30 296 resample 50;
#X obj 70 315 resample 50;
#X obj 109 335 resample 50;
#X obj 73 191 comport 4 115200;
#X msg 408 149 0;
#X obj 392 115 t b;
#X obj 412 221 metro 30;
#X obj 412 246 t b b b;
#X text 29 458 by Jiffer Harriman;
#X text 28 472 Creative Commons Open Source;
#X floatatom 109 442 5 0 0 0 - - -;
#X floatatom 149 439 5 0 0 0 - - -;
#X floatatom 190 440 5 0 0 0 - - -;
#X obj 110 379 resample 50;
#X obj 150 398 resample 50;
#X obj 189 418 resample 50;
#X obj 500 586 outlet;
#X obj 105 584 change;
#X obj 150 583 change;
#X obj 198 583 change;
#X obj 251 584 change;
#X obj 302 583 change;
#X obj 353 584 change;
#X obj 106 611 outlet;
#X obj 153 612 outlet;
#X obj 200 612 outlet;
#X obj 247 613 outlet;
#X obj 302 609 outlet;
#X obj 349 610 outlet;
#X obj 85 508 sel 1 0;
#X msg 85 536 0;
#X msg 106 563 1;
#X obj 136 508 sel 1 0;
#X msg 136 536 0;
#X msg 157 563 1;
#X obj 186 509 sel 1 0;
#X msg 186 535 0;
#X msg 207 562 1;
#X obj 236 510 sel 1 0;
#X msg 236 535 0;
#X msg 259 556 1;
#X obj 291 512 sel 1 0;
#X msg 291 537 0;
#X msg 314 558 1;
#X obj 343 508 sel 1 0;
#X msg 343 533 0;
#X msg 366 554 1;
#X connect 0 0 28 0;
#X connect 0 0 30 0;
#X connect 1 0 28 0;
#X connect 2 0 28 0;
#X connect 4 0 21 0;
#X connect 4 0 41 0;
#X connect 5 0 25 0;
#X connect 5 0 54 0;
#X connect 5 1 26 0;
#X connect 5 1 57 0;
#X connect 5 2 27 0;
#X connect 5 2 60 0;
#X connect 5 3 38 0;
#X connect 5 3 63 0;
#X connect 5 4 39 0;
#X connect 5 4 66 0;
#X connect 5 5 40 0;
#X connect 5 5 69 0;
#X connect 8 0 28 0;
#X connect 9 0 16 0;
#X connect 10 0 16 0;
#X connect 11 0 16 0;
#X connect 12 0 31 0;
#X connect 13 0 17 0;
#X connect 14 0 19 0;
#X connect 15 0 20 0;
#X connect 17 0 9 1;
#X connect 18 0 12 0;
#X connect 19 0 10 1;
#X connect 20 0 11 1;
#X connect 21 0 3 0;
#X connect 25 0 22 0;
#X connect 26 0 23 0;
#X connect 27 0 24 0;
#X connect 28 0 5 0;
#X connect 28 0 4 0;
#X connect 29 0 12 0;
#X connect 30 0 29 0;
#X connect 31 0 32 0;
#X connect 32 0 11 0;
#X connect 32 1 10 0;
#X connect 32 2 9 0;
#X connect 38 0 35 0;
#X connect 39 0 36 0;
#X connect 40 0 37 0;
#X connect 42 0 48 0;
#X connect 43 0 49 0;
#X connect 44 0 50 0;
#X connect 45 0 51 0;
#X connect 46 0 52 0;
#X connect 47 0 53 0;
#X connect 54 0 55 0;
#X connect 54 1 56 0;
#X connect 55 0 42 0;
#X connect 56 0 42 0;
#X connect 57 0 58 0;
#X connect 57 1 59 0;
#X connect 58 0 43 0;
#X connect 59 0 43 0;
#X connect 60 0 61 0;
#X connect 60 1 62 0;
#X connect 61 0 44 0;
#X connect 62 0 44 0;
#X connect 63 0 64 0;
#X connect 63 1 65 0;
#X connect 64 0 45 0;
#X connect 65 0 45 0;
#X connect 66 0 67 0;
#X connect 66 1 68 0;
#X connect 67 0 46 0;
#X connect 68 0 46 0;
#X connect 69 0 70 0;
#X connect 69 1 71 0;
#X connect 70 0 47 0;
#X connect 71 0 47 0;
#X restore 93 151 pd board with the clippys;
#X obj 160 650 mm-reverb~;
#X obj 197 744 dac~;
#X text 90 104 ON;
#X msg 33 99 \; pd dsp 1;
#X obj 33 49 loadbang;
#X obj 33 72 del 500;
#X obj 280 172 s a0;
#X obj 159 487 mm-delay~;
#X obj 159 568 mm-filter~;
#X msg 71 250 0;
#X msg 112 248 3;
#X msg 154 248 5;
#X msg 194 240 7;
#X msg 236 238 10;
#X msg 276 238 12;
#X obj 62 276 +;
#X obj 105 276 +;
#X obj 144 274 +;
#X obj 187 274 +;
#X obj 229 268 +;
#X obj 272 268 +;
#X floatatom 22 260 5 0 0 0 - - -;
#X obj 310 219 loadbang;
#X floatatom 397 295 5 0 0 0 - - -;
#X obj 389 133 vsl 15 128 0 15 0 0 empty empty empty 0 -9 0 10 -262144
-1 -1 3800 1;
#X obj 405 320 s ratio;
#X obj 24 306 clippy-voice;
#X obj 342 429 loadbang;
#X msg 279 463 0.2;
#X msg 324 460 80;
#X msg 374 459 0.85;
#X obj 93 329 clippy-voice v1;
#X obj 134 305 clippy-voice;
#X obj 173 355 clippy-voice;
#X obj 225 304 clippy-voice;
#X obj 277 330 clippy-voice;
#X obj 27 199 loadbang;
#X msg 24 224 55;
#X obj 525 412 r a0;
#X obj 648 448 bng 15 250 50 0 empty empty empty 17 7 0 10 -262144
-1 -1;
#X obj 525 439 / 1023;
#X obj 507 167 s r;
#X floatatom 507 144 5 0 0 0 - - -;
#X obj 524 481 mm-automap 800 3001;
#X obj 518 545 line;
#X msg 519 520 \$1 50;
#X connect 0 0 27 1;
#X connect 0 1 32 1;
#X connect 0 2 33 1;
#X connect 0 3 34 1;
#X connect 0 4 35 1;
#X connect 0 5 36 1;
#X connect 0 6 7 0;
#X connect 1 0 2 0;
#X connect 1 1 2 1;
#X connect 5 0 6 0;
#X connect 6 0 4 0;
#X connect 8 0 9 0;
#X connect 9 0 1 0;
#X connect 10 0 16 1;
#X connect 11 0 17 1;
#X connect 12 0 18 1;
#X connect 13 0 19 1;
#X connect 14 0 20 1;
#X connect 15 0 21 1;
#X connect 16 0 27 0;
#X connect 17 0 32 0;
#X connect 18 0 33 0;
#X connect 19 0 34 0;
#X connect 20 0 35 0;
#X connect 21 0 36 0;
#X connect 22 0 16 0;
#X connect 22 0 17 0;
#X connect 22 0 18 0;
#X connect 22 0 19 0;
#X connect 22 0 20 0;
#X connect 22 0 21 0;
#X connect 23 0 15 0;
#X connect 23 0 14 0;
#X connect 23 0 13 0;
#X connect 23 0 12 0;
#X connect 23 0 11 0;
#X connect 23 0 10 0;
#X connect 24 0 26 0;
#X connect 25 0 24 0;
#X connect 27 0 8 0;
#X connect 28 0 30 0;
#X connect 28 0 29 0;
#X connect 29 0 8 2;
#X connect 30 0 8 3;
#X connect 31 0 8 4;
#X connect 32 0 8 0;
#X connect 33 0 8 0;
#X connect 34 0 8 0;
#X connect 35 0 8 0;
#X connect 36 0 8 0;
#X connect 37 0 38 0;
#X connect 38 0 22 0;
#X connect 39 0 41 0;
#X connect 40 0 44 3;
#X connect 41 0 44 0;
#X connect 43 0 42 0;
#X connect 44 0 46 0;
#X connect 45 0 9 3;
#X connect 46 0 45 0;
