#N canvas 662 200 1017 613 10;
#X obj 331 113 mm-adsr~;
#X obj 70 92 mtof;
#X obj 305 228 *~;
#X obj 70 115 mm-fm~;
#X obj 71 26 inlet;
#X obj 338 37 inlet;
#X obj 331 778 outlet~;
#X obj 308 63 r index;
#X obj 219 67 r ratio;
#X obj 414 39 sel 1;
#X obj 902 178 loadbang;
#X obj 311 341 mm-tremolo~;
#X msg 506 244 0;
#X msg 901 201 set trem;
#X obj 612 196 pipe 500;
#X obj 594 345 loadbang;
#X obj 330 696 mm-overdrive~;
#X msg 444 665 1;
#X obj 767 434 random 100;
#X obj 768 454 / 100;
#X obj 648 430 random 100;
#X obj 649 450 / 100;
#X obj 650 474 * 0.1;
#X obj 652 526 + 0.1;
#X obj 769 478 * 0.1;
#X obj 771 530 + 0.1;
#X obj 555 312 +;
#X obj 541 230 random 100;
#X obj 541 253 / 100;
#X obj 541 274 * 2;
#X obj 554 204 t b;
#X obj 616 228 mm-readarray 3000 0 6;
#X obj 400 554 mm-lfo 0.1 3 8;
#X obj 666 573 mm-lfo 0.1 5 12;
#X obj 733 350 loadbang;
#X obj 733 373 pipe 500;
#X msg 594 377 0.9;
#X obj 732 397 bng 15 250 50 0 empty empty empty 17 7 0 10 -262144
-1 -1;
#X obj 554 81 r release;
#X obj 377 85 r attack;
#X connect 0 0 2 1;
#X connect 1 0 3 0;
#X connect 2 0 11 0;
#X connect 3 0 2 0;
#X connect 4 0 1 0;
#X connect 5 0 0 0;
#X connect 5 0 9 0;
#X connect 7 0 3 3;
#X connect 8 0 3 2;
#X connect 9 0 12 0;
#X connect 9 0 14 0;
#X connect 10 0 13 0;
#X connect 11 0 16 0;
#X connect 12 0 11 3;
#X connect 13 0 31 4;
#X connect 14 0 30 0;
#X connect 15 0 36 0;
#X connect 16 0 6 0;
#X connect 17 0 16 2;
#X connect 18 0 19 0;
#X connect 19 0 24 0;
#X connect 20 0 21 0;
#X connect 21 0 22 0;
#X connect 22 0 23 0;
#X connect 23 0 32 1;
#X connect 24 0 25 0;
#X connect 25 0 33 1;
#X connect 26 0 11 3;
#X connect 27 0 28 0;
#X connect 28 0 29 0;
#X connect 29 0 26 1;
#X connect 30 0 27 0;
#X connect 30 0 31 0;
#X connect 31 0 26 0;
#X connect 32 0 16 3;
#X connect 33 0 16 4;
#X connect 34 0 35 0;
#X connect 35 0 37 0;
#X connect 36 0 11 4;
#X connect 37 0 20 0;
#X connect 37 0 18 0;
#X connect 38 0 0 4;
#X connect 39 0 0 1;
