#N canvas 0 22 887 697 10;
#X obj 216 211 int;
#N canvas 0 22 450 278 (subpatch) 0;
#X array scale 12 float 3;
#A 0 0 2 3 4 7 9 10 12 14 15 16 17;
#X coords 0 24 12 0 200 140 1 0 0;
#X restore 423 36 graph;
#X obj 125 25 mm;
#X floatatom 217 299 5 0 0 0 - - -;
#X obj 216 260 tabread scale;
#X floatatom 229 236 5 0 0 0 - - -;
#X obj 212 325 + 60;
#X obj 213 347 mtof;
#X obj 210 376 mm-fm~;
#X obj 355 672 dac~;
#X floatatom 457 329 5 0 0 0 - - -;
#X floatatom 366 341 5 0 0 0 - - -;
#X obj 216 128 mm-analog 4 -3 14;
#X obj 481 505 mm-digital 2;
#X obj 458 556 mm-adsr~;
#X obj 210 467 mm-filter~;
#X obj 386 633 *~;
#X obj 479 381 mm-analog 5 200 5000;
#X connect 0 0 4 0;
#X connect 0 0 5 0;
#X connect 3 0 6 0;
#X connect 4 0 3 0;
#X connect 6 0 7 0;
#X connect 7 0 8 0;
#X connect 8 0 15 0;
#X connect 10 0 8 3;
#X connect 11 0 8 2;
#X connect 12 0 0 0;
#X connect 13 0 14 0;
#X connect 14 0 16 1;
#X connect 15 0 16 0;
#X connect 16 0 9 0;
#X connect 16 0 9 1;
#X connect 17 0 15 3;
