#N canvas 0 36 1037 756 10;
#X obj 160 610 mm-reverb~;
#X obj 197 704 dac~;
#X obj 159 439 mm-delay~;
#X obj 159 528 mm-filter~;
#X obj 158 21 mm;
#X obj 45 193 mm-digital 2;
#X obj 494 453 mm-analog 0 500 5000;
#X obj 128 194 mm-digital 4;
#X obj 215 193 mm-digital 6;
#X obj 308 194 mm-digital 7;
#X obj 395 193 mm-digital 9;
#X obj 488 194 mm-digital 11;
#N canvas 65 521 450 300 voice 0;
#X obj 124 111 inlet;
#X obj -131 139 inlet;
#X obj 125 174 mm-vco~;
#X obj -137 172 mm-adsr~;
#X obj 65 291 *~;
#X obj 67 321 outlet~;
#X obj 246 148 loadbang;
#X connect 0 0 2 0;
#X connect 1 0 3 0;
#X connect 2 0 4 1;
#X connect 3 0 4 0;
#X connect 4 0 5 0;
#X connect 6 0 2 3;
#X restore 45 285 pd voice;
#X msg 90 242 60;
#X obj 90 263 mtof;
#N canvas 65 521 450 300 voice 0;
#X obj 124 111 inlet;
#X obj -131 139 inlet;
#X obj 125 174 mm-vco~;
#X obj -137 172 mm-adsr~;
#X obj 65 291 *~;
#X obj 67 321 outlet~;
#X obj 246 148 loadbang;
#X connect 0 0 2 0;
#X connect 1 0 3 0;
#X connect 2 0 4 1;
#X connect 3 0 4 0;
#X connect 4 0 5 0;
#X connect 6 0 2 3;
#X restore 128 283 pd voice;
#X msg 173 240 60;
#X obj 173 261 mtof;
#N canvas 65 521 450 300 voice 0;
#X obj 124 111 inlet;
#X obj -131 139 inlet;
#X obj 125 174 mm-vco~;
#X obj -137 172 mm-adsr~;
#X obj 65 291 *~;
#X obj 67 321 outlet~;
#X obj 246 148 loadbang;
#X connect 0 0 2 0;
#X connect 1 0 3 0;
#X connect 2 0 4 1;
#X connect 3 0 4 0;
#X connect 4 0 5 0;
#X connect 6 0 2 3;
#X restore 215 284 pd voice;
#X msg 260 241 60;
#X obj 260 262 mtof;
#N canvas 65 521 450 300 voice 0;
#X obj 124 111 inlet;
#X obj -131 139 inlet;
#X obj 125 174 mm-vco~;
#X obj -137 172 mm-adsr~;
#X obj 65 291 *~;
#X obj 67 321 outlet~;
#X obj 246 148 loadbang;
#X connect 0 0 2 0;
#X connect 1 0 3 0;
#X connect 2 0 4 1;
#X connect 3 0 4 0;
#X connect 4 0 5 0;
#X connect 6 0 2 3;
#X restore 308 289 pd voice;
#X msg 353 246 60;
#X obj 353 267 mtof;
#N canvas 65 521 450 300 voice 0;
#X obj 124 111 inlet;
#X obj -131 139 inlet;
#X obj 125 174 mm-vco~;
#X obj -137 172 mm-adsr~;
#X obj 65 291 *~;
#X obj 67 321 outlet~;
#X obj 246 148 loadbang;
#X connect 0 0 2 0;
#X connect 1 0 3 0;
#X connect 2 0 4 1;
#X connect 3 0 4 0;
#X connect 4 0 5 0;
#X connect 6 0 2 3;
#X restore 395 286 pd voice;
#X msg 440 243 60;
#X obj 440 264 mtof;
#N canvas 65 521 450 300 voice 0;
#X obj 124 111 inlet;
#X obj -131 139 inlet;
#X obj 125 174 mm-vco~;
#X obj -137 172 mm-adsr~;
#X obj 65 291 *~;
#X obj 67 321 outlet~;
#X obj 246 148 loadbang;
#X connect 0 0 2 0;
#X connect 1 0 3 0;
#X connect 2 0 4 1;
#X connect 3 0 4 0;
#X connect 4 0 5 0;
#X connect 6 0 2 3;
#X restore 488 285 pd voice;
#X msg 533 242 60;
#X obj 533 263 mtof;
#X obj 385 350 mm-analog 4;
#X connect 0 0 1 0;
#X connect 0 1 1 1;
#X connect 2 0 3 0;
#X connect 3 0 0 0;
#X connect 5 0 12 0;
#X connect 6 0 3 3;
#X connect 7 0 15 0;
#X connect 8 0 18 0;
#X connect 9 0 21 0;
#X connect 10 0 24 0;
#X connect 11 0 27 0;
#X connect 12 0 2 0;
#X connect 13 0 14 0;
#X connect 14 0 12 1;
#X connect 15 0 2 0;
#X connect 16 0 17 0;
#X connect 17 0 15 1;
#X connect 18 0 2 0;
#X connect 19 0 20 0;
#X connect 20 0 18 1;
#X connect 21 0 2 0;
#X connect 22 0 23 0;
#X connect 23 0 21 1;
#X connect 24 0 2 0;
#X connect 25 0 26 0;
#X connect 26 0 24 1;
#X connect 27 0 2 0;
#X connect 28 0 29 0;
#X connect 29 0 27 1;
#X connect 30 0 2 2;
