#N canvas 229 130 465 409 10;
#X obj 104 33 inlet;
#X obj 198 56 inlet;
#X obj 254 77 inlet;
#X obj 309 92 inlet;
#X obj 165 215 outlet;
#X text 198 38 min out;
#X text 252 61 max out;
#X obj 296 129 t b;
#X obj 173 116 mm-minval;
#X obj 190 139 mm-maxval;
#X obj 165 170 mm-map;
#X text 26 3 signal in (scales based on min /max values seen);
#X text 346 90 bang to reset min/max;
#X connect 0 0 8 0;
#X connect 0 0 9 0;
#X connect 0 0 10 0;
#X connect 1 0 10 3;
#X connect 2 0 10 4;
#X connect 3 0 7 0;
#X connect 3 0 8 1;
#X connect 3 0 9 1;
#X connect 7 0 10 4;
#X connect 7 0 10 3;
#X connect 8 0 10 1;
#X connect 9 0 10 2;
#X connect 10 0 4 0;
