#N canvas 0 22 817 634 12;
#X obj 153 9 cnv 17 3 25 empty empty 0 5 9 0 16 -228856 -162280 0;
#X obj 153 36 cnv 17 3 25 empty empty 1 5 9 0 16 -228856 -162280 0
;
#X obj 153 63 cnv 17 3 25 empty empty 2 5 9 0 16 -228856 -162280 0
;
#X text 176 62 float;
#X text 173 8 float;
#X text 174 35 float;
#X text 75 -27 mm-adsr~;
#X text 152 -27 ADSR (Attack \, Decay \, Sustain \, Release) Envelope
Generator;
#X obj 153 90 cnv 17 3 25 empty empty 3 5 9 0 16 -228856 -162280 0
;
#X text 176 89 float;
#X obj 74 4 cnv 3 400 3 empty \$0-pddp.cnv.inlets inlets 8 12 0 13
-228856 -1 0;
#X obj 153 117 cnv 17 3 25 empty empty 4 5 9 0 16 -228856 -162280 0
;
#X text 176 116 float;
#X obj 74 145 cnv 3 400 3 empty \$0-pddp.cnv.inlets outlets 8 12 0
13 -228856 -1 0;
#X obj 153 153 cnv 17 3 25 empty empty 0 5 9 0 16 -228856 -162280 0
;
#X text 173 152 signal;
#X text 239 152 Envelope output (between [0 \, 1]);
#X obj 34 -367 cnv 15 600 50 empty empty modular-mus_ADSR_envelope_generator
20 12 0 18 -183872 -66577 0;
#X text 58 -345 a modular hardware interfaces and audio manipulation
toolkit;
#X obj 154 -58 dac~;
#X obj 154 -93 *~;
#X obj 226 -176 mm-adsr~;
#X msg 248 -206 0;
#X msg 225 -265 1;
#X text 190 -97 <- multiply the output by a sound source to create
a volume envelope;
#X text 268 -268 <- a 1 triggers the envelope to go through the attack
and decay time and will hold at the sustain level;
#X text 292 -206 <- a 0 triggers the release time;
#X obj 102 -167 osc~ 400;
#N canvas 478 240 579 303 with-digital-input 0;
#X obj 22 89 mm-adsr~;
#X obj 22 39 mm-digital 0;
#X obj 280 91 mm-waves~;
#X obj 241 198 *~;
#X obj 235 234 dac~;
#X connect 0 0 3 0;
#X connect 1 0 0 0;
#X connect 2 0 3 1;
#X connect 3 0 4 0;
#X connect 3 0 4 1;
#X restore 74 239 pd with-digital-input;
#X text 72 211 examples:;
#X text 243 62 Decay - time to ramp from full level to sustain level
;
#X text 243 89 Sustain - level to sustain at until note off (0 - 1)
;
#X text 623 62 (1 - 1000 ms);
#X text 243 35 Attack - time to ramp a note on (1 - 2000 ms);
#X text 243 116 Release - time to go from sustain level to off (0 -
5000 ms);
#X text 243 8 Note On / Off (1 / 0);
#X connect 20 0 19 0;
#X connect 20 0 19 1;
#X connect 21 0 20 1;
#X connect 22 0 21 0;
#X connect 23 0 21 0;
#X connect 27 0 20 0;
