#N canvas 357 75 849 682 12;
#X obj 101 119 cnv 15 248 53 empty empty empty 20 12 0 14 -261682 -66577
0;
#X obj 113 403 vline~;
#X obj 39 346 pack f f;
#X obj 118 344 pack f f f;
#X obj 114 265 t b b b;
#X obj 36 252 t b b;
#X obj 54 206 t b b;
#X floatatom 126 183 5 0 0 0 - - -;
#X obj 73 298 f;
#X obj 189 296 f;
#X obj 111 301 f;
#X obj 150 300 f;
#X floatatom 190 185 5 0 0 0 - - -;
#X floatatom 247 183 5 0 0 0 - - -;
#X obj 282 346 pack f f;
#X obj 279 252 t b b;
#X obj 316 298 f;
#X msg 274 299 0;
#X floatatom 316 193 5 0 0 0 - - -;
#X obj 115 479 outlet~;
#X obj 115 123 tgl 25 0 empty empty note_on -8 35 0 12 -228856 -139850
-1 0 1;
#X obj 52 180 sel 1 0;
#X obj 166 136 knob 32 32 1 2000 0 0 empty empty A -5 -10 0 12 -262144
-1 -1 7 1;
#X obj 215 136 knob 32 32 1 1000 0 0 empty empty D -5 -10 0 12 -262144
-1 -1 115 1;
#X obj 265 136 knob 32 32 0 1 0 0 empty empty S -5 -10 0 12 -262144
-1 -1 1475 1;
#X obj 314 136 knob 32 32 1 2000 0 0 empty empty R -5 -10 0 12 -262144
-1 -1 300 1;
#X obj 109 41 inlet;
#X obj 380 46 loadbang;
#X msg 195 68 20;
#X obj 192 2 inlet;
#X obj 234 2 inlet;
#X obj 277 2 inlet;
#X obj 319 2 inlet;
#X msg 234 68 80;
#X msg 310 67 200;
#X msg 271 68 0.25;
#X msg 31 299 1;
#X connect 1 0 19 0;
#X connect 2 0 1 0;
#X connect 3 0 1 0;
#X connect 4 0 10 0;
#X connect 4 1 11 0;
#X connect 4 2 9 0;
#X connect 5 0 36 0;
#X connect 5 1 8 0;
#X connect 6 0 4 0;
#X connect 6 1 5 0;
#X connect 7 0 9 1;
#X connect 7 0 8 1;
#X connect 8 0 2 1;
#X connect 9 0 3 2;
#X connect 10 0 3 0;
#X connect 11 0 3 1;
#X connect 12 0 11 1;
#X connect 13 0 10 1;
#X connect 14 0 1 0;
#X connect 15 0 17 0;
#X connect 15 1 16 0;
#X connect 16 0 14 1;
#X connect 17 0 14 0;
#X connect 18 0 16 1;
#X connect 20 0 21 0;
#X connect 21 0 6 0;
#X connect 21 1 15 0;
#X connect 22 0 7 0;
#X connect 23 0 12 0;
#X connect 24 0 13 0;
#X connect 25 0 18 0;
#X connect 26 0 20 0;
#X connect 27 0 28 0;
#X connect 27 0 33 0;
#X connect 27 0 35 0;
#X connect 27 0 34 0;
#X connect 28 0 22 0;
#X connect 29 0 22 0;
#X connect 30 0 23 0;
#X connect 31 0 24 0;
#X connect 32 0 25 0;
#X connect 33 0 23 0;
#X connect 34 0 25 0;
#X connect 35 0 24 0;
#X connect 36 0 2 0;
#X coords 0 -1 1 1 250 75 1 100 100;
