#N canvas 229 130 794 489 10;
#X obj 104 33 inlet;
#X obj 198 56 inlet;
#X obj 254 77 inlet;
#X obj 309 92 inlet;
#X obj 165 215 outlet;
#X text 198 38 min out;
#X text 252 61 max out;
#X obj 296 129 t b;
#X obj 173 116 mm-minval;
#X obj 190 139 mm-maxval;
#X text 26 3 signal in (scales based on min /max values seen);
#X text 346 90 bang to reset min/max;
#X obj 165 170 mm-map;
#X obj 188 88 f \$1;
#X obj 255 101 f \$2;
#X obj 487 40 loadbang;
#X obj 532 82 f \$1;
#X obj 550 104 f \$2;
#X obj 532 165 ==;
#X msg 499 214 0;
#X obj 487 61 t b b;
#X obj 498 237 t b;
#X obj 499 191 sel 0;
#X connect 0 0 9 0;
#X connect 0 0 12 0;
#X connect 0 0 8 0;
#X connect 1 0 12 3;
#X connect 2 0 12 4;
#X connect 3 0 7 0;
#X connect 3 0 9 1;
#X connect 3 0 8 1;
#X connect 7 0 12 4;
#X connect 7 0 12 3;
#X connect 8 0 12 1;
#X connect 9 0 12 2;
#X connect 12 0 4 0;
#X connect 13 0 12 3;
#X connect 14 0 12 4;
#X connect 15 0 20 0;
#X connect 16 0 18 0;
#X connect 17 0 18 1;
#X connect 18 0 22 0;
#X connect 19 0 21 0;
#X connect 20 0 16 0;
#X connect 20 1 17 0;
#X connect 21 0 14 0;
#X connect 21 0 13 0;
#X connect 22 0 19 0;
