#N canvas 342 77 791 621 10;
#X obj 101 217 cnv 15 107 53 empty empty empty 20 12 0 14 -262130 -66577
0;
#X obj 178 218 bng 30 250 50 0 empty empty calib 0 35 0 10 -262144
-1 -1;
#X floatatom 104 238 6 0 0 1 low - -;
#X floatatom 104 219 6 0 0 1 high - -;
#X text 67 14 input data;
#X obj 122 139 loadbang;
#X obj 27 374 outlet;
#X msg 111 170 0;
#X obj 120 84 inlet;
#X obj 207 79 inlet;
#X obj 284 94 loadbang;
#X msg 148 168 1;
#X obj 273 120 f \$2;
#X obj 319 117 f \$3;
#X obj 283 163 ==;
#X obj 282 185 sel 1;
#X obj 283 211 del 10;
#X text 330 203 if min and max are equal \, load 0 and 1;
#X obj 105 258 hsl 100 15 0 1 0 0 empty empty empty -2 -8 0 10 -243976
-143751 -1 0 1;
#X obj 316 138 t b;
#X obj 397 93 inlet;
#X obj 33 234 mm-automap;
#X obj 27 336 mm-automap;
#X obj 128 354 outlet;
#X obj 40 280 resample 70;
#X obj 27 16 r A\$1;
#X obj 27 67 / 1023;
#X text 38 49 scale 10 bit Arduino analog inputs;
#X connect 1 0 21 3;
#X connect 1 0 22 3;
#X connect 2 0 22 1;
#X connect 3 0 22 2;
#X connect 5 0 7 0;
#X connect 5 0 11 0;
#X connect 7 0 2 0;
#X connect 7 0 21 1;
#X connect 8 0 2 0;
#X connect 9 0 3 0;
#X connect 10 0 12 0;
#X connect 10 0 13 0;
#X connect 11 0 3 0;
#X connect 11 0 21 2;
#X connect 12 0 2 0;
#X connect 12 0 14 1;
#X connect 13 0 3 0;
#X connect 13 0 19 0;
#X connect 13 0 14 0;
#X connect 14 0 15 0;
#X connect 15 0 16 0;
#X connect 16 0 11 0;
#X connect 16 0 7 0;
#X connect 20 0 1 0;
#X connect 21 0 24 0;
#X connect 21 0 18 0;
#X connect 22 0 6 0;
#X connect 25 0 26 0;
#X connect 26 0 21 0;
#X connect 26 0 22 0;
#X connect 26 0 23 0;
#X coords -1 -1 1 1 110 75 1 100 200;
