#N canvas 136 351 676 427 10;
#X floatatom 21 142 5 0 0 0 - - -;
#X msg 21 120 1;
#X obj 21 97 loadbang;
#X obj -25 276 *~;
#X obj 10 276 *~;
#X obj -7 308 +~;
#X obj -98 91 inlet~;
#X obj -36 89 inlet~;
#X obj -7 364 outlet~;
#X obj 139 74 inlet;
#X obj 157 114 tgl 15 0 empty empty empty 17 7 0 10 -262144 -1 -1 0
1;
#X text 96 133 in1/in2;
#X text 100 115 0;
#X text 131 115 1;
#X obj 190 82 loadbang;
#X msg 191 105 0;
#X msg 157 145 \$1 20;
#X obj 157 169 line~;
#X obj 20 206 -~;
#X obj 19 173 sig~;
#X connect 0 0 19 0;
#X connect 1 0 0 0;
#X connect 2 0 1 0;
#X connect 3 0 5 0;
#X connect 4 0 5 0;
#X connect 5 0 8 0;
#X connect 6 0 3 0;
#X connect 7 0 4 0;
#X connect 9 0 10 0;
#X connect 10 0 16 0;
#X connect 14 0 15 0;
#X connect 15 0 10 0;
#X connect 16 0 17 0;
#X connect 17 0 4 1;
#X connect 17 0 18 1;
#X connect 18 0 3 1;
#X connect 19 0 18 0;
#X coords 0 -1 1 1 75 30 1 100 100;
