#N canvas 751 90 389 434 10;
#X text 78 50 input data;
#X obj 82 67 r D\$1;
#X obj 101 215 cnv 15 78 22 empty empty empty 20 12 0 14 -204786 -66577
0;
#X obj 104 177 -;
#X msg 89 157 1;
#X obj 104 219 tgl 15 0 empty empty empty 17 7 0 10 -262144 -1 -1 0
1;
#X obj 91 131 t b f;
#X obj 104 280 outlet;
#X text 148 277 button value inverse;
#X obj 85 100 change;
#X text 144 132 <- invert it since hw uses a pull up;
#X connect 1 0 9 0;
#X connect 3 0 5 0;
#X connect 4 0 3 0;
#X connect 5 0 7 0;
#X connect 6 0 4 0;
#X connect 6 1 3 1;
#X connect 9 0 6 0;
#X coords -1 -1 1 1 80 40 1 100 200;
