#N canvas 79 22 764 741 12;
#X obj 101 119 cnv 15 248 53 empty empty empty 20 12 0 12 -203904 -66577
0;
#X obj 291 244 line~;
#X obj 253 290 *~;
#N canvas 759 224 450 300 limitit 0;
#X obj 113 158 *~;
#X obj 88 132 z~ 64;
#X obj 128 131 limiter~ 10;
#X obj 99 84 +~;
#X obj 66 40 inlet~;
#X obj 140 39 inlet~;
#X obj 113 199 outlet~;
#X connect 0 0 6 0;
#X connect 1 0 0 0;
#X connect 2 0 0 1;
#X connect 3 0 1 0;
#X connect 3 0 2 0;
#X connect 4 0 3 0;
#X connect 5 0 3 1;
#X restore 196 315 pd limitit;
#X obj 68 14 inlet~;
#X obj 75 536 outlet~;
#X obj 160 121 tgl 25 0 empty empty on 4 30 0 14 -99865 -4034 -1 1
1;
#X obj 306 136 knob 32 32 0 1.05 0 0 empty empty feedback -14 -10 0
12 -262144 -1 -1 1476 1;
#X obj 253 135 knob 32 32 25 2000 0 0 empty empty delay -3 -10 0 12
-262144 -1 -1 275 1;
#X obj 172 229 line~;
#X obj 153 19 inlet;
#X obj 258 17 inlet;
#X obj 308 18 inlet;
#X obj 199 136 knob 32 32 0 1 0 0 empty empty dry/wet -4 -10 0 12 -262144
-1 -1 1550 1;
#X msg 313 74 0.5;
#X obj 261 52 loadbang;
#X obj 199 19 inlet;
#X obj 196 337 delwrite~ \$0-delLine 2000;
#X obj 181 249 vd~ \$0-delLine;
#X msg 172 209 \$1 20;
#X obj 77 455 mm-bypass~;
#X msg 260 75 200;
#X msg 287 219 \$1 100;
#X obj 111 404 mm-mix2~;
#X connect 1 0 2 1;
#X connect 2 0 3 1;
#X connect 3 0 17 0;
#X connect 4 0 3 0;
#X connect 4 0 20 0;
#X connect 4 0 23 0;
#X connect 6 0 20 2;
#X connect 7 0 22 0;
#X connect 8 0 19 0;
#X connect 9 0 18 0;
#X connect 10 0 6 0;
#X connect 11 0 8 0;
#X connect 12 0 7 0;
#X connect 13 0 23 2;
#X connect 14 0 13 0;
#X connect 14 0 7 0;
#X connect 15 0 14 0;
#X connect 15 0 6 0;
#X connect 15 0 21 0;
#X connect 16 0 13 0;
#X connect 18 0 2 0;
#X connect 18 0 23 1;
#X connect 19 0 9 0;
#X connect 20 0 5 0;
#X connect 21 0 8 0;
#X connect 22 0 1 0;
#X connect 23 0 20 1;
#X coords 0 -1 1 1 250 75 1 100 100;
