#N canvas 184 27 910 670 10;
#X obj 101 115 cnv 15 273 80 empty empty empty 20 12 0 14 -261682 -66577
0;
#X obj 68 27 inlet;
#X obj 153 372 metro;
#X obj 104 132 bng 25 250 50 0 empty empty trigger -2 32 0 12 -262144
-1 -1;
#X msg 66 329 1;
#X msg 153 343 0;
#X floatatom 156 137 8 10 1e+06 3 time_(ms) - -;
#X obj 180 314 / 100;
#X obj 153 484 line;
#X text 221 313 count to 100 in alotted time;
#X floatatom 274 138 8 0 0 3 max - -;
#X floatatom 215 138 8 0 0 3 min - -;
#X obj 154 423 counter 100;
#X obj 195 27 inlet;
#X obj 255 27 inlet;
#X text 255 10 maximum;
#X text 194 9 minimum;
#X text 67 10 trigger;
#X obj 118 28 inlet;
#X text 119 11 set time;
#X obj -123 81 loadbang;
#X obj -53 211 ==;
#X msg -86 260 0;
#X msg -56 260 1;
#X obj -96 99 t b b;
#X obj -53 128 f \$2;
#X obj -35 150 f \$3;
#X obj -43 62 f \$1;
#X msg -4 63 0;
#X obj 27 98 ==;
#X obj -6 123 spigot;
#X msg 14 149 200;
#X obj -56 233 sel 1;
#X obj 364 29 inlet;
#X text 364 9 set array-name;
#X obj 154 459 tabread \$0-nothing;
#X obj 155 512 clip 0 1;
#X obj 154 541 mm-map 0 1 0 1;
#X msg 149 568 \$1 10;
#X obj 152 619 outlet~;
#X obj 358 629 outlet;
#X obj 419 521 metro 5;
#X obj 413 469 loadbang;
#X obj 415 496 tgl 15 0 empty empty empty 17 7 0 10 -262144 -1 -1 1
1;
#X obj 355 587 snapshot~;
#X obj 150 595 line~;
#X connect 1 0 3 0;
#X connect 2 0 12 0;
#X connect 3 0 4 0;
#X connect 3 0 12 2;
#X connect 4 0 2 0;
#X connect 5 0 2 0;
#X connect 6 0 7 0;
#X connect 7 0 2 1;
#X connect 8 0 36 0;
#X connect 10 0 37 4;
#X connect 11 0 37 3;
#X connect 12 0 35 0;
#X connect 12 3 5 0;
#X connect 13 0 11 0;
#X connect 14 0 10 0;
#X connect 18 0 6 0;
#X connect 20 0 24 0;
#X connect 20 0 30 0;
#X connect 21 0 32 0;
#X connect 22 0 11 0;
#X connect 23 0 10 0;
#X connect 24 0 25 0;
#X connect 24 0 27 0;
#X connect 24 1 26 0;
#X connect 24 1 28 0;
#X connect 25 0 21 0;
#X connect 25 0 11 0;
#X connect 26 0 21 1;
#X connect 26 0 10 0;
#X connect 27 0 6 0;
#X connect 27 0 29 0;
#X connect 28 0 29 1;
#X connect 29 0 30 1;
#X connect 30 0 31 0;
#X connect 31 0 6 0;
#X connect 32 0 23 0;
#X connect 32 0 22 0;
#X connect 33 0 35 0;
#X connect 35 0 8 0;
#X connect 36 0 37 0;
#X connect 37 0 38 0;
#X connect 38 0 45 0;
#X connect 41 0 44 0;
#X connect 42 0 43 0;
#X connect 43 0 41 0;
#X connect 44 0 40 0;
#X connect 45 0 39 0;
#X connect 45 0 44 0;
#X coords 0 -1 1 1 275 100 1 100 100;
