#N canvas 0 22 773 657 12;
#X obj 154 -83 cnv 17 3 25 empty empty 0 5 9 0 16 -228856 -162280 0
;
#X obj 75 -92 cnv 3 400 3 empty \$0-pddp.cnv.inlets inlets 8 12 0 13
-228856 -1 0;
#X obj 154 -50 cnv 17 3 25 empty empty 1 5 9 0 16 -228856 -162280 0
;
#X obj 154 -19 cnv 17 3 25 empty empty 2 5 9 0 16 -228856 -162280 0
;
#X text 177 -21 float;
#X text 174 -84 float;
#X text 174 -51 float;
#X obj 75 49 cnv 3 400 3 empty \$0-pddp.cnv.inlets outlets 8 12 0 13
-228856 -1 0;
#X obj 154 57 cnv 17 3 25 empty empty 0 5 9 0 16 -228856 -162280 0
;
#X text 174 56 signal;
#X text 244 56 Audio output;
#X obj 26 -519 cnv 15 600 50 empty empty modular-mus_fm-synthesis_waveform_generator
20 12 0 18 -183872 -66577 0;
#X text 50 -497 frequency modulation synthesis waveform generator;
#X text 76 -123 mm-fm~;
#X text 153 -123 frequency modulation synthesis;
#X obj 154 11 cnv 17 3 25 empty empty 3 5 9 0 16 -228856 -162280 0
;
#X text 177 9 float;
#X obj 200 -176 dac~;
#X obj 201 -201 *~;
#X msg 358 -418 2.67;
#X obj 233 -231 tgl 25 0 empty empty empty 17 7 0 10 -262144 -1 -1
0 1;
#X obj 201 -314 mm-fm~;
#X text 486 -343 <- larger index = "brighter" sound;
#X msg 455 -338 7;
#X msg 447 -362 2;
#X text 259 -231 <-- toggle sound;
#X text 397 -419 <- non-integer ratios will sound more dissonant;
#X text 381 -394 <- integer ratios will sound more harmonic;
#X msg 347 -395 2;
#X text 244 10 modulation index (0 - 10);
#X text 244 -20 FM frequency ratio (0.1 - 6);
#X text 244 -84 Frequency (Hz) (20 - 10 \, 0 Hz);
#X obj 202 -449 vsl 25 100 50 5000 1 0 empty empty empty 0 -9 0 10
-262144 -1 -1 0 1;
#X floatatom 201 -341 5 0 0 0 - - -;
#X obj 283 -447 vsl 25 100 0 1000 0 0 empty empty empty 0 -9 0 10 -262144
-1 -1 0 1;
#X floatatom 282 -339 5 0 0 0 - - -;
#X floatatom 360 -340 5 0 0 0 - - -;
#X text 244 -51 Glide / portamento time (0 - 1000 ms);
#X connect 18 0 17 0;
#X connect 18 0 17 1;
#X connect 19 0 36 0;
#X connect 20 0 18 1;
#X connect 21 0 18 0;
#X connect 23 0 21 3;
#X connect 24 0 21 3;
#X connect 28 0 36 0;
#X connect 32 0 33 0;
#X connect 33 0 21 0;
#X connect 34 0 35 0;
#X connect 35 0 21 1;
#X connect 36 0 21 2;
