#N canvas 553 179 521 561 12;
#X obj 152 311 osc~;
#X obj 181 420 osc~;
#X obj 186 346 *~;
#X obj 185 392 +~;
#X obj 101 118 cnv 15 248 53 empty empty empty 20 12 0 14 -204786 -66577
0;
#X obj 120 134 knob 32 32 20 10000 1 0 empty empty freq -4 -10 0 12
-262144 -1 -1 1542 1;
#X obj 77 29 loadbang;
#X obj 180 134 knob 32 32 10 500 0 0 empty empty glide -4 -10 0 12
-262144 -1 -1 0 1;
#X obj 152 234 line~;
#X msg 153 208 \$1 \$2;
#X obj 152 182 pack;
#X obj 240 134 knob 32 32 0.1 6 0 0 empty empty ratio -4 -10 0 12 -262144
-1 -1 1261 1;
#X obj 152 281 *~;
#X obj 308 134 knob 32 32 0 10 0 0 empty empty index -4 -10 0 12 -262144
-1 -1 930 1;
#X obj 217 312 *~;
#X obj 181 500 outlet~;
#X obj 115 52 inlet;
#X obj 176 53 inlet;
#X obj 244 52 inlet;
#X obj 313 53 inlet;
#X obj 233 23 loadbang;
#X msg 298 78 3;
#X msg 245 77 2.5;
#X msg 116 75 220;
#X connect 0 0 2 0;
#X connect 1 0 15 0;
#X connect 2 0 3 0;
#X connect 3 0 1 0;
#X connect 5 0 10 0;
#X connect 6 0 23 0;
#X connect 7 0 10 1;
#X connect 8 0 3 1;
#X connect 8 0 12 0;
#X connect 8 0 14 0;
#X connect 9 0 8 0;
#X connect 10 0 9 0;
#X connect 11 0 12 1;
#X connect 12 0 0 0;
#X connect 13 0 14 1;
#X connect 14 0 2 1;
#X connect 16 0 5 0;
#X connect 17 0 7 0;
#X connect 18 0 11 0;
#X connect 19 0 13 0;
#X connect 20 0 22 0;
#X connect 20 0 21 0;
#X connect 21 0 13 0;
#X connect 22 0 11 0;
#X connect 23 0 5 0;
#X coords 0 -1 1 1 250 75 1 100 100;
