#N canvas 696 115 498 557 12;
#X obj 101 120 cnv 15 93 86 empty empty empty 20 12 0 14 -261682 -66577
0;
#X obj 112 537 *~;
#X obj 132 124 vsl 25 80 0 2 0 0 empty empty empty 0 -9 0 10 -228856
-260097 -1 0 1;
#X obj 43 127 inlet~;
#X obj 131 573 *~;
#X obj 163 167 tgl 30 0 empty empty mute 2 34 0 12 -228856 -258113
-1 0 1;
#X obj 209 466 - 1;
#X obj 209 489 * -1;
#X obj 129 605 outlet~;
#X obj 75 49 loadbang;
#X obj 137 12 inlet;
#X obj 228 40 inlet;
#X text 272 39 toggle mute on/off;
#X obj 329 72 loadbang;
#X msg 329 96 0;
#X msg 74 74 1;
#X text 134 -9 level in;
#X obj 127 499 line~;
#X obj 199 548 line~;
#X msg 198 517 \$1 10;
#X msg 126 468 \$1 10;
#X obj 119 272 vsl 15 50 0.001 2 1 0 empty empty empty 0 -9 0 10 -262144
-1 -1 800 1;
#X msg 158 408 0;
#X obj 120 426 mux;
#X obj 148 385 sel 1;
#X obj 136 362 < 0.002;
#X connect 1 0 4 0;
#X connect 2 0 21 0;
#X connect 3 0 1 0;
#X connect 4 0 8 0;
#X connect 5 0 6 0;
#X connect 6 0 7 0;
#X connect 7 0 19 0;
#X connect 9 0 15 0;
#X connect 10 0 2 0;
#X connect 11 0 5 0;
#X connect 13 0 14 0;
#X connect 14 0 5 0;
#X connect 15 0 2 0;
#X connect 17 0 1 1;
#X connect 18 0 4 1;
#X connect 19 0 18 0;
#X connect 20 0 17 0;
#X connect 21 0 23 0;
#X connect 21 0 25 0;
#X connect 22 0 23 1;
#X connect 23 0 20 0;
#X connect 24 0 22 0;
#X connect 25 0 23 2;
#X connect 25 0 24 0;
#X coords 0 -1 1 1 95 109 1 100 100;
