#N canvas 427 203 529 387 12;
#X obj 101 118 cnv 15 248 53 empty empty empty 20 12 0 14 -261682 -66577
0;
#X obj 209 237 snapshot~;
#X obj 165 14 loadbang;
#X obj 208 295 mm-map;
#X obj 314 181 loadbang;
#X floatatom 256 133 5 0 0 2 Min - -;
#X floatatom 309 132 5 0 0 2 Max - -;
#X msg 276 219 -1;
#X msg 305 220 1;
#X obj 209 365 outlet;
#X obj 453 247 ==;
#X obj 420 286 spigot;
#X msg 406 313 0;
#X msg 447 314 1;
#X obj 429 198 loadbang;
#X obj 213 64 inlet;
#X obj 263 70 inlet;
#X obj 310 70 inlet;
#X msg 364 300 0.5;
#X obj 215 184 osc~;
#X obj 181 133 knob 32 32 0.05 20 0 0 empty empty Freq -5 -10 0 12
-262144 -1 -1 0 1;
#X obj 108 121 tgl 25 0 empty empty on 4 30 0 14 -99865 -4034 -1 1
1;
#X obj 148 71 inlet;
#X obj 334 220 f \$2;
#X obj 368 220 f \$3;
#X obj 239 207 f \$1;
#X obj 136 206 metro 20;
#X obj 132 303 mm-map~;
#X obj 131 363 outlet~;
#X obj 46 240 ==;
#X obj 7 264 spigot;
#X obj 7 163 loadbang;
#X msg 4 289 5;
#X obj 5 191 t b b b;
#X msg 66 216 0;
#X obj 29 217 f \$1;
#X connect 1 0 3 0;
#X connect 2 0 21 0;
#X connect 3 0 9 0;
#X connect 4 0 7 0;
#X connect 4 0 8 0;
#X connect 4 0 23 0;
#X connect 4 0 24 0;
#X connect 4 0 25 0;
#X connect 5 0 3 3;
#X connect 5 0 27 3;
#X connect 6 0 3 4;
#X connect 6 0 27 4;
#X connect 7 0 3 1;
#X connect 7 0 27 1;
#X connect 8 0 3 2;
#X connect 8 0 27 2;
#X connect 10 0 11 1;
#X connect 11 0 12 0;
#X connect 11 0 13 0;
#X connect 11 0 18 0;
#X connect 12 0 5 0;
#X connect 13 0 6 0;
#X connect 14 0 11 0;
#X connect 15 0 20 0;
#X connect 16 0 5 0;
#X connect 17 0 6 0;
#X connect 19 0 1 0;
#X connect 19 0 27 0;
#X connect 20 0 19 0;
#X connect 21 0 26 0;
#X connect 22 0 21 0;
#X connect 23 0 3 3;
#X connect 23 0 5 0;
#X connect 23 0 10 0;
#X connect 23 0 27 3;
#X connect 24 0 3 4;
#X connect 24 0 6 0;
#X connect 24 0 10 1;
#X connect 24 0 27 4;
#X connect 26 0 1 0;
#X connect 27 0 28 0;
#X connect 29 0 30 1;
#X connect 30 0 32 0;
#X connect 31 0 33 0;
#X connect 32 0 20 0;
#X connect 33 0 30 0;
#X connect 33 1 35 0;
#X connect 33 2 34 0;
#X connect 34 0 29 1;
#X connect 35 0 29 0;
#X connect 35 0 20 0;
#X coords 0 -1 1 1 250 75 1 100 100;
