#N canvas 0 22 683 533 12;
#X obj 158 54 counter 15;
#X obj 241 60 sel 1;
#X obj 143 18 metro 1;
#X obj 141 -3 bng 15 250 50 0 empty empty empty 17 7 0 10 -262144 -1
-1;
#X obj 114 55 != 15;
#X obj 192 82 == 15;
#X obj 168 124 sel 0 1 2 3 4 5 6 7 8 9 10 11 12 13 14 15;
#X obj 168 171 t b;
#X obj 183 214 t b;
#X obj 202 170 t b;
#X obj 217 214 t b;
#X obj 183 238 f \$2;
#X obj 202 192 f \$3;
#X obj 217 234 f \$4;
#X obj 252 331 outlet;
#X obj 236 170 t b;
#X obj 251 214 t b;
#X obj 277 169 t b;
#X obj 292 213 t b;
#X obj 236 192 f \$5;
#X obj 251 236 f \$6;
#X obj 277 191 f \$7;
#X obj 292 233 f \$8;
#X obj 317 169 t b;
#X obj 332 214 t b;
#X obj 357 169 t b;
#X obj 373 213 t b;
#X obj 401 169 t b;
#X obj 413 213 t b;
#X obj 448 168 t b;
#X obj 463 210 t b;
#X obj 79 155 outlet;
#X obj 141 -28 inlet;
#X obj 168 193 f \$1;
#X obj 317 192 f \$9;
#X obj 332 236 f \$10;
#X obj 357 191 f \$11;
#X obj 373 235 f \$12;
#X obj 402 192 f \$13;
#X obj 413 236 f \$14;
#X obj 448 190 f \$15;
#X obj 463 232 f \$16;
#X obj 135 92 t f f;
#X connect 0 0 4 0;
#X connect 0 0 5 0;
#X connect 0 0 42 0;
#X connect 1 0 0 2;
#X connect 2 0 0 0;
#X connect 3 0 2 0;
#X connect 4 0 2 0;
#X connect 5 0 1 0;
#X connect 6 0 7 0;
#X connect 6 1 8 0;
#X connect 6 2 9 0;
#X connect 6 3 10 0;
#X connect 6 4 15 0;
#X connect 6 5 16 0;
#X connect 6 6 17 0;
#X connect 6 7 18 0;
#X connect 6 8 23 0;
#X connect 6 9 24 0;
#X connect 6 10 25 0;
#X connect 6 11 26 0;
#X connect 6 12 27 0;
#X connect 6 13 28 0;
#X connect 6 14 29 0;
#X connect 6 15 30 0;
#X connect 7 0 33 0;
#X connect 8 0 11 0;
#X connect 9 0 12 0;
#X connect 10 0 13 0;
#X connect 11 0 14 0;
#X connect 12 0 14 0;
#X connect 13 0 14 0;
#X connect 15 0 19 0;
#X connect 16 0 20 0;
#X connect 17 0 21 0;
#X connect 18 0 22 0;
#X connect 19 0 14 0;
#X connect 20 0 14 0;
#X connect 21 0 14 0;
#X connect 22 0 14 0;
#X connect 23 0 34 0;
#X connect 24 0 35 0;
#X connect 25 0 36 0;
#X connect 26 0 37 0;
#X connect 27 0 38 0;
#X connect 28 0 39 0;
#X connect 29 0 40 0;
#X connect 30 0 41 0;
#X connect 32 0 3 0;
#X connect 33 0 14 0;
#X connect 34 0 14 0;
#X connect 35 0 14 0;
#X connect 36 0 14 0;
#X connect 37 0 14 0;
#X connect 38 0 14 0;
#X connect 39 0 14 0;
#X connect 40 0 14 0;
#X connect 41 0 14 0;
#X connect 42 0 6 0;
#X connect 42 1 31 0;
