#N canvas 518 81 762 617 10;
#X obj 366 236 -;
#X obj 192 387 * 1;
#X obj 192 450 + 0;
#X obj 131 126 inlet;
#X obj 240 234 -;
#X floatatom 268 186 5 0 0 0 - - -;
#X obj 302 315 /;
#X obj 325 201 t b;
#X obj 226 209 t b;
#X obj 278 260 t b;
#X obj 295 349 t b;
#X obj 215 125 inlet;
#X obj 267 148 inlet;
#X obj 347 139 inlet;
#X obj 422 166 inlet;
#X text 265 128 max input;
#X text 421 145 max output;
#X text 344 117 min output;
#X text 133 105 input;
#X obj 192 496 outlet;
#X floatatom 184 172 5 0 0 0 - - -;
#X obj 155 286 - 0;
#X text 344 328 scale output based on ratio between input and output
ranges;
#X text 62 304 offset input based on min input val;
#X text 444 205 calculate input and output ranges;
#X obj 268 32 loadbang;
#X obj 184 62 f \$1;
#X obj 268 61 f \$2;
#X obj 342 59 f \$3;
#X obj 404 60 f \$4;
#X floatatom 404 194 5 0 0 0 - - -;
#X floatatom 342 168 5 0 0 0 - - -;
#X text 215 101 min input;
#X text 444 62 creation arguments: mm-map min_in max_in min_out max_out
;
#X connect 0 0 6 0;
#X connect 1 0 2 0;
#X connect 2 0 19 0;
#X connect 3 0 21 0;
#X connect 4 0 6 1;
#X connect 4 0 9 0;
#X connect 5 0 4 0;
#X connect 6 0 1 1;
#X connect 6 0 10 0;
#X connect 7 0 0 0;
#X connect 7 0 2 0;
#X connect 8 0 4 0;
#X connect 9 0 6 0;
#X connect 10 0 1 0;
#X connect 11 0 8 0;
#X connect 11 0 4 1;
#X connect 11 0 20 0;
#X connect 12 0 5 0;
#X connect 13 0 31 0;
#X connect 14 0 30 0;
#X connect 20 0 21 1;
#X connect 21 0 1 0;
#X connect 25 0 26 0;
#X connect 25 0 27 0;
#X connect 25 0 28 0;
#X connect 25 0 29 0;
#X connect 26 0 20 0;
#X connect 27 0 5 0;
#X connect 28 0 31 0;
#X connect 29 0 30 0;
#X connect 30 0 0 0;
#X connect 31 0 0 1;
#X connect 31 0 7 0;
#X connect 31 0 2 1;
