#N canvas 516 111 609 423 10;
#X obj 131 75 inlet;
#X obj 198 65 inlet;
#X obj 193 282 outlet;
#X obj 254 93 loadbang;
#X obj 215 199 f;
#X obj 193 252 min;
#X msg 225 119 1;
#X text 197 48 bang to reset;
#X text 333 88 outputs the smallest value seen at the left inlet bang
the right inlet to reset;
#X obj 185 152 t f b;
#X connect 0 0 9 0;
#X connect 1 0 6 0;
#X connect 3 0 6 0;
#X connect 4 0 5 1;
#X connect 5 0 2 0;
#X connect 5 0 4 1;
#X connect 6 0 4 0;
#X connect 6 0 9 0;
#X connect 9 0 5 0;
#X connect 9 1 4 0;
