#N canvas 576 277 582 435 12;
#X floatatom -78 77 5 0 0 0 - - -;
#X msg -78 55 1;
#X obj -78 32 loadbang;
#X obj -78 104 -;
#X obj -114 225 *~;
#X obj -79 225 *~;
#X obj -96 257 +~;
#X obj -197 -10 inlet~;
#X obj -131 -10 inlet~;
#X obj -94 358 outlet~;
#X obj 6 -28 inlet;
#X obj -94 322 *~;
#X obj -119 296 z~ 64;
#X obj -79 295 limiter~ 10;
#X obj -41 75 t b f;
#X obj 5 17 hsl 100 20 0 1 0 0 empty empty empty -2 -8 0 10 -249661
-260097 -1 4100 1;
#X msg 65 -22 0.5;
#X obj 65 -49 loadbang;
#X obj -9 126 line~;
#X msg -9 103 \$1 10;
#X obj -78 159 line~;
#X msg -78 136 \$1 10;
#X connect 0 0 3 0;
#X connect 1 0 0 0;
#X connect 2 0 1 0;
#X connect 3 0 21 0;
#X connect 4 0 6 0;
#X connect 5 0 6 0;
#X connect 6 0 12 0;
#X connect 6 0 13 0;
#X connect 7 0 4 0;
#X connect 8 0 5 0;
#X connect 10 0 15 0;
#X connect 11 0 9 0;
#X connect 12 0 11 0;
#X connect 13 0 11 1;
#X connect 14 0 3 0;
#X connect 14 1 3 1;
#X connect 14 1 19 0;
#X connect 15 0 14 0;
#X connect 16 0 15 0;
#X connect 17 0 16 0;
#X connect 18 0 5 1;
#X connect 19 0 18 0;
#X connect 20 0 4 1;
#X connect 21 0 20 0;
#X coords 0 -1 1 1 110 40 1 0 0;
