#N canvas 606 112 444 628 12;
#X obj 101 119 cnv 15 248 53 empty empty empty 20 12 0 14 -248960 -66577
0;
#X obj 61 244 *~;
#X obj 196 212 line~;
#X msg 198 186 \$1 20;
#X obj 29 153 inlet~;
#X obj 30 612 outlet~;
#X obj 247 136 knob 32 32 1 100 0 0 empty empty overdrive -2 -10 0
12 -262144 -1 -1 31 1;
#X msg 115 287 1;
#X obj 114 260 loadbang;
#X obj 110 369 *~;
#X obj 114 338 /~;
#X obj 115 311 sig~;
#X obj 254 47 loadbang;
#X msg 255 76 2;
#X obj 137 64 inlet;
#X obj 252 15 inlet;
#X obj 304 18 inlet;
#X obj 152 121 tgl 25 0 empty empty on 4 30 0 14 -99865 -4034 -1 1
1;
#X obj 194 136 knob 32 32 0 1 0 0 empty empty dry/wet -4 -10 0 12 -262144
-1 -1 1550 1;
#X obj 194 17 inlet;
#X obj 106 402 mm-mix2~;
#X msg 200 73 0.5;
#N canvas 732 170 481 477 od 0;
#X obj 176 198 *~;
#X obj 197 227 *~;
#X obj 156 249 -~;
#X obj 181 137 clip~ -0.57735 0.57735;
#X obj 173 68 inlet~;
#X obj 149 285 outlet~;
#X text 154 360 thanks Miller!;
#X connect 0 0 1 0;
#X connect 1 0 2 1;
#X connect 2 0 5 0;
#X connect 3 0 0 0;
#X connect 3 0 0 1;
#X connect 3 0 1 1;
#X connect 3 0 2 0;
#X connect 4 0 3 0;
#X restore 62 295 pd od;
#X obj 316 134 knob 32 32 0 10 0 0 empty empty gain -2 -10 0 12 -262144
-1 -1 310 1;
#X obj 29 571 mm-bypass~;
#X msg 349 76 1;
#X obj 68 526 *~;
#X obj 133 506 line~;
#X msg 132 475 \$1 10;
#X connect 1 0 22 0;
#X connect 2 0 1 1;
#X connect 2 0 10 1;
#X connect 3 0 2 0;
#X connect 4 0 1 0;
#X connect 4 0 20 0;
#X connect 4 0 24 0;
#X connect 6 0 3 0;
#X connect 7 0 11 0;
#X connect 8 0 7 0;
#X connect 9 0 20 1;
#X connect 10 0 9 1;
#X connect 11 0 10 0;
#X connect 12 0 13 0;
#X connect 12 0 17 0;
#X connect 12 0 21 0;
#X connect 12 0 25 0;
#X connect 13 0 6 0;
#X connect 14 0 17 0;
#X connect 15 0 6 0;
#X connect 16 0 23 0;
#X connect 17 0 24 2;
#X connect 18 0 20 2;
#X connect 19 0 18 0;
#X connect 20 0 26 0;
#X connect 21 0 18 0;
#X connect 22 0 9 0;
#X connect 23 0 28 0;
#X connect 24 0 5 0;
#X connect 25 0 23 0;
#X connect 26 0 24 1;
#X connect 27 0 26 1;
#X connect 28 0 27 0;
#X coords 0 -1 1 1 250 75 1 100 100;
