#N canvas 558 223 450 395 12;
#X obj 101 120 cnv 15 248 53 empty empty empty 20 12 0 14 -204786 -66577
0;
#X obj 110 136 knob 32 32 20 10000 1 0 empty empty freq -4 -10 0 12
-262144 -1 -1 1542 1;
#X obj 115 55 loadbang;
#X msg 115 77 440;
#X obj 170 136 knob 32 32 10 2000 1 0 empty empty glide -4 -10 0 12
-262144 -1 -1 0 1;
#X obj 142 242 line~;
#X msg 143 216 \$1 \$2;
#X obj 142 190 pack;
#X obj 245 135 hsl 100 25 0.01 0.99 0 0 empty empty pulse_shape -2
-8 0 12 -262144 -1 -1 2424 1;
#X obj 101 20 inlet;
#X obj 192 337 outlet~;
#X obj 225 46 inlet;
#X obj 290 49 loadbang;
#X obj 192 306 pwm~ \$1;
#X obj 142 267 snapshot~;
#X obj 72 240 metro 20;
#X obj 72 197 loadbang;
#X obj 72 222 tgl 15 0 empty empty empty 17 7 0 10 -262144 -1 -1 1
1;
#X obj 170 23 inlet;
#X msg 288 70 0.25;
#X connect 1 0 7 0;
#X connect 2 0 3 0;
#X connect 3 0 1 0;
#X connect 4 0 7 1;
#X connect 5 0 14 0;
#X connect 6 0 5 0;
#X connect 7 0 6 0;
#X connect 8 0 13 0;
#X connect 9 0 1 0;
#X connect 11 0 8 0;
#X connect 12 0 19 0;
#X connect 13 0 10 0;
#X connect 14 0 13 1;
#X connect 15 0 14 0;
#X connect 16 0 17 0;
#X connect 17 0 15 0;
#X connect 18 0 4 0;
#X connect 19 0 8 0;
#X coords 0 -1 1 1 250 75 1 100 100;
