#N canvas 173 22 558 622 12;
#X obj 101 119 cnv 15 248 53 empty empty empty 20 12 0 14 -204786 -66577
0;
#X obj 170 135 knob 32 32 20 10000 1 0 empty empty freq -4 -10 0 12
-262144 -1 -1 915 1;
#N canvas 79 157 686 390 karplus-strong 0;
#X obj 245 291 line~;
#X obj 194 371 *~;
#X msg 243 262 \$1 200;
#X obj 84 44 inlet~;
#X obj 124 521 outlet~;
#X obj 150 239 line~;
#X obj 157 42 inlet;
#X obj 336 36 inlet;
#X obj 171 398 delwrite~ \$0-delLine 2000;
#X obj 122 291 vd~ \$0-delLine;
#X msg 150 219 \$1 20;
#X obj 193 341 lop~ 2000;
#X obj 152 162 * 1000;
#N canvas 178 199 796 501 calcT60Feedback 0;
#X obj 245 292 pow;
#X obj 248 167 *;
#X msg 215 263 0.001;
#X obj 182 109 inlet;
#X obj 265 101 inlet;
#X obj 245 327 outlet;
#X text 367 262 https://ccrma.stanford.edu/realsimple/faust_strings/faust_strings.pdf
;
#X text 181 88 freq;
#X obj 247 191 inv;
#X obj 258 135 t b f;
#X obj 228 241 t b f;
#X text 273 80 decay time;
#X connect 0 0 5 0;
#X connect 1 0 8 0;
#X connect 2 0 0 0;
#X connect 3 0 1 0;
#X connect 4 0 9 0;
#X connect 8 0 10 0;
#X connect 9 0 1 0;
#X connect 9 1 1 1;
#X connect 10 0 2 0;
#X connect 10 1 0 1;
#X restore 228 119 pd calcT60Feedback;
#X text 197 43 frequency;
#X text 376 37 decay time;
#X obj 487 60 inlet;
#X text 533 54 filter freq;
#X obj 163 106 inv;
#X obj 337 72 * 2;
#X floatatom 277 212 5 0 0 0 - - -;
#X connect 0 0 1 1;
#X connect 1 0 8 0;
#X connect 2 0 0 0;
#X connect 3 0 8 0;
#X connect 5 0 9 0;
#X connect 6 0 13 0;
#X connect 6 0 18 0;
#X connect 7 0 19 0;
#X connect 9 0 4 0;
#X connect 9 0 11 0;
#X connect 10 0 5 0;
#X connect 11 0 1 0;
#X connect 12 0 10 0;
#X connect 13 0 2 0;
#X connect 13 0 20 0;
#X connect 16 0 11 1;
#X connect 18 0 12 0;
#X connect 19 0 13 1;
#X restore 166 404 pd karplus-strong;
#X obj 101 328 line~;
#X obj 104 137 bng 25 250 50 0 empty empty pluck 0 -12 0 12 -262130
-1 -1;
#X obj 91 362 *~;
#X obj -18 126 pink~;
#X msg 114 296 0 10;
#X msg 90 263 1;
#X obj -17 268 lop~ 5000;
#X obj 20 202 random 1000;
#X obj 120 266 pipe 5;
#X obj 243 135 knob 32 32 0.1 30 0 0 empty empty decay -4 -10 0 12
-262144 -1 -1 1026 1;
#X obj 310 135 knob 32 32 400 5000 0 0 empty empty bright -6 -10 0
12 -262144 -1 -1 1078 1;
#X obj 22 228 + 2000;
#X obj 317 271 + 1;
#X obj 233 324 *;
#X obj 240 292 t b f;
#X obj 317 228 -;
#X msg 304 206 5000;
#X obj 308 181 t b f;
#X obj 166 499 outlet~;
#X obj 100 25 inlet;
#X obj 151 25 inlet;
#X obj 224 28 inlet;
#X obj 302 32 inlet;
#X msg 260 72 10;
#X msg 332 74 2000;
#X obj 378 50 loadbang;
#X msg 169 77 200;
#X obj 149 207 * 10;
#X obj 317 250 / 5000;
#X connect 1 0 2 1;
#X connect 1 0 30 0;
#X connect 2 0 21 0;
#X connect 3 0 5 1;
#X connect 4 0 8 0;
#X connect 4 0 10 0;
#X connect 4 0 11 0;
#X connect 5 0 2 0;
#X connect 6 0 9 0;
#X connect 7 0 3 0;
#X connect 8 0 3 0;
#X connect 9 0 5 0;
#X connect 10 0 14 0;
#X connect 11 0 7 0;
#X connect 12 0 16 0;
#X connect 13 0 20 0;
#X connect 13 0 2 3;
#X connect 14 0 9 1;
#X connect 15 0 17 0;
#X connect 16 0 2 2;
#X connect 17 0 16 0;
#X connect 17 1 16 1;
#X connect 18 0 31 0;
#X connect 19 0 18 0;
#X connect 20 0 19 0;
#X connect 20 1 18 1;
#X connect 22 0 4 0;
#X connect 23 0 1 0;
#X connect 24 0 12 0;
#X connect 25 0 13 0;
#X connect 26 0 12 0;
#X connect 27 0 13 0;
#X connect 28 0 27 0;
#X connect 28 0 26 0;
#X connect 28 0 29 0;
#X connect 29 0 1 0;
#X connect 30 0 14 1;
#X connect 31 0 15 0;
#X coords 0 -1 1 1 250 75 1 100 100;
