#N canvas 496 114 704 596 12;
#X obj 301 19 cnv 15 248 53 empty empty empty 20 12 0 14 -257141 -66577
0;
#X obj 151 163 freeverb~;
#X obj 264 204 lop~ 1000;
#X obj 160 200 lop~ 1000;
#X msg 380 110 roomsize \$1;
#X obj 87 76 inlet~;
#X obj 91 477 outlet~;
#X obj 176 479 outlet~;
#X obj 463 133 line;
#X msg 464 106 \$1 20;
#X msg 151 115 wet 1;
#X obj 153 88 loadbang;
#X obj 393 34 knob 32 32 0 1 0 0 empty empty dry/wet -4 -10 0 12 -262144
-1 -1 0 1;
#X obj 379 -33 inlet mix;
#X obj 446 33 knob 32 32 0 1 0 0 empty empty room 0 -10 0 12 -262144
-1 -1 0 1;
#X obj 498 34 knob 32 32 300 15000 1 0 empty empty brightness -17 -10
0 12 -262144 -1 -1 0 1;
#X obj 451 -32 inlet size;
#X obj 545 -44 inlet brightness;
#X obj 159 225 lop~ 1000;
#X obj 264 228 lop~ 1000;
#X obj 372 -97 loadbang;
#X msg 457 -69 1000;
#X msg 404 -68 0.7;
#X msg 351 -68 0.25;
#X obj 116 262 mm-mix2~;
#X obj 256 262 mm-mix2~;
#X obj 91 438 mm-bypass~;
#X obj 176 437 mm-bypass~;
#X obj 227 -4 loadbang;
#X obj 349 22 tgl 25 0 empty empty on 4 30 0 14 -99865 -4034 -1 1 1
;
#X obj 251 -74 inlet toggle;
#X connect 1 0 3 0;
#X connect 1 1 2 0;
#X connect 2 0 19 0;
#X connect 3 0 18 0;
#X connect 4 0 1 0;
#X connect 5 0 1 0;
#X connect 5 0 24 0;
#X connect 5 0 25 0;
#X connect 5 0 26 0;
#X connect 5 0 27 0;
#X connect 8 0 3 1;
#X connect 8 0 2 1;
#X connect 8 0 19 1;
#X connect 8 0 18 1;
#X connect 9 0 8 0;
#X connect 10 0 1 0;
#X connect 11 0 10 0;
#X connect 12 0 24 2;
#X connect 12 0 25 2;
#X connect 13 0 12 0;
#X connect 14 0 4 0;
#X connect 15 0 9 0;
#X connect 16 0 14 0;
#X connect 17 0 15 0;
#X connect 18 0 24 1;
#X connect 19 0 25 1;
#X connect 20 0 23 0;
#X connect 20 0 22 0;
#X connect 20 0 21 0;
#X connect 21 0 15 0;
#X connect 22 0 14 0;
#X connect 23 0 12 0;
#X connect 24 0 26 1;
#X connect 25 0 27 1;
#X connect 26 0 6 0;
#X connect 27 0 7 0;
#X connect 28 0 29 0;
#X connect 29 0 27 2;
#X connect 29 0 26 2;
#X connect 30 0 29 0;
#X coords 0 -1 1 1 250 75 1 300 0;
