#N canvas 51 45 1229 634 10;
#X obj 101 114 cnv 15 523 152 empty empty empty 20 12 0 14 -261682
-66577 0;
#X floatatom 177 114 5 0 15 1 step - -;
#X obj 103 395 outlet;
#X floatatom 177 250 4 0 0 0 - - -;
#X floatatom 205 250 4 0 0 0 - - -;
#X floatatom 233 251 4 0 0 0 - - -;
#X floatatom 261 251 4 0 0 0 - - -;
#X floatatom 289 251 4 0 0 0 - - -;
#X floatatom 317 251 4 0 0 0 - - -;
#X floatatom 345 251 4 0 0 0 - - -;
#X floatatom 373 251 4 0 0 0 - - -;
#X floatatom 401 251 4 0 0 0 - - -;
#X floatatom 429 251 4 0 0 0 - - -;
#X floatatom 457 251 4 0 0 0 - - -;
#X floatatom 485 251 4 0 0 0 - - -;
#X floatatom 513 251 4 0 0 0 - - -;
#X floatatom 541 251 4 0 0 0 - - -;
#X floatatom 569 251 4 0 0 0 - - -;
#X floatatom 597 251 4 0 0 0 - - -;
#X floatatom 103 251 4 0 0 1 output - -;
#X obj 191 46 inlet;
#X floatatom 102 213 5 0 0 1 top - -;
#X floatatom 102 233 5 0 0 1 bottom - -;
#X obj 177 166 vsl 27 80 0 1 0 0 empty empty empty 0 -9 0 10 -262144
-1 -1 0 1;
#X obj 205 166 vsl 27 80 0 1 0 0 empty empty empty 0 -9 0 10 -262144
-1 -1 0 1;
#X obj 233 166 vsl 27 80 0 1 0 0 empty empty empty 0 -9 0 10 -262144
-1 -1 0 1;
#X obj 261 166 vsl 27 80 0 1 0 0 empty empty empty 0 -9 0 10 -262144
-1 -1 0 1;
#X obj 289 166 vsl 27 80 0 1 0 0 empty empty empty 0 -9 0 10 -262144
-1 -1 0 1;
#X obj 317 166 vsl 27 80 0 1 0 0 empty empty empty 0 -9 0 10 -262144
-1 -1 0 1;
#X obj 345 166 vsl 27 80 0 1 0 0 empty empty empty 0 -9 0 10 -262144
-1 -1 0 1;
#X obj 373 166 vsl 27 80 0 1 0 0 empty empty empty 0 -9 0 10 -262144
-1 -1 0 1;
#X obj 401 166 vsl 27 80 0 1 0 0 empty empty empty 0 -9 0 10 -262144
-1 -1 0 1;
#X obj 429 166 vsl 27 80 0 1 0 0 empty empty empty 0 -9 0 10 -262144
-1 -1 0 1;
#X obj 457 166 vsl 27 80 0 1 0 0 empty empty empty 0 -9 0 10 -262144
-1 -1 0 1;
#X obj 485 166 vsl 27 80 0 1 0 0 empty empty empty 0 -9 0 10 -262144
-1 -1 0 1;
#X obj 513 166 vsl 27 80 0 1 0 0 empty empty empty 0 -9 0 10 -262144
-1 -1 0 1;
#X obj 541 166 vsl 27 80 0 1 0 0 empty empty empty 0 -9 0 10 -262144
-1 -1 0 1;
#X obj 569 166 vsl 27 80 0 1 0 0 empty empty empty 0 -9 0 10 -262144
-1 -1 0 1;
#X obj 597 166 vsl 27 80 0 1 0 0 empty empty empty 0 -9 0 10 -262144
-1 -1 0 1;
#X obj 217 143 sel 0 1 2 3 4 5 6 7 8 9 10 11 12 13 14 15;
#X obj 176 134 hradio 28 1 0 16 empty empty empty 0 -8 0 10 -228460
-83269 -1 0;
#X obj -40 235 loadbang;
#X msg 5 149 range \$1 \$2;
#X obj 5 127 list \$1 \$2;
#X obj 22 214 t b;
#X obj 30 282 f \$1;
#X obj 48 304 f \$2;
#X text 194 30 step;
#X obj 191 68 mod 16;
#X obj 259 290 multiplex 0 1 2 3 4 5 6 7 8 9 10 11 12 13 14 15;
#X obj 121 71 counter 15;
#X obj 103 150 tgl 25 0 empty empty run 0 -10 0 12 -262144 -1 -1 0
1;
#X obj 112 48 metro 100;
#X obj 30 365 ==;
#X obj -3 390 spigot;
#X msg -3 414 0;
#X msg 27 414 1;
#X obj 268 83 t f f;
#X floatatom 133 188 5 20 1000 0 - - -;
#X obj -101 89 / 60;
#X obj -89 155 /;
#X msg -101 131 250;
#X obj -101 110 t b f;
#X obj 133 151 knob 32 32 20 400 0 0 empty empty bpm 4 -10 0 12 -262144
-1 -1 816 1;
#X obj 15 58 loadbang;
#X msg 15 79 120;
#X msg 269 41 15;
#X obj 165 -2 t f f;
#X obj 269 18 sel 1;
#X obj 4 3 inlet;
#X obj 56 2 inlet;
#X obj 715 80 inlet;
#X obj 676 142 gate 16;
#X obj 676 117 + 1;
#X obj -15 261 t b b;
#X connect 1 0 57 0;
#X connect 1 0 73 0;
#X connect 3 0 49 0;
#X connect 4 0 49 1;
#X connect 5 0 49 2;
#X connect 6 0 49 3;
#X connect 7 0 49 4;
#X connect 8 0 49 5;
#X connect 9 0 49 6;
#X connect 10 0 49 7;
#X connect 11 0 49 8;
#X connect 12 0 49 9;
#X connect 13 0 49 10;
#X connect 14 0 49 11;
#X connect 15 0 49 12;
#X connect 16 0 49 13;
#X connect 17 0 49 14;
#X connect 18 0 49 15;
#X connect 19 0 2 0;
#X connect 20 0 48 0;
#X connect 21 0 43 1;
#X connect 21 0 44 0;
#X connect 22 0 43 0;
#X connect 23 0 3 0;
#X connect 24 0 4 0;
#X connect 25 0 5 0;
#X connect 26 0 6 0;
#X connect 27 0 7 0;
#X connect 28 0 8 0;
#X connect 29 0 9 0;
#X connect 30 0 10 0;
#X connect 31 0 11 0;
#X connect 32 0 12 0;
#X connect 33 0 13 0;
#X connect 34 0 14 0;
#X connect 35 0 15 0;
#X connect 36 0 16 0;
#X connect 37 0 17 0;
#X connect 38 0 18 0;
#X connect 39 0 23 0;
#X connect 39 1 24 0;
#X connect 39 2 25 0;
#X connect 39 3 26 0;
#X connect 39 4 27 0;
#X connect 39 5 28 0;
#X connect 39 6 29 0;
#X connect 39 7 30 0;
#X connect 39 8 31 0;
#X connect 39 9 32 0;
#X connect 39 10 33 0;
#X connect 39 11 34 0;
#X connect 39 12 35 0;
#X connect 39 13 36 0;
#X connect 39 14 37 0;
#X connect 39 15 38 0;
#X connect 40 0 39 0;
#X connect 41 0 54 0;
#X connect 41 0 74 0;
#X connect 42 0 23 0;
#X connect 42 0 24 0;
#X connect 42 0 25 0;
#X connect 42 0 26 0;
#X connect 42 0 27 0;
#X connect 42 0 28 0;
#X connect 42 0 29 0;
#X connect 42 0 30 0;
#X connect 42 0 31 0;
#X connect 42 0 32 0;
#X connect 42 0 33 0;
#X connect 42 0 34 0;
#X connect 42 0 35 0;
#X connect 42 0 36 0;
#X connect 42 0 37 0;
#X connect 42 0 38 0;
#X connect 43 0 42 0;
#X connect 44 0 22 0;
#X connect 45 0 22 0;
#X connect 45 0 53 0;
#X connect 46 0 21 0;
#X connect 46 0 53 1;
#X connect 48 0 1 0;
#X connect 49 0 19 0;
#X connect 50 0 1 0;
#X connect 51 0 67 0;
#X connect 52 0 50 0;
#X connect 53 0 54 1;
#X connect 54 0 56 0;
#X connect 54 0 55 0;
#X connect 55 0 22 0;
#X connect 56 0 21 0;
#X connect 57 0 40 0;
#X connect 57 1 49 16;
#X connect 58 0 59 0;
#X connect 59 0 62 0;
#X connect 60 0 52 1;
#X connect 61 0 60 0;
#X connect 62 0 61 0;
#X connect 62 1 60 1;
#X connect 63 0 58 0;
#X connect 64 0 65 0;
#X connect 65 0 63 0;
#X connect 66 0 50 3;
#X connect 67 0 52 0;
#X connect 67 1 68 0;
#X connect 68 0 66 0;
#X connect 69 0 51 0;
#X connect 70 0 63 0;
#X connect 71 0 72 1;
#X connect 72 0 23 0;
#X connect 72 1 24 0;
#X connect 72 2 25 0;
#X connect 72 3 26 0;
#X connect 72 4 27 0;
#X connect 72 5 28 0;
#X connect 72 6 29 0;
#X connect 72 7 30 0;
#X connect 72 8 31 0;
#X connect 72 9 32 0;
#X connect 72 10 33 0;
#X connect 72 11 34 0;
#X connect 72 12 35 0;
#X connect 72 13 36 0;
#X connect 72 14 37 0;
#X connect 72 15 38 0;
#X connect 73 0 72 0;
#X connect 74 0 45 0;
#X connect 74 1 46 0;
#X coords 0 -1 1 1 525 170 1 100 100;
