#N canvas 226 22 845 740 12;
#X obj 37 14 cnv 15 600 50 empty empty modular-mus_step_sequencer 20
12 0 18 -183872 -66577 0;
#X text 61 36 a modular hardware interfaces and audio manipulation
toolkit;
#X obj 48 141 mm-seq;
#X obj 394 75 loadbang;
#X obj 46 461 *~;
#X obj 36 519 dac~;
#X obj 394 103 mm-load-seq 1 0 0 0.5 1 0.3 0 0 0 0.7 1 0 0 0 1 0;
#X obj 466 77 bng 15 250 50 0 empty empty empty 17 7 0 10 -262144 -1
-1;
#N canvas 48 22 1232 756 another_sequencer_example 0;
#X obj 122 337 mtof;
#X obj 97 735 dac~;
#X obj 104 704 *~;
#X obj -129 416 mm-adsr~;
#X msg -95 379 0;
#X msg -129 353 1;
#X obj -129 327 bng 15 250 50 0 empty empty empty 17 7 0 10 -262144
-1 -1;
#X obj -95 345 pipe 20;
#X obj 122 587 mm-gain~;
#X obj 115 39 tgl 25 0 empty empty empty 17 7 0 10 -262144 -1 -1 0
1;
#X floatatom 162 46 5 0 0 0 - - -;
#X obj 122 368 osc~;
#X obj 162 70 s tempo;
#X obj 294 113 r tempo;
#X obj 122 114 r run;
#X obj 115 70 s run;
#X obj 410 368 r tempo;
#X obj 238 369 r run;
#X obj 238 401 mm-seq;
#X obj 122 142 mm-seq 40 70;
#X obj 467 111 mm-load-seq 48 46 48 51 51 51 53 53 53 54 55 46 46 60
60 63;
#X obj 467 83 loadbang;
#X obj 583 332 loadbang;
#X obj 583 360 mm-load-seq 0.5 .5. 1 0.5 1 0.7 0.3 0.3 0.9 0.5 0.5
0.3 0.4 1 0.5 0.7;
#X obj 160 6 knob 32 32 20 400 0 0 empty empty empty 0 -8 0 8 -262144
-1 -1 0 1;
#X connect 0 0 11 0;
#X connect 2 0 1 0;
#X connect 2 0 1 1;
#X connect 3 0 2 0;
#X connect 4 0 3 0;
#X connect 5 0 3 0;
#X connect 6 0 5 0;
#X connect 6 0 7 0;
#X connect 7 0 4 0;
#X connect 8 0 2 1;
#X connect 9 0 15 0;
#X connect 10 0 12 0;
#X connect 11 0 8 0;
#X connect 13 0 19 1;
#X connect 14 0 19 0;
#X connect 16 0 18 1;
#X connect 17 0 18 0;
#X connect 18 0 8 1;
#X connect 19 0 0 0;
#X connect 19 0 6 0;
#X connect 20 0 19 2;
#X connect 20 1 19 3;
#X connect 21 0 20 0;
#X connect 22 0 23 0;
#X connect 23 0 18 2;
#X connect 23 1 18 3;
#X connect 24 0 10 0;
#X restore 82 679 pd another_sequencer_example;
#X obj 83 375 pipe 10;
#X msg 48 347 \$1 10;
#X msg 83 403 0 10;
#X obj 71 430 line~;
#N canvas 92 414 450 300 soundSource 0;
#X obj -276 -750 pink~;
#X obj -286 -626 mm-filter~;
#X obj -232 -518 outlet~;
#X obj -138 -723 mm-lfo 0.125 500 5000;
#X connect 0 0 1 0;
#X connect 1 0 2 0;
#X connect 3 0 1 3;
#X restore -74 292 pd soundSource;
#X text 99 343 <- go to value from sequencer in 10 ms;
#X text 143 373 <- wait 10 ms;
#X text 124 401 <- go to 0 in another 10 ms;
#X connect 2 0 10 0;
#X connect 2 0 9 0;
#X connect 3 0 6 0;
#X connect 4 0 5 0;
#X connect 4 0 5 1;
#X connect 6 0 2 2;
#X connect 6 1 2 3;
#X connect 7 0 6 0;
#X connect 9 0 11 0;
#X connect 10 0 12 0;
#X connect 11 0 12 0;
#X connect 12 0 4 1;
#X connect 13 0 4 0;
