#N canvas 51 45 1229 634 10;
#X obj 101 114 cnv 15 523 187 empty empty empty 20 12 0 14 -261682
-66577 0;
#X floatatom 177 114 5 0 15 1 step - -;
#X obj 103 395 outlet;
#X floatatom 103 251 4 0 0 1 output - -;
#X obj 191 46 inlet;
#X floatatom 102 213 5 0 0 1 top - -;
#X floatatom 102 233 5 0 0 1 bottom - -;
#X obj 177 166 vsl 27 80 60 80 0 0 empty empty empty 0 -9 0 10 -262144
-1 -1 6700 1;
#X obj 205 166 vsl 27 80 60 80 0 0 empty empty empty 0 -9 0 10 -262144
-1 -1 3600 1;
#X obj 233 166 vsl 27 80 60 80 0 0 empty empty empty 0 -9 0 10 -262144
-1 -1 2600 1;
#X obj 261 166 vsl 27 80 60 80 0 0 empty empty empty 0 -9 0 10 -262144
-1 -1 0 1;
#X obj 289 166 vsl 27 80 60 80 0 0 empty empty empty 0 -9 0 10 -262144
-1 -1 0 1;
#X obj 317 166 vsl 27 80 60 80 0 0 empty empty empty 0 -9 0 10 -262144
-1 -1 0 1;
#X obj 345 166 vsl 27 80 60 80 0 0 empty empty empty 0 -9 0 10 -262144
-1 -1 0 1;
#X obj 373 166 vsl 27 80 60 80 0 0 empty empty empty 0 -9 0 10 -262144
-1 -1 0 1;
#X obj 401 166 vsl 27 80 60 80 0 0 empty empty empty 0 -9 0 10 -262144
-1 -1 0 1;
#X obj 429 166 vsl 27 80 60 80 0 0 empty empty empty 0 -9 0 10 -262144
-1 -1 0 1;
#X obj 457 166 vsl 27 80 60 80 0 0 empty empty empty 0 -9 0 10 -262144
-1 -1 0 1;
#X obj 485 166 vsl 27 80 60 80 0 0 empty empty empty 0 -9 0 10 -262144
-1 -1 0 1;
#X obj 513 166 vsl 27 80 60 80 0 0 empty empty empty 0 -9 0 10 -262144
-1 -1 0 1;
#X obj 541 166 vsl 27 80 60 80 0 0 empty empty empty 0 -9 0 10 -262144
-1 -1 0 1;
#X obj 569 166 vsl 27 80 60 80 0 0 empty empty empty 0 -9 0 10 -262144
-1 -1 0 1;
#X obj 597 166 vsl 27 80 60 80 0 0 empty empty empty 0 -9 0 10 -262144
-1 -1 0 1;
#X obj 220 138 sel 0 1 2 3 4 5 6 7 8 9 10 11 12 13 14 15;
#X obj 176 134 hradio 28 1 0 16 empty empty empty 0 -8 0 10 -228460
-83269 -1 0;
#X obj -40 235 loadbang;
#X msg 5 149 range \$1 \$2;
#X obj 5 127 list \$1 \$2;
#X obj 22 214 t b;
#X obj 30 282 f \$1;
#X obj 48 304 f \$2;
#X text 194 30 step;
#X obj 191 68 mod 16;
#X obj 259 327 multiplex 0 1 2 3 4 5 6 7 8 9 10 11 12 13 14 15;
#X obj 121 71 counter 15;
#X obj 103 150 tgl 25 0 empty empty run 0 -10 0 12 -262144 -1 -1 1
1;
#X obj 112 48 metro 100;
#X obj 30 365 ==;
#X obj -3 390 spigot;
#X msg -3 414 0;
#X msg 27 414 1;
#X obj 268 83 t f f;
#X floatatom 133 188 5 20 1000 0 - - -;
#X obj -101 89 / 60;
#X obj -89 155 /;
#X msg -101 131 250;
#X obj -101 110 t b f;
#X obj 133 151 knob 32 32 20 400 0 0 empty empty bpm 4 -10 0 12 -262144
-1 -1 816 1;
#X obj 15 58 loadbang;
#X msg 15 79 120;
#X msg 269 41 15;
#X obj 165 -2 t f f;
#X obj 269 18 sel 1;
#X obj 4 3 inlet;
#X obj 56 2 inlet;
#X obj 715 80 inlet;
#X obj 676 142 gate 16;
#X obj 676 117 + 1;
#X obj -15 261 t b b;
#X obj 177 251 int;
#X obj 206 251 int;
#X obj 234 251 int;
#X obj 263 251 int;
#X obj 289 251 int;
#X obj 318 251 int;
#X obj 345 251 int;
#X obj 373 251 int;
#X obj 401 251 int;
#X obj 429 251 int;
#X obj 457 251 int;
#X obj 485 251 int;
#X obj 513 251 int;
#X obj 541 251 int;
#X obj 569 251 int;
#X obj 598 251 int;
#X floatatom 177 250 4 0 0 0 - - -;
#X floatatom 205 250 4 0 0 0 - - -;
#X floatatom 233 251 4 0 0 0 - - -;
#X floatatom 261 251 4 0 0 0 - - -;
#X floatatom 289 251 4 0 0 0 - - -;
#X floatatom 317 251 4 0 0 0 - - -;
#X floatatom 345 251 4 0 0 0 - - -;
#X floatatom 373 251 4 0 0 0 - - -;
#X floatatom 401 251 4 0 0 0 - - -;
#X floatatom 429 251 4 0 0 0 - - -;
#X floatatom 457 251 4 0 0 0 - - -;
#X floatatom 485 251 4 0 0 0 - - -;
#X floatatom 513 251 4 0 0 0 - - -;
#X floatatom 541 251 4 0 0 0 - - -;
#X floatatom 569 251 4 0 0 0 - - -;
#X floatatom 597 251 4 0 0 0 - - -;
#X obj 177 274 tgl 25 0 empty empty empty 17 7 0 10 -262144 -1 -1 0
1;
#X obj 205 274 tgl 25 0 empty empty empty 17 7 0 10 -262144 -1 -1 0
1;
#X obj 233 274 tgl 25 0 empty empty empty 17 7 0 10 -262144 -1 -1 1
1;
#X obj 261 274 tgl 25 0 empty empty empty 17 7 0 10 -262144 -1 -1 0
1;
#X obj 289 274 tgl 25 0 empty empty empty 17 7 0 10 -262144 -1 -1 1
1;
#X obj 317 274 tgl 25 0 empty empty empty 17 7 0 10 -262144 -1 -1 0
1;
#X obj 345 274 tgl 25 0 empty empty empty 17 7 0 10 -262144 -1 -1 0
1;
#X obj 373 274 tgl 25 0 empty empty empty 17 7 0 10 -262144 -1 -1 0
1;
#X obj 401 274 tgl 25 0 empty empty empty 17 7 0 10 -262144 -1 -1 1
1;
#X obj 429 274 tgl 25 0 empty empty empty 17 7 0 10 -262144 -1 -1 0
1;
#X obj 457 274 tgl 25 0 empty empty empty 17 7 0 10 -262144 -1 -1 1
1;
#X obj 485 274 tgl 25 0 empty empty empty 17 7 0 10 -262144 -1 -1 1
1;
#X obj 513 274 tgl 25 0 empty empty empty 17 7 0 10 -262144 -1 -1 0
1;
#X obj 541 274 tgl 25 0 empty empty empty 17 7 0 10 -262144 -1 -1 0
1;
#X obj 569 274 tgl 25 0 empty empty empty 17 7 0 10 -262144 -1 -1 0
1;
#X obj 597 274 tgl 25 0 empty empty empty 17 7 0 10 -262144 -1 -1 0
1;
#X obj 263 417 multiplex 0 1 2 3 4 5 6 7 8 9 10 11 12 13 14 15;
#X obj 263 451 outlet;
#X obj 165 387 f;
#X obj 191 387 f;
#X obj 217 387 f;
#X obj 243 387 f;
#X obj 270 387 f;
#X obj 296 387 f;
#X obj 322 387 f;
#X obj 348 387 f;
#X obj 375 387 f;
#X obj 401 387 f;
#X obj 427 387 f;
#X obj 453 387 f;
#X obj 480 387 f;
#X obj 506 387 f;
#X obj 532 387 f;
#X obj 558 387 f;
#X connect 1 0 41 0;
#X connect 1 0 57 0;
#X connect 3 0 2 0;
#X connect 4 0 32 0;
#X connect 5 0 27 1;
#X connect 5 0 28 0;
#X connect 6 0 27 0;
#X connect 7 0 59 0;
#X connect 8 0 60 0;
#X connect 9 0 61 0;
#X connect 10 0 62 0;
#X connect 11 0 63 0;
#X connect 12 0 64 0;
#X connect 13 0 65 0;
#X connect 14 0 66 0;
#X connect 15 0 67 0;
#X connect 16 0 68 0;
#X connect 17 0 69 0;
#X connect 18 0 70 0;
#X connect 19 0 71 0;
#X connect 20 0 72 0;
#X connect 21 0 73 0;
#X connect 22 0 74 0;
#X connect 23 0 7 0;
#X connect 23 0 109 0;
#X connect 23 1 8 0;
#X connect 23 1 110 0;
#X connect 23 2 9 0;
#X connect 23 2 111 0;
#X connect 23 3 10 0;
#X connect 23 3 112 0;
#X connect 23 4 11 0;
#X connect 23 4 113 0;
#X connect 23 5 12 0;
#X connect 23 5 114 0;
#X connect 23 6 13 0;
#X connect 23 6 115 0;
#X connect 23 7 14 0;
#X connect 23 7 116 0;
#X connect 23 8 15 0;
#X connect 23 8 117 0;
#X connect 23 9 16 0;
#X connect 23 9 118 0;
#X connect 23 10 17 0;
#X connect 23 10 119 0;
#X connect 23 11 18 0;
#X connect 23 11 120 0;
#X connect 23 12 19 0;
#X connect 23 12 121 0;
#X connect 23 13 20 0;
#X connect 23 13 122 0;
#X connect 23 14 21 0;
#X connect 23 14 123 0;
#X connect 23 15 22 0;
#X connect 23 15 124 0;
#X connect 24 0 23 0;
#X connect 25 0 38 0;
#X connect 25 0 58 0;
#X connect 26 0 7 0;
#X connect 26 0 8 0;
#X connect 26 0 9 0;
#X connect 26 0 10 0;
#X connect 26 0 11 0;
#X connect 26 0 12 0;
#X connect 26 0 13 0;
#X connect 26 0 14 0;
#X connect 26 0 15 0;
#X connect 26 0 16 0;
#X connect 26 0 17 0;
#X connect 26 0 18 0;
#X connect 26 0 19 0;
#X connect 26 0 20 0;
#X connect 26 0 21 0;
#X connect 26 0 22 0;
#X connect 27 0 26 0;
#X connect 28 0 6 0;
#X connect 29 0 6 0;
#X connect 29 0 37 0;
#X connect 30 0 5 0;
#X connect 30 0 37 1;
#X connect 32 0 1 0;
#X connect 33 0 3 0;
#X connect 34 0 1 0;
#X connect 35 0 51 0;
#X connect 36 0 34 0;
#X connect 37 0 38 1;
#X connect 38 0 40 0;
#X connect 38 0 39 0;
#X connect 39 0 6 0;
#X connect 40 0 5 0;
#X connect 41 0 24 0;
#X connect 41 1 33 16;
#X connect 41 1 107 16;
#X connect 42 0 43 0;
#X connect 43 0 46 0;
#X connect 44 0 36 1;
#X connect 45 0 44 0;
#X connect 46 0 45 0;
#X connect 46 1 44 1;
#X connect 47 0 42 0;
#X connect 48 0 49 0;
#X connect 49 0 47 0;
#X connect 50 0 34 3;
#X connect 51 0 36 0;
#X connect 51 1 52 0;
#X connect 52 0 50 0;
#X connect 53 0 35 0;
#X connect 54 0 47 0;
#X connect 55 0 56 1;
#X connect 56 0 7 0;
#X connect 56 1 8 0;
#X connect 56 2 9 0;
#X connect 56 3 10 0;
#X connect 56 4 11 0;
#X connect 56 5 12 0;
#X connect 56 6 13 0;
#X connect 56 7 14 0;
#X connect 56 8 15 0;
#X connect 56 9 16 0;
#X connect 56 10 17 0;
#X connect 56 11 18 0;
#X connect 56 12 19 0;
#X connect 56 13 20 0;
#X connect 56 14 21 0;
#X connect 56 15 22 0;
#X connect 57 0 56 0;
#X connect 58 0 29 0;
#X connect 58 1 30 0;
#X connect 59 0 75 0;
#X connect 60 0 76 0;
#X connect 61 0 77 0;
#X connect 62 0 78 0;
#X connect 63 0 79 0;
#X connect 64 0 80 0;
#X connect 65 0 81 0;
#X connect 66 0 82 0;
#X connect 67 0 83 0;
#X connect 68 0 84 0;
#X connect 69 0 85 0;
#X connect 70 0 86 0;
#X connect 71 0 87 0;
#X connect 72 0 88 0;
#X connect 73 0 89 0;
#X connect 74 0 90 0;
#X connect 75 0 33 0;
#X connect 76 0 33 1;
#X connect 77 0 33 2;
#X connect 78 0 33 3;
#X connect 79 0 33 4;
#X connect 80 0 33 5;
#X connect 81 0 33 6;
#X connect 82 0 33 7;
#X connect 83 0 33 8;
#X connect 84 0 33 9;
#X connect 85 0 33 10;
#X connect 86 0 33 11;
#X connect 87 0 33 12;
#X connect 88 0 33 13;
#X connect 89 0 33 14;
#X connect 90 0 33 15;
#X connect 91 0 109 1;
#X connect 92 0 110 1;
#X connect 93 0 111 1;
#X connect 94 0 112 1;
#X connect 95 0 113 1;
#X connect 96 0 114 1;
#X connect 97 0 115 1;
#X connect 98 0 116 1;
#X connect 99 0 117 1;
#X connect 100 0 118 1;
#X connect 101 0 119 1;
#X connect 102 0 120 1;
#X connect 103 0 121 1;
#X connect 104 0 122 1;
#X connect 105 0 123 1;
#X connect 106 0 124 1;
#X connect 107 0 108 0;
#X connect 109 0 107 0;
#X connect 110 0 107 1;
#X connect 111 0 107 2;
#X connect 112 0 107 3;
#X connect 113 0 107 4;
#X connect 114 0 107 5;
#X connect 115 0 107 6;
#X connect 116 0 107 7;
#X connect 117 0 107 8;
#X connect 118 0 107 9;
#X connect 119 0 107 10;
#X connect 120 0 107 11;
#X connect 121 0 107 12;
#X connect 122 0 107 13;
#X connect 123 0 107 14;
#X connect 124 0 107 15;
#X coords 0 -1 1 1 527 205 1 100 100;
