#N canvas 204 92 844 654 12;
#X obj 101 118 cnv 15 248 53 empty empty empty 20 12 0 14 -261735 -66577
0;
#X obj 187 207 osc~;
#X obj 187 232 *~ 0.5;
#X obj 187 255 +~ 0.5;
#X obj 2 99 inlet~;
#X obj 91 653 outlet~;
#X obj 257 134 knob 32 32 0 15 0 0 empty empty speed -2 -10 0 12 -262144
-1 -1 1033 1;
#X floatatom 120 370 5 0 0 0 - - -;
#X msg 120 351 1;
#X obj 120 332 loadbang;
#X obj 105 431 *~;
#X obj 197 423 *~;
#X obj 123 463 +~;
#X obj 308 133 knob 32 32 0 1 0 0 empty empty depth -2 -10 0 12 -262144
-1 -1 1550 1;
#X obj 197 378 *~;
#X obj 264 19 inlet;
#X obj 315 19 inlet;
#X obj 120 388 -~;
#X obj 314 232 line~;
#X msg 314 211 \$1 20;
#X obj 157 49 inlet;
#X obj 268 46 loadbang;
#X msg 267 76 5;
#X msg 325 75 0.5;
#X text 2 78 audio input;
#X obj 91 599 mm-bypass~;
#X obj 147 71 loadbang;
#X text 213 168 comment;
#X obj 155 120 tgl 25 0 empty empty on 4 30 0 14 -99865 -4034 -1 1
1;
#X obj 202 135 knob 32 32 0 1 0 0 empty empty dry/wet -4 -10 0 12 -262144
-1 -1 1550 1;
#X obj 108 537 mm-mix2~;
#X msg 216 65 0.5;
#X obj 209 22 inlet;
#X text 361 209 dezipper when depth is changing;
#X connect 1 0 2 0;
#X connect 2 0 3 0;
#X connect 3 0 14 1;
#X connect 4 0 10 0;
#X connect 4 0 14 0;
#X connect 4 0 25 0;
#X connect 4 0 30 0;
#X connect 6 0 1 0;
#X connect 7 0 17 0;
#X connect 8 0 7 0;
#X connect 9 0 8 0;
#X connect 10 0 12 0;
#X connect 11 0 12 0;
#X connect 12 0 30 1;
#X connect 13 0 19 0;
#X connect 14 0 11 0;
#X connect 15 0 6 0;
#X connect 16 0 13 0;
#X connect 17 0 10 1;
#X connect 18 0 11 1;
#X connect 18 0 17 1;
#X connect 19 0 18 0;
#X connect 20 0 28 0;
#X connect 21 0 22 0;
#X connect 21 0 23 0;
#X connect 21 0 31 0;
#X connect 22 0 6 0;
#X connect 23 0 13 0;
#X connect 25 0 5 0;
#X connect 26 0 28 0;
#X connect 28 0 25 2;
#X connect 29 0 30 2;
#X connect 30 0 25 1;
#X connect 31 0 29 0;
#X connect 32 0 29 0;
#X coords 0 -1 1 1 250 75 1 100 100;
