#N canvas 265 120 1018 514 12;
#X obj 101 119 cnv 15 248 53 empty empty empty 20 12 0 14 -204786 -66577
0;
#N canvas 296 295 654 448 select_oscillators 0;
#X obj 132 137 osc~;
#X obj 225 137 square~;
#X obj 287 136 phasor~;
#X obj 181 372 outlet~;
#X obj 287 164 *~ 2;
#X obj 287 186 -~ 0.9;
#X obj 350 136 pink~;
#N canvas 583 374 691 259 tri~ 0;
#X obj 114 112 triangle~;
#X obj 114 85 phasor~;
#X obj 114 188 outlet~;
#X obj 114 59 inlet~;
#X obj 176 58 inlet;
#X obj 176 85 sig~ 0.5;
#X text 243 53 Triangle wave patch first inlet is the frequency second
inlet is peak-value-phase-offset (see triangle~ help);
#X obj 114 160 *~ 2;
#X text 154 159 boost;
#X connect 0 0 7 0;
#X connect 1 0 0 0;
#X connect 3 0 1 0;
#X connect 4 0 5 0;
#X connect 5 0 0 1;
#X connect 7 0 2 0;
#X restore 168 138 pd tri~;
#X obj 136 209 *~;
#X obj 170 208 *~;
#X obj 226 211 *~;
#X obj 271 219 *~;
#X obj 362 218 *~;
#X obj 330 28 inlet;
#X obj 374 28 inlet;
#X obj 416 28 inlet;
#X obj 460 28 inlet;
#X obj 504 28 inlet;
#X obj 283 82 line~;
#X msg 283 58 \$1 20;
#X obj 343 82 line~;
#X msg 343 58 \$1 20;
#X obj 393 82 line~;
#X msg 393 58 \$1 20;
#X obj 453 82 line~;
#X msg 453 58 \$1 20;
#X obj 503 82 line~;
#X msg 503 58 \$1 20;
#X obj 204 20 inlet~;
#N canvas 746 591 450 300 sample 0;
#X obj 203 97 snapshot~;
#X obj 204 73 metro 10;
#X obj 202 45 loadbang;
#X obj 211 13 inlet~;
#X obj 203 136 outlet;
#X connect 0 0 4 0;
#X connect 1 0 0 0;
#X connect 2 0 1 0;
#X connect 3 0 0 0;
#X restore 202 85 pd sample;
#X connect 0 0 8 0;
#X connect 1 0 10 0;
#X connect 2 0 4 0;
#X connect 4 0 5 0;
#X connect 5 0 11 0;
#X connect 6 0 12 0;
#X connect 7 0 9 0;
#X connect 8 0 3 0;
#X connect 9 0 3 0;
#X connect 10 0 3 0;
#X connect 11 0 3 0;
#X connect 12 0 3 0;
#X connect 13 0 19 0;
#X connect 14 0 21 0;
#X connect 15 0 23 0;
#X connect 16 0 25 0;
#X connect 17 0 27 0;
#X connect 18 0 8 1;
#X connect 19 0 18 0;
#X connect 20 0 9 1;
#X connect 21 0 20 0;
#X connect 22 0 10 1;
#X connect 23 0 22 0;
#X connect 24 0 11 1;
#X connect 25 0 24 0;
#X connect 26 0 12 1;
#X connect 27 0 26 0;
#X connect 28 0 0 0;
#X connect 28 0 2 0;
#X connect 28 0 7 0;
#X connect 28 0 29 0;
#X connect 29 0 1 0;
#X restore 192 187 pd select_oscillators;
#X obj 192 259 outlet~;
#X obj 110 135 knob 32 32 20 10000 1 0 empty empty freq -4 -10 0 12
-262144 -1 -1 1246 1;
#X obj 108 37 inlet;
#X obj 197 38 inlet;
#X obj 190 137 tgl 30 0 empty empty sin 0 -10 0 12 -262144 -1 -1 0
1;
#X obj 222 137 tgl 30 0 empty empty tri 0 -10 0 12 -262144 -1 -1 0
1;
#X obj 254 137 tgl 30 0 empty empty sqr 0 -10 0 12 -262144 -1 -1 0
1;
#X obj 286 137 tgl 30 0 empty empty saw 0 -10 0 12 -262144 -1 -1 0
1;
#X obj 318 137 tgl 30 0 empty empty noise -4 -10 0 12 -262144 -1 -1
0 1;
#X obj 163 64 loadbang;
#X msg 115 77 440;
#X obj 240 37 inlet;
#X obj 284 34 inlet;
#X obj 327 36 inlet;
#X obj 371 33 inlet;
#X obj 150 135 knob 32 32 10 1000 1 0 empty empty glide -4 -10 0 12
-262144 -1 -1 658 1;
#X obj 102 231 line~;
#X msg 103 205 \$1 \$2;
#X obj 102 179 pack;
#X obj 154 35 inlet;
#X connect 1 0 2 0;
#X connect 3 0 20 0;
#X connect 4 0 3 0;
#X connect 5 0 6 0;
#X connect 6 0 1 1;
#X connect 7 0 1 2;
#X connect 8 0 1 3;
#X connect 9 0 1 4;
#X connect 10 0 1 5;
#X connect 11 0 6 0;
#X connect 11 0 12 0;
#X connect 12 0 3 0;
#X connect 13 0 7 0;
#X connect 14 0 8 0;
#X connect 15 0 9 0;
#X connect 16 0 10 0;
#X connect 17 0 20 1;
#X connect 18 0 1 0;
#X connect 19 0 18 0;
#X connect 20 0 19 0;
#X connect 21 0 17 0;
#X coords 0 -1 1 1 250 75 1 100 100;
