#N canvas 213 91 648 639 12;
#X obj 58 -222 mm-vco~;
#X obj 144 7 cnv 17 3 25 empty empty 0 5 9 0 16 -228856 -162280 0;
#X obj 65 -2 cnv 3 400 3 empty \$0-pddp.cnv.inlets inlets 8 12 0 13
-228856 -1 0;
#X obj 144 40 cnv 17 3 25 empty empty 1 5 9 0 16 -228856 -162280 0
;
#X obj 144 71 cnv 17 3 25 empty empty 2-6 5 9 0 16 -228856 -162280
0;
#X text 181 69 float;
#X text 66 -51 mm-vco~;
#X text 143 -51 "voltage controlled oscillator" - waveform generator
;
#X text 164 6 float;
#X text 164 39 float;
#X text 147 -31 enable/disable waveforms with toggle boxes;
#X text 234 70 waveform toggle (sin \, triangle \, square \, sawtooth
\, noise);
#X obj 65 99 cnv 3 400 3 empty \$0-pddp.cnv.inlets outlets 8 12 0 13
-228856 -1 0;
#X obj 144 107 cnv 17 3 25 empty empty 0 5 9 0 16 -228856 -162280 0
;
#X text 164 106 signal;
#X text 234 106 Audio output;
#X text 234 6 Frequency (Hz) (no effect on noise);
#X obj 16 -449 cnv 15 600 50 empty empty modular-mus_waveform_generator
20 12 0 18 -183872 -66577 0;
#X text 40 -427 "voltage controlled oscillator" sound generator;
#X obj 58 -87 dac~;
#X obj 58 -117 *~;
#X obj 94 -133 tgl 15 0 empty empty empty 17 7 0 10 -262144 -1 -1 0
1;
#X text 114 -138 <- click to hear;
#X obj 58 -390 vsl 25 100 50 5000 1 0 empty empty empty 0 -9 0 10 -262144
-1 -1 7900 1;
#X floatatom 58 -279 5 0 0 0 - - -;
#X obj 98 -360 vsl 25 100 10 1000 1 0 empty empty empty 0 -9 0 10 -262144
-1 -1 0 1;
#X floatatom 98 -249 5 0 0 0 - - -;
#X text 92 -397 <- frequency control;
#X text 129 -362 <- portamento control (time to change pitches);
#X text 234 39 Glide / portamento time (0 - 1000 ms);
#X obj 139 -248 tgl 15 0 empty empty empty 17 7 0 10 -262144 -1 -1
0 1;
#X obj 179 -248 tgl 15 0 empty empty empty 17 7 0 10 -262144 -1 -1
0 1;
#X obj 220 -248 tgl 15 0 empty empty empty 17 7 0 10 -262144 -1 -1
1 1;
#X obj 260 -248 tgl 15 0 empty empty empty 17 7 0 10 -262144 -1 -1
0 1;
#X obj 301 -249 tgl 15 0 empty empty empty 17 7 0 10 -262144 -1 -1
0 1;
#X text 327 -255 <- waveform select;
#X text 325 -189 <- or use the GUI;
#X obj 139 -295 loadbang;
#X connect 0 0 20 0;
#X connect 20 0 19 0;
#X connect 20 0 19 1;
#X connect 21 0 20 1;
#X connect 23 0 24 0;
#X connect 24 0 0 0;
#X connect 25 0 26 0;
#X connect 26 0 0 1;
#X connect 30 0 0 2;
#X connect 31 0 0 3;
#X connect 32 0 0 4;
#X connect 33 0 0 5;
#X connect 34 0 0 6;
#X connect 37 0 30 0;
