#N canvas 121 67 1211 703 10;
#X obj 44 333 route analog digital;
#X obj -68 485 s A0;
#N canvas 438 345 629 386 data_filter 0;
#X obj 107 -1072 delta;
#X obj 107 -1040 max 0.5;
#X floatatom 107 -1016 5 0 0 0 - - -;
#X obj 108 -992 > 0.5;
#X obj 105 -913 gate 2;
#X obj 109 -965 + 1;
#X floatatom 107 -941 5 0 0 0 - - -;
#X obj 108 -1108 inlet;
#X obj 104 -877 outlet;
#X obj 165 -1074 delta;
#X obj 165 -1042 max 0.5;
#X floatatom 165 -1018 5 0 0 0 - - -;
#X obj 166 -994 > 0.5;
#X obj 163 -915 gate 2;
#X obj 167 -967 + 1;
#X floatatom 165 -943 5 0 0 0 - - -;
#X obj 166 -1110 inlet;
#X obj 162 -879 outlet;
#X obj 216 -1073 delta;
#X obj 216 -1041 max 0.5;
#X floatatom 216 -1017 5 0 0 0 - - -;
#X obj 217 -993 > 0.5;
#X obj 214 -914 gate 2;
#X obj 218 -966 + 1;
#X floatatom 216 -942 5 0 0 0 - - -;
#X obj 217 -1109 inlet;
#X obj 213 -878 outlet;
#X obj 274 -1075 delta;
#X obj 274 -1043 max 0.5;
#X floatatom 274 -1019 5 0 0 0 - - -;
#X obj 275 -995 > 0.5;
#X obj 272 -916 gate 2;
#X obj 276 -968 + 1;
#X floatatom 274 -944 5 0 0 0 - - -;
#X obj 275 -1111 inlet;
#X obj 271 -880 outlet;
#X obj 330 -1073 delta;
#X obj 330 -1041 max 0.5;
#X floatatom 330 -1017 5 0 0 0 - - -;
#X obj 331 -993 > 0.5;
#X obj 328 -914 gate 2;
#X obj 332 -966 + 1;
#X floatatom 330 -942 5 0 0 0 - - -;
#X obj 331 -1109 inlet;
#X obj 327 -878 outlet;
#X obj 388 -1075 delta;
#X obj 388 -1043 max 0.5;
#X floatatom 388 -1019 5 0 0 0 - - -;
#X obj 389 -995 > 0.5;
#X obj 386 -916 gate 2;
#X obj 390 -968 + 1;
#X floatatom 388 -944 5 0 0 0 - - -;
#X obj 389 -1111 inlet;
#X obj 385 -880 outlet;
#X obj 439 -1074 delta;
#X obj 439 -1042 max 0.5;
#X floatatom 439 -1018 5 0 0 0 - - -;
#X obj 440 -994 > 0.5;
#X obj 437 -915 gate 2;
#X obj 441 -967 + 1;
#X floatatom 439 -943 5 0 0 0 - - -;
#X obj 440 -1110 inlet;
#X obj 436 -879 outlet;
#X obj 497 -1076 delta;
#X obj 497 -1044 max 0.5;
#X floatatom 497 -1020 5 0 0 0 - - -;
#X obj 498 -996 > 0.5;
#X obj 495 -917 gate 2;
#X obj 499 -969 + 1;
#X floatatom 497 -945 5 0 0 0 - - -;
#X obj 498 -1112 inlet;
#X obj 494 -881 outlet;
#X connect 0 0 1 0;
#X connect 1 0 2 0;
#X connect 2 0 3 0;
#X connect 3 0 5 0;
#X connect 4 0 8 0;
#X connect 5 0 6 0;
#X connect 6 0 4 0;
#X connect 7 0 0 0;
#X connect 7 0 4 1;
#X connect 9 0 10 0;
#X connect 10 0 11 0;
#X connect 11 0 12 0;
#X connect 12 0 14 0;
#X connect 13 0 17 0;
#X connect 14 0 15 0;
#X connect 15 0 13 0;
#X connect 16 0 9 0;
#X connect 16 0 13 1;
#X connect 18 0 19 0;
#X connect 19 0 20 0;
#X connect 20 0 21 0;
#X connect 21 0 23 0;
#X connect 22 0 26 0;
#X connect 23 0 24 0;
#X connect 24 0 22 0;
#X connect 25 0 18 0;
#X connect 25 0 22 1;
#X connect 27 0 28 0;
#X connect 28 0 29 0;
#X connect 29 0 30 0;
#X connect 30 0 32 0;
#X connect 31 0 35 0;
#X connect 32 0 33 0;
#X connect 33 0 31 0;
#X connect 34 0 27 0;
#X connect 34 0 31 1;
#X connect 36 0 37 0;
#X connect 37 0 38 0;
#X connect 38 0 39 0;
#X connect 39 0 41 0;
#X connect 40 0 44 0;
#X connect 41 0 42 0;
#X connect 42 0 40 0;
#X connect 43 0 36 0;
#X connect 43 0 40 1;
#X connect 45 0 46 0;
#X connect 46 0 47 0;
#X connect 47 0 48 0;
#X connect 48 0 50 0;
#X connect 49 0 53 0;
#X connect 50 0 51 0;
#X connect 51 0 49 0;
#X connect 52 0 45 0;
#X connect 52 0 49 1;
#X connect 54 0 55 0;
#X connect 55 0 56 0;
#X connect 56 0 57 0;
#X connect 57 0 59 0;
#X connect 58 0 62 0;
#X connect 59 0 60 0;
#X connect 60 0 58 0;
#X connect 61 0 54 0;
#X connect 61 0 58 1;
#X connect 63 0 64 0;
#X connect 64 0 65 0;
#X connect 65 0 66 0;
#X connect 66 0 68 0;
#X connect 67 0 71 0;
#X connect 68 0 69 0;
#X connect 69 0 67 0;
#X connect 70 0 63 0;
#X connect 70 0 67 1;
#X restore -68 449 pd data_filter;
#X obj -57 508 s A1;
#X obj 242 271 pipe 1000;
#X obj 242 252 t b;
#X obj -45 531 s A2;
#X obj -34 554 s A3;
#X obj 23 2 r \$0-toArduino;
#X text 81 -56 ON;
#X msg 24 -61 \; pd dsp 1;
#X obj 24 -111 loadbang;
#X obj 242 231 sel 1;
#X obj 24 -88 del 500;
#X msg 286 48 analog 3 \$1;
#X floatatom 286 27 5 0 0 0 - - -;
#X floatatom 330 1 5 0 0 0 - - -;
#X floatatom 369 -24 5 0 0 0 - - -;
#X obj 511 66 s \$0-toArduino;
#X msg 330 22 analog 5 \$1;
#X msg 369 -3 analog 6 \$1;
#X floatatom 407 -46 5 0 0 0 - - -;
#X msg 407 -25 analog 9 \$1;
#X text 666 -78 Digital / PWM Outputs;
#N canvas 492 106 633 433 configure_digitalInputs 0;
#X msg 137 97 pinMode 2 input;
#X obj 123 236 s \$0-toArduino;
#X obj 107 68 bng 15 250 50 0 empty empty empty 17 7 0 10 -262144 -1
-1;
#X msg 137 119 pinMode 4 input;
#X msg 136 139 pinMode 7 input;
#X msg 136 161 pinMode 8 input;
#X msg 136 180 pinMode 12 input;
#X msg 137 202 pinMode 13 input;
#X text 128 68 digital input pins;
#X obj 106 38 inlet;
#X connect 0 0 1 0;
#X connect 2 0 0 0;
#X connect 2 0 3 0;
#X connect 2 0 4 0;
#X connect 2 0 5 0;
#X connect 2 0 6 0;
#X connect 2 0 7 0;
#X connect 3 0 1 0;
#X connect 4 0 1 0;
#X connect 5 0 1 0;
#X connect 6 0 1 0;
#X connect 7 0 1 0;
#X connect 9 0 2 0;
#X restore 302 310 pd configure_digitalInputs;
#N canvas 666 260 450 300 configure_analogInputs 0;
#X obj 109 67 inlet;
#X msg 111 120 pinMode 14 analog;
#X msg 112 139 pinMode 15 analog;
#X msg 113 159 pinMode 16 analog;
#X obj 111 98 bng 15 250 50 0 empty empty empty 17 7 0 10 -262144 -1
-1;
#X msg 116 255 pinMode 21 analog;
#X msg 114 179 pinMode 17 analog;
#X msg 115 198 pinMode 18 analog;
#X msg 115 218 pinMode 19 analog;
#X msg 115 236 pinMode 20 analog;
#X text 142 101 A0 - A7;
#X obj 112 288 s \$0-toArduino;
#X connect 0 0 4 0;
#X connect 1 0 11 0;
#X connect 2 0 11 0;
#X connect 3 0 11 0;
#X connect 4 0 1 0;
#X connect 4 0 2 0;
#X connect 4 0 3 0;
#X connect 4 0 6 0;
#X connect 4 0 7 0;
#X connect 4 0 8 0;
#X connect 4 0 9 0;
#X connect 4 0 5 0;
#X connect 5 0 11 0;
#X connect 6 0 11 0;
#X connect 7 0 11 0;
#X connect 8 0 11 0;
#X connect 9 0 11 0;
#X restore 322 290 pd configure_analogInputs;
#N canvas 255 276 770 339 configure_pwmDigitalOut 0;
#X msg 205 87 pinMode 3 pwm;
#X msg 205 107 pinMode 5 pwm;
#X msg 205 127 pinMode 6 pwm;
#X msg 205 148 pinMode 9 pwm;
#X msg 205 168 pinMode 10 pwm;
#X msg 205 188 pinMode 11 pwm;
#X obj 188 62 bng 15 250 50 0 empty empty empty 17 7 0 10 -262144 -1
-1;
#X obj 185 213 s \$0-toArduino;
#X text 212 57 pwm output pins;
#X obj 187 25 inlet;
#X connect 0 0 7 0;
#X connect 1 0 7 0;
#X connect 2 0 7 0;
#X connect 3 0 7 0;
#X connect 4 0 7 0;
#X connect 5 0 7 0;
#X connect 6 0 0 0;
#X connect 6 0 1 0;
#X connect 6 0 2 0;
#X connect 6 0 3 0;
#X connect 6 0 4 0;
#X connect 6 0 5 0;
#X connect 9 0 6 0;
#X restore 272 330 pd configure_pwmDigitalOut;
#X obj 14 -19 inlet;
#X obj 104 451 s D0;
#X obj 122 473 s D1;
#X obj 141 450 s D2;
#X obj 160 476 s D3;
#X obj 407 -68 r O3;
#X obj 369 -46 r O2;
#X obj 330 -21 r O1;
#X obj 286 5 r O0;
#X obj 101 117 cnv 15 148 92 empty empty empty 20 12 0 14 -150464 -66577
0;
#N canvas 821 130 655 347 auto-open 0;
#X obj 93 36 route version retrying;
#X msg 94 63 0;
#X msg 156 67 1;
#X msg 188 108 0;
#X msg 181 242 version;
#X obj 181 265 s \$0-toArduino;
#X obj 167 189 t b;
#X obj 94 12 inlet;
#X obj 122 89 tgl 15 0 empty empty empty 17 7 0 10 -262144 -1 -1 0
1;
#X obj 293 206 outlet;
#X obj 137 3 inlet;
#X msg 264 175 1;
#X msg 275 152 0;
#X obj 78 235 outlet;
#X obj 177 216 del 300;
#X obj 80 195 + 1;
#X obj 122 108 metro 4000;
#X obj 150 152 counter 3;
#X connect 0 0 1 0;
#X connect 0 1 2 0;
#X connect 1 0 8 0;
#X connect 1 0 11 0;
#X connect 2 0 8 0;
#X connect 2 0 3 0;
#X connect 2 0 12 0;
#X connect 3 0 17 3;
#X connect 4 0 5 0;
#X connect 6 0 14 0;
#X connect 7 0 0 0;
#X connect 8 0 16 0;
#X connect 10 0 8 0;
#X connect 10 0 3 0;
#X connect 11 0 9 0;
#X connect 12 0 9 0;
#X connect 14 0 4 0;
#X connect 15 0 13 0;
#X connect 16 0 17 0;
#X connect 17 0 6 0;
#X connect 17 0 15 0;
#X restore 104 68 pd auto-open;
#X obj 162 154 tgl 25 0 empty empty connected 0 32 0 10 -176094 -13381
-1 0 1;
#X obj 134 153 bng 25 250 50 0 empty empty scan 0 32 0 10 -262144 -1
-1;
#N canvas 146 163 525 433 serin 0;
#X obj 180 61 cnv 15 15 15 empty \$0-number-canvas 4 4 8 0 14 -233017
-1 0;
#X obj 200 225 s \$0-number-canvas;
#X obj 60 61 hradio 15 1 1 8 empty empty empty 0 -6 0 8 -225271 -1
-1 4;
#X obj 60 13 inlet;
#X msg 200 202 label \$1;
#X obj 200 180 makefilename %d;
#X obj 59 108 int;
#X msg 59 206 open \$1;
#X obj 59 377 outlet;
#X msg 201 306 set \$1 \$2;
#X obj 59 266 trigger bang anything;
#X obj 201 286 list;
#X obj 383 383 outlet;
#X obj 384 22 netreceive 34567;
#X obj 477 43 tgl 15 0 empty empty empty 0 -6 0 10 -262144 -1 -1 0
1;
#X obj 384 41 bng 15 250 50 0 empty empty empty 0 -6 0 10 -262144 -1
-1;
#X obj 187 24 delay 15000;
#X text 345 379 close;
#X text 209 4 for open/close automation in Makefile;
#X obj 184 95 bang;
#X obj 184 137 send ARDUINO_TEST_RESET;
#X msg 184 116 set 0;
#X connect 2 0 6 0;
#X connect 2 0 19 0;
#X connect 3 0 2 0;
#X connect 4 0 1 0;
#X connect 5 0 4 0;
#X connect 6 0 5 0;
#X connect 6 0 7 0;
#X connect 7 0 10 0;
#X connect 9 0 8 0;
#X connect 10 0 8 0;
#X connect 10 1 11 0;
#X connect 11 0 9 0;
#X connect 13 0 15 0;
#X connect 13 1 14 0;
#X connect 15 0 16 0;
#X connect 15 0 12 0;
#X connect 16 0 2 0;
#X connect 19 0 21 0;
#X connect 21 0 20 0;
#X coords 0 -1 1 1 136 17 1 60 60;
#X restore 104 129 pd serin;
#X text 104 113 serial port #;
#X obj 104 190 pddp/dsp;
#X msg 47 173 open 4;
#X obj 83 239 s \$0-toArduino;
#X obj 104 153 bng 25 250 50 0 empty empty list 0 32 0 10 -262144 -1
-1;
#X msg 82 216 devices;
#X msg 161 216 0;
#X text -45 402 analog inputs;
#X text 121 407 digital inputs;
#X floatatom 444 -68 5 0 0 0 - - -;
#X floatatom 483 -90 5 0 0 0 - - -;
#X msg 444 -47 analog 10 \$1;
#X msg 483 -69 analog 11 \$1;
#X obj 444 -90 r O4;
#X obj 483 -112 r O5;
#X obj -68 419 route 0 1 2 3 4 5 6 7;
#X obj 104 424 route 2 4 7 8 12 13;
#X obj 178 449 s D4;
#X obj 196 476 s D5;
#X obj -22 485 s A4;
#X obj -11 508 s A5;
#X obj 1 531 s A6;
#X obj 13 554 s A7;
#X obj 221 155 bng 25 250 50 0 empty empty close 0 32 0 10 -262144
-1 -1;
#X msg 285 198 close;
#X obj 285 219 s \$0-toArduino;
#X text -2 52 stop scanning even if version comes back late;
#X obj 23 24 pduino/arduino 2;
#X connect 0 0 56 0;
#X connect 0 1 57 0;
#X connect 2 0 1 0;
#X connect 2 1 3 0;
#X connect 2 2 6 0;
#X connect 2 3 7 0;
#X connect 2 4 60 0;
#X connect 2 5 61 0;
#X connect 2 6 62 0;
#X connect 2 7 63 0;
#X connect 4 0 25 0;
#X connect 4 0 24 0;
#X connect 4 0 26 0;
#X connect 5 0 4 0;
#X connect 8 0 68 0;
#X connect 11 0 13 0;
#X connect 12 0 5 0;
#X connect 13 0 10 0;
#X connect 14 0 18 0;
#X connect 15 0 14 0;
#X connect 16 0 19 0;
#X connect 17 0 20 0;
#X connect 19 0 18 0;
#X connect 20 0 18 0;
#X connect 21 0 22 0;
#X connect 22 0 18 0;
#X connect 27 0 68 0;
#X connect 32 0 21 0;
#X connect 33 0 17 0;
#X connect 34 0 16 0;
#X connect 35 0 15 0;
#X connect 37 0 40 0;
#X connect 37 1 38 0;
#X connect 38 0 12 0;
#X connect 39 0 37 1;
#X connect 39 0 47 0;
#X connect 40 0 43 0;
#X connect 43 0 44 0;
#X connect 45 0 46 0;
#X connect 46 0 44 0;
#X connect 47 0 38 0;
#X connect 50 0 52 0;
#X connect 51 0 53 0;
#X connect 52 0 18 0;
#X connect 53 0 18 0;
#X connect 54 0 50 0;
#X connect 55 0 51 0;
#X connect 56 0 2 0;
#X connect 56 1 2 1;
#X connect 56 2 2 2;
#X connect 56 3 2 3;
#X connect 56 4 2 4;
#X connect 56 5 2 5;
#X connect 56 6 2 6;
#X connect 56 7 2 7;
#X connect 57 0 28 0;
#X connect 57 1 29 0;
#X connect 57 2 30 0;
#X connect 57 3 31 0;
#X connect 57 4 58 0;
#X connect 57 5 59 0;
#X connect 64 0 65 0;
#X connect 65 0 66 0;
#X connect 68 0 0 0;
#X connect 68 1 37 0;
#X coords 0 -1 1 1 150 110 1 100 100;
