#N canvas 127 89 1115 644 10;
#X obj 78 176 tgl 15 0 empty empty empty 17 7 0 10 -262144 -1 -1 0
1;
#X obj 214 258 random 100;
#X floatatom 214 283 5 0 0 0 - - -;
#X obj 77 219 s pulse;
#X obj 214 232 r pulse;
#X floatatom 287 283 5 0 0 0 - - -;
#X obj 354 258 random 100;
#X floatatom 354 283 5 0 0 0 - - -;
#X obj 354 232 r pulse;
#X floatatom 427 283 5 0 0 0 - - -;
#X obj 214 304 <;
#X obj 354 304 <;
#X obj 484 258 random 100;
#X floatatom 484 283 5 0 0 0 - - -;
#X obj 484 232 r pulse;
#X floatatom 557 284 5 0 0 0 - - -;
#X obj 624 258 random 100;
#X floatatom 624 283 5 0 0 0 - - -;
#X obj 624 232 r pulse;
#X floatatom 690 282 5 0 0 0 - - -;
#X obj 484 304 <;
#X obj 624 304 <;
#X obj 484 359 mm-out 2;
#X obj 624 360 mm-out 3;
#X obj 78 153 sel 32;
#X obj 78 131 key;
#X floatatom 128 174 5 0 0 0 - - -;
#X obj 128 39 vsl 15 128 80 200 0 0 empty empty empty 0 -9 0 10 -262144
-1 -1 8600 1;
#X obj 214 361 mm-out 0;
#X obj 354 360 mm-out 1;
#X obj 287 140 mm-analog 0 0 100;
#X obj 427 140 mm-analog 1 0 100;
#X obj 557 140 mm-analog 0 0 100;
#X obj 77 197 metro;
#X text 697 257 <- generate random number between 0-99;
#N canvas 233 293 666 485 click 0;
#X obj 204 118 pipe 30;
#X msg 204 140 0;
#X msg 169 100 1;
#X obj 175 4 inlet;
#X obj 169 169 outlet;
#X obj 172 54 sel 1;
#X text 222 60 comment;
#X connect 0 0 1 0;
#X connect 1 0 4 0;
#X connect 2 0 4 0;
#X connect 3 0 5 0;
#X connect 5 0 2 0;
#X connect 5 0 0 0;
#X restore 484 336 pd click if true;
#N canvas 233 293 666 485 click 0;
#X obj 204 118 pipe 30;
#X msg 204 140 0;
#X msg 169 100 1;
#X obj 175 4 inlet;
#X obj 169 169 outlet;
#X obj 172 54 sel 1;
#X text 222 60 comment;
#X connect 0 0 1 0;
#X connect 1 0 4 0;
#X connect 2 0 4 0;
#X connect 3 0 5 0;
#X connect 5 0 2 0;
#X connect 5 0 0 0;
#X restore 354 337 pd click if true;
#N canvas 233 293 666 485 click 0;
#X obj 204 118 pipe 30;
#X msg 204 140 0;
#X msg 169 100 1;
#X obj 175 4 inlet;
#X obj 169 169 outlet;
#X obj 172 54 sel 1;
#X text 222 60 comment;
#X connect 0 0 1 0;
#X connect 1 0 4 0;
#X connect 2 0 4 0;
#X connect 3 0 5 0;
#X connect 5 0 2 0;
#X connect 5 0 0 0;
#X restore 214 338 pd click if true;
#X obj 29 291 mm;
#N canvas 233 293 666 485 trigger 0;
#X obj 204 118 pipe 30;
#X msg 204 140 0;
#X msg 169 100 1;
#X obj 175 4 inlet;
#X obj 169 169 outlet;
#X obj 172 54 sel 1;
#X text 222 60 comment;
#X connect 0 0 1 0;
#X connect 1 0 4 0;
#X connect 2 0 4 0;
#X connect 3 0 5 0;
#X connect 5 0 2 0;
#X connect 5 0 0 0;
#X restore 624 335 pd trigger if true;
#X text 697 231 <- once per beat;
#X obj 690 142 mm-analog 3 0 99;
#X text 697 300 <- if random number is less than sensor value then
trigger;
#X text 809 146 Analog input 3 mapped between 0 and 99;
#X text 2 152 space bar ->;
#X obj 25 79 mm-digital 0;
#X connect 0 0 33 0;
#X connect 1 0 2 0;
#X connect 2 0 10 0;
#X connect 4 0 1 0;
#X connect 5 0 10 1;
#X connect 6 0 7 0;
#X connect 7 0 11 0;
#X connect 8 0 6 0;
#X connect 9 0 11 1;
#X connect 10 0 37 0;
#X connect 11 0 36 0;
#X connect 12 0 13 0;
#X connect 13 0 20 0;
#X connect 14 0 12 0;
#X connect 15 0 20 1;
#X connect 16 0 17 0;
#X connect 17 0 21 0;
#X connect 18 0 16 0;
#X connect 19 0 21 1;
#X connect 20 0 35 0;
#X connect 21 0 39 0;
#X connect 24 0 0 0;
#X connect 25 0 24 0;
#X connect 26 0 33 1;
#X connect 27 0 26 0;
#X connect 30 0 5 0;
#X connect 31 0 9 0;
#X connect 32 0 15 0;
#X connect 33 0 3 0;
#X connect 35 0 22 0;
#X connect 36 0 29 0;
#X connect 37 0 28 0;
#X connect 39 0 23 0;
#X connect 41 0 19 0;
#X connect 45 0 0 0;
