#N canvas 0 22 788 691 10;
#X obj 28 17 mm;
#X obj 477 206 mm-analog 0 200 2000;
#X obj 213 125 mm-waves~;
#X obj 213 378 mm-gain~;
#X obj 213 493 dac~;
#X obj 415 95 loadbang;
#X obj 213 291 mm-filter~;
#X floatatom 477 293 5 0 0 0 - - -;
#X text 239 19 uses analog input 0 to control a low pass filter;
#X text 610 202 [mm-analog 0 200 2000];
#X text 612 221 port 0;
#X text 611 242 low end : 200;
#X text 613 261 high end : 2000;
#X obj 273 230 mm-digital 2;
#X connect 1 0 6 3;
#X connect 1 0 7 0;
#X connect 2 0 6 0;
#X connect 3 0 4 0;
#X connect 5 0 2 5;
#X connect 6 0 3 0;
#X connect 13 0 6 1;
