#N canvas 226 121 562 590 10;
#X obj 214 120 adc~;
#X obj 214 452 mm-out 0;
#X obj 236 402 mm-out 1;
#X obj 259 353 mm-out 2;
#N canvas 910 293 450 300 meter 0;
#X obj -21 -345 clip 0 1;
#X obj 50 -316 clip 0 1;
#X obj 122 -316 clip 0 1;
#X obj -21 -242 outlet;
#X obj -20 -368 * 0.04;
#X obj -20 -391 - 50;
#X obj 50 -369 - 75;
#X obj 50 -344 * 0.04;
#X obj 122 -369 - 100;
#X obj 122 -345 * 0.04;
#X obj -21 -439 env~;
#X obj -21 -472 inlet~;
#X obj -21 -267 spigot;
#X obj 50 -241 outlet;
#X obj 50 -266 spigot;
#X obj 122 -245 outlet;
#X obj 122 -270 spigot;
#X obj 220 -312 inlet;
#X text 219 -332 on/off;
#X connect 0 0 12 0;
#X connect 1 0 14 0;
#X connect 2 0 16 0;
#X connect 4 0 0 0;
#X connect 5 0 4 0;
#X connect 6 0 7 0;
#X connect 7 0 1 0;
#X connect 8 0 9 0;
#X connect 9 0 2 0;
#X connect 10 0 5 0;
#X connect 10 0 6 0;
#X connect 10 0 8 0;
#X connect 11 0 10 0;
#X connect 12 0 3 0;
#X connect 14 0 13 0;
#X connect 16 0 15 0;
#X connect 17 0 16 1;
#X connect 17 0 14 1;
#X connect 17 0 12 1;
#X restore 214 316 pd meter;
#X obj 33 22 modular-mus;
#X obj 259 279 tgl 25 0 empty empty empty 17 7 0 10 -262144 -1 -1 0
1;
#X text 287 286 enable / disable;
#X obj 214 150 mm-gain~;
#X text 188 23 led-meter.pd;
#X text 192 52 Set brightness of 3 LEDs based on audio level coming
in;
#X text 212 100 audio input;
#X text 192 67 Connect 3 LED objects to outputs 0 \, 1 and 2;
#X connect 0 0 8 0;
#X connect 4 0 1 0;
#X connect 4 1 2 0;
#X connect 4 2 3 0;
#X connect 6 0 4 1;
#X connect 8 0 4 0;
