#N canvas 363 223 863 555 10;
#X obj 68 173 metro 150;
#X obj 69 152 tgl 15 0 empty empty empty 17 7 0 10 -262144 -1 -1 0
1;
#X obj 214 258 random 100;
#X floatatom 214 283 5 0 0 0 - - -;
#X obj 229 125 vsl 25 100 0 100 0 0 empty empty empty 0 -9 0 10 -262144
-1 -1 7 1;
#X obj 68 195 s pulse;
#X obj 214 232 r pulse;
#X obj 217 440 mm-out 0;
#X floatatom 254 305 5 0 0 0 - - -;
#X obj 214 329 sel 1;
#X obj 214 353 bng 15 250 50 0 empty empty empty 17 7 0 10 -262144
-1 -1;
#X obj 229 388 pipe 30;
#X msg 229 410 0;
#X msg 214 373 1;
#X obj 354 258 random 100;
#X floatatom 354 283 5 0 0 0 - - -;
#X obj 369 125 vsl 25 100 0 100 0 0 empty empty empty 0 -9 0 10 -262144
-1 -1 145 1;
#X obj 354 232 r pulse;
#X floatatom 394 305 5 0 0 0 - - -;
#X obj 354 329 sel 1;
#X obj 354 353 bng 15 250 50 0 empty empty empty 17 7 0 10 -262144
-1 -1;
#X obj 369 388 pipe 30;
#X msg 369 410 0;
#X msg 354 373 1;
#X obj 357 440 mm-out 1;
#X obj 214 304 <;
#X obj 354 304 <;
#X obj 484 258 random 100;
#X floatatom 484 283 5 0 0 0 - - -;
#X obj 499 125 vsl 25 100 0 100 0 0 empty empty empty 0 -9 0 10 -262144
-1 -1 290 1;
#X obj 484 232 r pulse;
#X floatatom 524 305 5 0 0 0 - - -;
#X obj 484 329 sel 1;
#X obj 484 353 bng 15 250 50 0 empty empty empty 17 7 0 10 -262144
-1 -1;
#X obj 499 388 pipe 30;
#X msg 499 410 0;
#X msg 484 373 1;
#X obj 624 258 random 100;
#X floatatom 624 283 5 0 0 0 - - -;
#X obj 639 125 vsl 25 100 0 100 0 0 empty empty empty 0 -9 0 10 -262144
-1 -1 302 1;
#X obj 624 232 r pulse;
#X floatatom 664 305 5 0 0 0 - - -;
#X obj 624 329 sel 1;
#X obj 624 353 bng 15 250 50 0 empty empty empty 17 7 0 10 -262144
-1 -1;
#X obj 639 388 pipe 30;
#X msg 639 410 0;
#X msg 624 373 1;
#X obj 484 304 <;
#X obj 624 304 <;
#X obj 487 440 mm-out 2;
#X obj 627 439 mm-out 3;
#X obj 67 122 sel 32;
#X obj 66 93 key;
#X obj 229 19 mm-analog 0 0 100;
#X obj 369 21 mm-analog 1 0 100;
#X obj 498 21 mm-analog 2 0 100;
#X obj 631 21 mm-analog 3 0 100;
#X connect 0 0 5 0;
#X connect 1 0 0 0;
#X connect 2 0 3 0;
#X connect 3 0 25 0;
#X connect 4 0 8 0;
#X connect 4 0 25 1;
#X connect 6 0 2 0;
#X connect 9 0 10 0;
#X connect 10 0 11 0;
#X connect 10 0 13 0;
#X connect 11 0 12 0;
#X connect 12 0 7 0;
#X connect 13 0 7 0;
#X connect 14 0 15 0;
#X connect 15 0 26 0;
#X connect 16 0 18 0;
#X connect 16 0 26 1;
#X connect 17 0 14 0;
#X connect 19 0 20 0;
#X connect 20 0 21 0;
#X connect 20 0 23 0;
#X connect 21 0 22 0;
#X connect 22 0 24 0;
#X connect 23 0 24 0;
#X connect 25 0 9 0;
#X connect 26 0 19 0;
#X connect 27 0 28 0;
#X connect 28 0 47 0;
#X connect 29 0 31 0;
#X connect 29 0 47 1;
#X connect 30 0 27 0;
#X connect 32 0 33 0;
#X connect 33 0 34 0;
#X connect 33 0 36 0;
#X connect 34 0 35 0;
#X connect 35 0 49 0;
#X connect 36 0 49 0;
#X connect 37 0 38 0;
#X connect 38 0 48 0;
#X connect 39 0 41 0;
#X connect 39 0 48 1;
#X connect 40 0 37 0;
#X connect 42 0 43 0;
#X connect 43 0 44 0;
#X connect 43 0 46 0;
#X connect 44 0 45 0;
#X connect 45 0 50 0;
#X connect 46 0 50 0;
#X connect 47 0 32 0;
#X connect 48 0 42 0;
#X connect 51 0 1 0;
#X connect 52 0 51 0;
#X connect 53 0 4 0;
#X connect 54 0 16 0;
#X connect 55 0 29 0;
#X connect 56 0 39 0;
