#N canvas 0 22 1195 619 10;
#X obj 4 24 modular-mus;
#X obj 172 282 random 100;
#X obj 173 261 bng 15 250 50 0 empty empty empty 17 7 0 10 -262144
-1 -1;
#X obj 250 75 mm-seq 0 100;
#X obj 222 394 pipe 30;
#X msg 184 397 1;
#X msg 222 420 0;
#X obj 190 466 mm-out 0;
#X obj 220 318 <;
#X obj 219 342 sel 1;
#X obj 220 363 bng 15 250 50 0 empty empty empty 17 7 0 10 -262144
-1 -1;
#X connect 1 0 8 0;
#X connect 2 0 1 0;
#X connect 3 0 2 0;
#X connect 3 0 8 1;
#X connect 4 0 6 0;
#X connect 5 0 7 0;
#X connect 6 0 7 0;
#X connect 8 0 9 0;
#X connect 9 0 10 0;
#X connect 10 0 5 0;
#X connect 10 0 4 0;
