#N canvas 438 88 735 620 10;
#X obj 145 114 mm-vco~;
#X obj 256 454 mm-filter~;
#X obj 238 560 output~;
#X obj 438 243 mm-env;
#X obj 426 182 bng 15 250 50 0 empty empty empty 17 7 0 10 -262144
-1 -1;
#X obj 160 242 mm-env;
#X obj 145 422 *~;
#X text 449 179 <- click to trigger both;
#X obj 347 76 loadbang;
#X connect 0 0 6 0;
#X connect 1 0 2 0;
#X connect 1 0 2 1;
#X connect 3 0 1 3;
#X connect 4 0 3 0;
#X connect 4 0 5 0;
#X connect 5 0 6 1;
#X connect 6 0 1 0;
#X connect 8 0 0 5;
