#N canvas 380 22 767 736 10;
#N canvas 0 22 450 300 (subpatch) 0;
#X array \$0-array 441000 float 0;
#X coords 0 1 440999 -1 160 100 1 0 0;
#X restore 281 -376 graph;
#X obj 247 48 dac~;
#N canvas 475 134 450 300 record 0;
#X msg 141 83 bang;
#X obj 85 153 tabwrite~ \$0-array;
#X obj 53 42 adc~;
#X obj 54 104 *~ 4;
#X floatatom 74 82 5 0 0 0 - - -;
#X msg 89 60 4;
#X obj 140 8 inlet;
#X obj 89 35 loadbang;
#X obj 238 15 inlet;
#X connect 0 0 1 0;
#X connect 2 0 3 0;
#X connect 3 0 1 0;
#X connect 4 0 3 1;
#X connect 5 0 4 0;
#X connect 6 0 0 0;
#X connect 7 0 5 0;
#X connect 8 0 4 0;
#X restore 221 -271 pd record;
#X obj 221 -314 bng 30 250 50 0 empty empty empty 17 7 0 10 -258113
-33289 -1;
#N canvas 389 108 690 564 scrub 0;
#X obj 110 230 line~;
#X obj 110 181 * 441;
#X floatatom 104 118 0 0 1000 0 - - -;
#X obj 110 205 pack 0 100;
#X obj 110 256 tabread4~ \$0-array;
#X obj 205 103 tgl 30 0 empty empty empty 17 7 0 10 -262144 -1 -1 1
1;
#X obj 82 351 outlet~;
#X obj 110 52 inlet;
#X obj 106 138 hsl 128 15 0 1000 0 0 empty empty empty -2 -8 0 10 -262144
-1 -1 2600 1;
#X obj 82 281 mm-bypass~;
#X connect 0 0 4 0;
#X connect 1 0 3 0;
#X connect 2 0 1 0;
#X connect 3 0 0 0;
#X connect 4 0 9 1;
#X connect 5 0 9 2;
#X connect 7 0 8 0;
#X connect 8 0 2 0;
#X connect 9 0 6 0;
#X coords 0 -1 1 1 140 60 1 100 100;
#X restore 63 -98 pd scrub;
#N canvas 409 50 747 689 grains 0;
#X obj 124 343 +~ 1;
#X obj 92 439 *~;
#X obj 123 374 +~;
#X obj 63 325 -~ 0.5;
#X obj 93 288 phasor~;
#X obj 63 349 *~ 0.5;
#X obj 63 372 cos~;
#X obj 122 400 tabread4~ \$0-array;
#X floatatom 104 168 5 0 0 0 - - -;
#X obj 104 131 knob 32 32 -2 2 0 0 empty empty spd 0 -8 0 8 -262144
-1 -1 2100 1;
#X obj 292 104 tgl 30 0 empty empty empty 17 7 0 10 -262144 -1 -1 0
1;
#X obj 130 544 outlet~;
#X obj 167 173 hsl 100 15 0 1000 0 0 empty empty pos -2 -8 0 10 -262144
-1 -1 5300 1;
#X obj 168 145 hsl 100 15 1 100 0 0 empty empty siz -2 -8 0 10 -262144
-1 -1 1919 1;
#X obj -51 245 abs;
#X obj 170 116 hsl 100 15 0 500 0 0 empty empty randm -2 -8 0 10 -262144
-1 -1 7900 1;
#X obj 2 73 tgl 15 0 empty empty empty 17 7 0 10 -262144 -1 -1 1 1
;
#X obj -8 24 loadbang;
#X obj 1 97 metro 200;
#X obj 230 20 inlet;
#X obj -51 186 * 441;
#X obj -51 225 / 44.1;
#X obj -51 204 /;
#X obj 327 29 inlet;
#X msg 106 66 1;
#X obj 130 506 mm-bypass~;
#X obj -51 267 s \$0-rate;
#X obj 32 68 r \$0-rate;
#X obj 201 227 * 441;
#X obj 201 272 line~;
#X obj 124 320 *~;
#X msg 200 249 \$1 100;
#X obj 1 131 s \$0-pulse;
#X obj 375 132 s \$0-randomness;
#N canvas 786 261 450 300 calcPosition 0;
#X obj 89 151 * 441;
#X obj 89 106 random 200;
#X obj 89 130 - 100;
#X obj 89 46 r \$0-pulse;
#X obj 146 72 r \$0-randomness;
#X obj 11 162 line~;
#X obj 11 124 * 441;
#X obj 11 143 pack 0 100;
#X obj 11 182 +~;
#X obj 10 222 outlet~;
#X obj 10 38 r \$0-pos;
#X connect 0 0 8 1;
#X connect 1 0 2 0;
#X connect 2 0 0 0;
#X connect 3 0 1 0;
#X connect 4 0 1 1;
#X connect 5 0 8 0;
#X connect 6 0 7 0;
#X connect 7 0 5 0;
#X connect 8 0 9 0;
#X connect 10 0 6 0;
#X restore 189 314 pd calcPosition;
#X obj 345 181 s \$0-pos;
#N canvas 732 322 450 300 calcGrainFreq 0;
#X floatatom 154 165 0 0 0 0 - - -;
#X text 201 164 <-- frequency (Hz.);
#X obj 154 138 /;
#X obj 140 103 * 100;
#X obj 185 104 t b f;
#X obj 187 81 r \$0-size;
#X obj 126 61 inlet;
#X obj 152 216 outlet;
#X connect 0 0 7 0;
#X connect 2 0 0 0;
#X connect 3 0 2 0;
#X connect 4 0 2 0;
#X connect 4 1 2 1;
#X connect 5 0 4 0;
#X connect 6 0 3 0;
#X restore 64 263 pd calcGrainFreq;
#X obj 358 159 s \$0-size;
#X obj -54 165 r \$0-size;
#X obj 105 24 inlet;
#X obj 145 24 inlet;
#X connect 0 0 2 0;
#X connect 1 0 25 1;
#X connect 2 0 7 0;
#X connect 3 0 5 0;
#X connect 4 0 3 0;
#X connect 4 0 30 0;
#X connect 5 0 6 0;
#X connect 6 0 1 0;
#X connect 7 0 1 1;
#X connect 8 0 22 1;
#X connect 8 0 36 0;
#X connect 9 0 8 0;
#X connect 10 0 25 2;
#X connect 12 0 35 0;
#X connect 13 0 28 0;
#X connect 13 0 37 0;
#X connect 14 0 26 0;
#X connect 15 0 33 0;
#X connect 16 0 18 0;
#X connect 17 0 16 0;
#X connect 17 0 24 0;
#X connect 18 0 32 0;
#X connect 19 0 13 0;
#X connect 20 0 22 0;
#X connect 21 0 14 0;
#X connect 22 0 21 0;
#X connect 23 0 12 0;
#X connect 24 0 9 0;
#X connect 25 0 11 0;
#X connect 27 0 18 1;
#X connect 28 0 31 0;
#X connect 29 0 30 1;
#X connect 30 0 0 0;
#X connect 31 0 29 0;
#X connect 34 0 2 1;
#X connect 36 0 4 0;
#X connect 38 0 20 0;
#X connect 39 0 9 0;
#X connect 40 0 15 0;
#X coords 0 -1 1 1 230 90 1 100 100;
#X restore 289 -139 pd grains;
#X obj 31 -374 modular-mus;
#X connect 3 0 2 0;
#X connect 4 0 1 0;
#X connect 4 0 1 1;
#X connect 5 0 1 0;
#X connect 5 0 1 1;
