#N canvas 0 22 1090 714 10;
#X obj 507 648 *~;
#X obj 568 455 mm-adsr~;
#X obj 80 -27 modular-mus;
#X obj 537 380 mm-digital 0;
#N canvas 0 22 450 278 (subpatch) 0;
#X array scale 12 float 3;
#A 0 0 2 4 5 7 9 11 12 14 16 17 19;
#X coords 0 20 12 -1 200 140 1 0 0;
#X restore 368 -17 graph;
#X obj 591 -43 loadbang;
#X obj 590 23 loadbang;
#X floatatom 215 290 5 0 0 0 - - -;
#X obj 215 250 int;
#X obj 508 716 mm-filter~;
#X obj 215 391 mm-vco~;
#X obj 417 358 loadbang;
#X text 665 -42 Initialize the notes array (the first 0 is where to
start);
#X text 661 24 set view range for array;
#X text 336 189 Analog input 0 is used to address the notes list which
is used to determine the pitch;
#X text 536 357 Digital input 0 is used to trigger the volume envelope
;
#X obj 501 895 dac~;
#X obj 508 806 mm-reverb~;
#X text 823 612 Analog input 2 is used to control the filter cutoff
frequency. set to go from 500 to 5000 Hz;
#X obj 697 613 mm-analog 1 500 5000;
#X floatatom 215 232 5 0 8 0 - - -;
#X obj 215 369 mtof;
#X obj 215 270 tabread scale;
#X text 257 -34 major-scale.pd;
#X obj 331 242 bng 15 250 50 0 empty empty empty 17 7 0 10 -262144
-1 -1;
#X obj 331 265 bng 15 250 50 0 empty empty empty 17 7 0 10 -262144
-1 -1;
#N canvas 591 303 450 300 transpose 0;
#X obj 131 117 -;
#X msg 120 32 1;
#X obj 120 63 t b f;
#X floatatom 193 182 5 0 0 0 - - -;
#X obj 96 91 f;
#X msg 241 27 1;
#X obj 241 58 t b f;
#X obj 217 86 f;
#X obj 252 112 +;
#X msg 173 26 60;
#X obj 172 4 loadbang;
#X obj 110 2 inlet;
#X obj 241 3 inlet;
#X obj 309 11 inlet;
#X obj 192 214 outlet;
#X connect 0 0 3 0;
#X connect 1 0 2 0;
#X connect 2 0 4 0;
#X connect 2 1 0 1;
#X connect 3 0 4 1;
#X connect 3 0 7 1;
#X connect 3 0 14 0;
#X connect 4 0 0 0;
#X connect 5 0 6 0;
#X connect 6 0 7 0;
#X connect 6 1 8 1;
#X connect 7 0 8 0;
#X connect 8 0 3 0;
#X connect 9 0 7 0;
#X connect 9 0 4 0;
#X connect 9 0 3 0;
#X connect 10 0 9 0;
#X connect 11 0 1 0;
#X connect 12 0 5 0;
#X connect 13 0 9 0;
#X restore 323 286 pd transpose;
#X obj 401 272 bng 15 250 50 0 empty empty empty 17 7 0 10 -262144
-1 -1;
#X text 417 271 reset;
#X floatatom 323 306 5 0 0 0 - - -;
#X obj 215 349 +;
#X obj 233 324 t b f;
#X text 364 306 60 is MIDI for middle C;
#X msg 591 -20 \; scale 0 0 2 4 5 7 9 11 12 14 16 17 19;
#X msg 590 46 \; scale bounds 0 20 12 -1;
#N canvas 417 55 603 605 chord 1;
#X obj 64 -1837 mm-vco~;
#X obj 266 -1870 loadbang;
#X obj 64 -1859 mtof;
#X obj 338 -1841 mm-vco~;
#X obj 540 -1874 loadbang;
#X obj 338 -1863 mtof;
#X obj 66 -2031 + 2;
#X obj 306 -2043 + 4;
#X floatatom 62 -1985 5 0 0 0 - - -;
#X obj 62 -2005 tabread scale;
#X obj 62 -1926 +;
#X obj 80 -1951 t b f;
#X floatatom 331 -1988 5 0 0 0 - - -;
#X obj 331 -2008 tabread scale;
#X obj 331 -1929 +;
#X obj 349 -1954 t b f;
#X obj 76 -2099 inlet;
#X obj 336 -2107 inlet;
#X obj 381 -1592 outlet~;
#X obj 124 -1751 mm-digital 1;
#X obj 415 -1746 mm-digital 2;
#X obj 138 -1704 mm-adsr~;
#X obj 108 -1625 *~;
#X obj 406 -1699 mm-adsr~;
#X obj 382 -1617 *~;
#X floatatom 28 -1863 5 0 0 0 - - -;
#X connect 0 0 22 0;
#X connect 1 0 0 5;
#X connect 2 0 0 0;
#X connect 3 0 24 0;
#X connect 4 0 3 5;
#X connect 5 0 3 0;
#X connect 6 0 9 0;
#X connect 7 0 13 0;
#X connect 8 0 10 0;
#X connect 9 0 8 0;
#X connect 10 0 2 0;
#X connect 10 0 25 0;
#X connect 11 0 10 0;
#X connect 11 1 10 1;
#X connect 12 0 14 0;
#X connect 13 0 12 0;
#X connect 14 0 5 0;
#X connect 15 0 14 0;
#X connect 15 1 14 1;
#X connect 16 0 6 0;
#X connect 16 0 7 0;
#X connect 17 0 11 0;
#X connect 17 0 15 0;
#X connect 19 1 21 0;
#X connect 20 1 23 0;
#X connect 21 0 22 1;
#X connect 22 0 18 0;
#X connect 23 0 24 1;
#X connect 24 0 18 0;
#X restore 114 408 pd chord;
#X floatatom 146 371 5 0 0 0 - - -;
#X obj 215 154 mm-analog 0 0 7.9;
#X obj 226 678 mm-out 0;
#X connect 0 0 9 0;
#X connect 1 0 0 1;
#X connect 3 1 1 0;
#X connect 5 0 33 0;
#X connect 6 0 34 0;
#X connect 7 0 30 0;
#X connect 8 0 22 0;
#X connect 8 0 35 0;
#X connect 9 0 17 0;
#X connect 10 0 0 0;
#X connect 11 0 10 5;
#X connect 17 0 16 0;
#X connect 17 0 16 1;
#X connect 19 0 9 3;
#X connect 20 0 8 0;
#X connect 21 0 10 0;
#X connect 22 0 7 0;
#X connect 24 0 26 1;
#X connect 25 0 26 0;
#X connect 26 0 29 0;
#X connect 27 0 26 2;
#X connect 29 0 31 0;
#X connect 29 0 35 1;
#X connect 30 0 21 0;
#X connect 30 0 36 0;
#X connect 31 0 30 0;
#X connect 31 1 30 1;
#X connect 35 0 9 0;
#X connect 37 0 20 0;
