#N canvas 115 54 1165 724 10;
#X obj 41 28 modular-mus;
#X obj 854 905 dac~;
#X obj 864 673 mm-delay~;
#X obj 271 241 mm-adsr~;
#X obj 222 293 pink~;
#X obj 251 331 *~;
#X obj 252 358 mm-filter~;
#X obj 433 317 loadbang;
#X obj 581 241 mm-adsr~;
#X obj 532 293 pink~;
#X obj 561 331 *~;
#X obj 562 358 mm-filter~;
#X obj 739 317 loadbang;
#X obj 240 191 mm-digital 0;
#X obj 549 191 mm-digital 1;
#X obj 1146 598 mm-analog 1 0 1.1;
#X obj 1049 514 mm-analog 0 4 1000;
#X obj 864 770 mm-gain~;
#X obj 901 241 mm-adsr~;
#X obj 852 293 pink~;
#X obj 881 331 *~;
#X obj 882 358 mm-filter~;
#X obj 1063 317 loadbang;
#X obj 1211 241 mm-adsr~;
#X obj 1162 293 pink~;
#X obj 1191 331 *~;
#X obj 1192 358 mm-filter~;
#X obj 1369 317 loadbang;
#X obj 870 191 mm-digital 2;
#X obj 1179 191 mm-digital 3;
#X msg 434 337 800;
#X msg 741 336 1600;
#X msg 1064 337 3200;
#X msg 1371 336 6400;
#X text 216 24 noise-drum-delay.pd;
#X text 214 57 This example uses pink noise [pink~] and the [mm-adsr~]
object to create an envelope.;
#X text 215 91 Digital inputs 0-3 control 4 different envelopes each
with their own filter initialized to different cutoffs.;
#X text 216 129 Analog pins 0 and 1 control a delay effect;
#X text 1177 512 Analog in 0;
#X text 1177 526 controls delay time;
#X text 1264 599 Analog in 1;
#X text 1265 616 controls feedback amount;
#X connect 2 0 17 0;
#X connect 3 0 5 1;
#X connect 4 0 5 0;
#X connect 5 0 6 0;
#X connect 6 0 2 0;
#X connect 7 0 30 0;
#X connect 8 0 10 1;
#X connect 9 0 10 0;
#X connect 10 0 11 0;
#X connect 11 0 2 0;
#X connect 12 0 31 0;
#X connect 13 1 3 0;
#X connect 14 1 8 0;
#X connect 15 0 2 4;
#X connect 16 0 2 3;
#X connect 17 0 1 0;
#X connect 17 0 1 1;
#X connect 18 0 20 1;
#X connect 19 0 20 0;
#X connect 20 0 21 0;
#X connect 21 0 2 0;
#X connect 22 0 32 0;
#X connect 23 0 25 1;
#X connect 24 0 25 0;
#X connect 25 0 26 0;
#X connect 26 0 2 0;
#X connect 27 0 33 0;
#X connect 28 1 18 0;
#X connect 29 1 23 0;
#X connect 30 0 6 3;
#X connect 31 0 11 3;
#X connect 32 0 21 3;
#X connect 33 0 26 3;
