#N canvas 149 22 1131 756 10;
#X obj 291 303 mm-vco~;
#X obj 233 675 output~;
#N canvas 0 22 450 278 (subpatch) 0;
#X array blues-scale 14 float 3;
#A 0 0 3 5 7 10 12 15 17 19 22 24 31 34 36;
#X coords 0 36 14 -1 200 140 1 0 0;
#X restore 630 75 graph;
#X obj 636 -2 loadbang;
#X text 710 -1 Initialize the notes array (the first 0 is where to
start);
#X obj 289 477 mm-filter~;
#N canvas 110 417 450 300 read-notes 0;
#X obj 120 12 inlet;
#X obj 119 260 outlet;
#X obj 120 223 mtof;
#X floatatom 120 129 5 0 0 0 - - -;
#X obj 120 62 int;
#X obj 120 150 + 48;
#X floatatom 120 38 5 0 0 0 - - -;
#X floatatom 120 172 5 0 0 0 - - -;
#X obj 257 39 inlet;
#X text 250 21 root note (60 is middle C);
#X obj 120 85 tabread blues-scale;
#X obj 121 198 change;
#X connect 0 0 6 0;
#X connect 2 0 1 0;
#X connect 3 0 5 0;
#X connect 4 0 10 0;
#X connect 5 0 7 0;
#X connect 6 0 4 0;
#X connect 7 0 11 0;
#X connect 8 0 5 1;
#X connect 10 0 3 0;
#X connect 11 0 2 0;
#X restore 291 244 pd read-notes;
#X msg 636 21 \; blues-scale 0 0 3 5 7 10 12 15 17 19 22 24 31 34 36
;
#X obj 247 616 *~;
#X obj 291 30 bng 15 250 50 0 empty empty empty 17 7 0 10 -262144 -1
-1;
#X floatatom 98 230 5 0 0 0 - - -;
#X obj 291 59 mm-env 2000 0 16;
#X text 313 25 <- click to trigger the drawn gesture;
#X text 195 114 notes to play;
#X text 842 330 Filter shape for each note;
#X obj 25 476 mm-ar~;
#X obj 562 275 mm-env 50 400 4000;
#X text 51 158 numbers 0-15 address the scale;
#X obj 101 191 hsl 128 15 0 15 0 0 empty empty empty -2 -8 0 10 -262144
-1 -1 0 1;
#X obj 98 210 int;
#X text 51 173 slider will play through the scale;
#X connect 0 0 5 0;
#X connect 3 0 7 0;
#X connect 5 0 8 1;
#X connect 6 0 0 0;
#X connect 6 0 15 0;
#X connect 6 0 16 0;
#X connect 8 0 1 0;
#X connect 8 0 1 1;
#X connect 9 0 11 0;
#X connect 10 0 6 0;
#X connect 11 0 6 0;
#X connect 15 0 8 0;
#X connect 16 0 5 3;
#X connect 18 0 19 0;
#X connect 19 0 10 0;
