#N canvas 0 22 1182 618 10;
#X obj 11 14 modular-mus;
#X obj 195 55 mm-seq 0 12;
#X obj 195 237 + 60;
#X obj 195 258 int;
#X obj 195 278 mtof;
#X obj 191 307 mm-pwm~;
#X obj 388 538 dac~;
#X obj 452 307 mm-adsr~;
#X obj 396 394 *~;
#X obj 450 234 t b;
#X msg 443 282 1;
#X msg 472 282 0;
#X obj 450 255 pipe 10;
#X obj 745 55 mm-seq 0 12;
#X obj 745 258 int;
#X obj 745 278 mtof;
#X obj 946 527 dac~;
#X obj 1002 307 mm-adsr~;
#X obj 946 392 *~;
#X obj 1000 234 t b;
#X msg 993 282 1;
#X msg 1022 282 0;
#X obj 1000 255 pipe 10;
#X obj 741 307 mm-fm~;
#X obj 745 237 + 48;
#X obj 263 -55 hsl 128 15 20 400 0 0 empty empty empty -2 -8 0 10 -262144
-1 -1 3300 1;
#X floatatom 260 -34 5 0 0 0 - - -;
#X obj 195 34 r \$0-play;
#X obj 261 -12 s \$0-tempo;
#X obj 367 33 r \$0-tempo;
#X obj 917 28 r \$0-tempo;
#X obj 745 32 r \$0-play;
#X obj 192 -55 tgl 15 0 empty empty empty 17 7 0 10 -262144 -1 -1 0
1;
#X obj 192 -34 s \$0-play;
#X obj 182 925 dac~;
#X obj 182 892 *~;
#X obj 745 615 mm-seq 0 12;
#X obj 745 818 int;
#X obj 745 838 mtof;
#X obj 946 1097 dac~;
#X obj 1002 867 mm-adsr~;
#X obj 949 950 *~;
#X obj 1000 794 t b;
#X msg 993 842 1;
#X msg 1022 842 0;
#X obj 1000 815 pipe 10;
#X obj 745 797 + 48;
#X obj 195 594 r \$0-play;
#X obj 367 593 r \$0-tempo;
#X obj 917 588 r \$0-tempo;
#X obj 745 592 r \$0-play;
#X obj 197 862 line~;
#X msg 195 809 \$1 10;
#X msg 237 831 0 10;
#X obj 236 804 pipe 10;
#X obj 195 615 mm-seq 0 1;
#X obj 142 767 pink~;
#X obj 396 419 mm-gain~;
#X obj 945 415 mm-gain~;
#X obj 949 973 mm-gain~;
#X obj 741 867 mm-vco~;
#X connect 1 0 2 0;
#X connect 1 0 9 0;
#X connect 2 0 3 0;
#X connect 3 0 4 0;
#X connect 4 0 5 0;
#X connect 5 0 8 0;
#X connect 7 0 8 1;
#X connect 8 0 57 0;
#X connect 9 0 10 0;
#X connect 9 0 12 0;
#X connect 10 0 7 0;
#X connect 11 0 7 0;
#X connect 12 0 11 0;
#X connect 13 0 19 0;
#X connect 13 0 24 0;
#X connect 14 0 15 0;
#X connect 15 0 23 0;
#X connect 17 0 18 1;
#X connect 18 0 58 0;
#X connect 19 0 20 0;
#X connect 19 0 22 0;
#X connect 20 0 17 0;
#X connect 21 0 17 0;
#X connect 22 0 21 0;
#X connect 23 0 18 0;
#X connect 24 0 14 0;
#X connect 25 0 26 0;
#X connect 26 0 28 0;
#X connect 27 0 1 0;
#X connect 29 0 1 1;
#X connect 30 0 13 1;
#X connect 31 0 13 0;
#X connect 32 0 33 0;
#X connect 35 0 34 0;
#X connect 35 0 34 1;
#X connect 36 0 42 0;
#X connect 36 0 46 0;
#X connect 37 0 38 0;
#X connect 38 0 60 0;
#X connect 40 0 41 1;
#X connect 41 0 59 0;
#X connect 42 0 43 0;
#X connect 42 0 45 0;
#X connect 43 0 40 0;
#X connect 44 0 40 0;
#X connect 45 0 44 0;
#X connect 46 0 37 0;
#X connect 47 0 55 0;
#X connect 48 0 55 1;
#X connect 49 0 36 1;
#X connect 50 0 36 0;
#X connect 51 0 35 1;
#X connect 52 0 51 0;
#X connect 53 0 51 0;
#X connect 54 0 53 0;
#X connect 55 0 52 0;
#X connect 55 0 54 0;
#X connect 56 0 35 0;
#X connect 57 0 6 0;
#X connect 57 0 6 1;
#X connect 58 0 16 0;
#X connect 58 0 16 1;
#X connect 59 0 39 0;
#X connect 59 0 39 1;
#X connect 60 0 41 0;
