#N canvas 76 76 1019 560 10;
#X obj 52 39 mm;
#X obj 252 172 mm-digital 2;
#X obj 525 308 mm-waves~;
#X obj 502 428 *~;
#X obj 500 468 dac~;
#X text 200 40 <- connect to your board;
#X text 541 466 <- send out to speakers;
#X text 544 427 <- multiply adsr~ envelope by waveform;
#X obj 336 172 mm-digital 4;
#X obj 420 172 mm-digital 6;
#X obj 505 172 mm-digital 7;
#X obj 589 172 mm-digital 9;
#X msg 325 224 60;
#X msg 409 223 63;
#X msg 493 224 65;
#X msg 578 223 67;
#X msg 662 223 70;
#X obj 525 273 mtof;
#N canvas 337 364 703 381 anyNote 0;
#X obj 66 63 inlet;
#X obj 112 85 inlet;
#X obj 112 133 +;
#X obj 112 108 t b i;
#X obj 240 274 > 0;
#X obj 240 326 outlet;
#X text 95 1 add up all of the inputs and output a 1 if any of them
are greater than 0;
#X text 278 246 add the 5th input to the first 4;
#X text 283 271 if the value is greater than 0;
#X text 284 287 the output will be 1;
#X text 46 75;
#X obj 157 108 inlet;
#X obj 157 156 +;
#X obj 157 131 t b i;
#X obj 198 132 inlet;
#X obj 198 180 +;
#X obj 198 155 t b i;
#X obj 239 157 inlet;
#X obj 239 205 +;
#X obj 239 180 t b i;
#X text 285 109 since only the left inlet of the [+] is "hot" we have
to send a bang anytime the right inlet changes;
#X connect 0 0 2 0;
#X connect 1 0 3 0;
#X connect 2 0 12 0;
#X connect 3 0 2 0;
#X connect 3 1 2 1;
#X connect 4 0 5 0;
#X connect 11 0 13 0;
#X connect 12 0 15 0;
#X connect 13 0 12 0;
#X connect 13 1 12 1;
#X connect 14 0 16 0;
#X connect 15 0 18 0;
#X connect 16 0 15 0;
#X connect 16 1 15 1;
#X connect 17 0 19 0;
#X connect 18 0 4 0;
#X connect 19 0 18 0;
#X connect 19 1 18 1;
#X restore 268 281 pd anyNote;
#X obj 268 310 mm-adsr~;
#X text 570 272 <- change MIDI note number to Frequency;
#X text 381 11 A monophonic synthesizer can only play one note at a
time. There is only one "Sound Generation" object and the digital inputs
determine what note it will play. The last digital input to change
sets the note.;
#X text 384 81 Digital Inputs select the notes: D2 \, D4 \, D6 \, D7
and D9;
#X connect 1 0 18 0;
#X connect 1 1 12 0;
#X connect 2 0 3 1;
#X connect 3 0 4 0;
#X connect 3 0 4 1;
#X connect 8 0 18 1;
#X connect 8 1 13 0;
#X connect 9 0 18 2;
#X connect 9 1 14 0;
#X connect 10 0 18 3;
#X connect 10 1 15 0;
#X connect 11 0 18 4;
#X connect 11 1 16 0;
#X connect 12 0 17 0;
#X connect 13 0 17 0;
#X connect 14 0 17 0;
#X connect 15 0 17 0;
#X connect 16 0 17 0;
#X connect 17 0 2 0;
#X connect 18 0 19 0;
#X connect 19 0 3 0;
