#N canvas 0 36 1037 756 10;
#X obj 485 559 mm-reverb~;
#X obj 612 693 dac~;
#X obj 115 22 mm;
#X obj 37 263 mm-digital 2;
#X msg 289 278 60;
#X obj 289 299 mtof;
#X obj 1070 292 mtof;
#X obj 289 255 loadbang;
#X obj 1070 250 loadbang;
#X msg 1070 271 71;
#X obj 289 319 mm-vco~;
#X obj 37 319 mm-adsr~;
#X obj 239 438 *~;
#X obj 807 300 mtof;
#X obj 807 256 loadbang;
#X obj 807 320 mm-vco~;
#X obj 555 320 mm-adsr~;
#X obj 757 439 *~;
#X text 752 564;
#X text 602 524 <- when two audio signals are plugged into the same
inlet~ the are added together;
#X obj 485 646 mm-limiter~;
#X obj 728 641 mm-limiter~;
#X msg 807 279 64;
#X obj 555 264 mm-digital 6;
#X text 641 276 <- digital pin 6;
#X text 123 263 <- digital pin 2;
#X text 390 83 uses digital pins 2 \, 6 to trigger notes;
#X text 387 19 A polyphonic instrument can play more than one note
at a time. This one can only play two notes \, C and E \, when triggered
by digital pins 2 and 6;
#X text 317 277 <- 60 is middle C in MIDI;
#X text 348 254 <- sends a bang when patch opens;
#X text 871 255 <- sends a bang when patch opens;
#X text 840 278 <- 64 is E in MIDI;
#X connect 0 0 20 0;
#X connect 0 1 21 0;
#X connect 3 0 11 0;
#X connect 4 0 5 0;
#X connect 5 0 10 0;
#X connect 7 0 4 0;
#X connect 8 0 9 0;
#X connect 9 0 6 0;
#X connect 10 0 12 1;
#X connect 11 0 12 0;
#X connect 12 0 0 0;
#X connect 13 0 15 0;
#X connect 14 0 22 0;
#X connect 15 0 17 1;
#X connect 16 0 17 0;
#X connect 17 0 0 0;
#X connect 20 0 1 0;
#X connect 21 0 1 1;
#X connect 22 0 13 0;
#X connect 23 0 16 0;
