#N canvas 0 36 1037 756 10;
#X obj 579 618 mm-reverb~;
#X obj 616 712 dac~;
#X obj 115 22 mm;
#X obj 45 193 mm-digital 2;
#X obj 836 433 mm-analog 0 500 5000;
#N canvas 106 252 845 451 voice 0;
#X obj 124 111 inlet;
#X obj -131 139 inlet;
#X obj 125 174 mm-vco~;
#X obj -137 172 mm-adsr~;
#X obj 65 291 *~;
#X obj 67 321 outlet~;
#X obj 246 148 loadbang;
#X connect 0 0 2 0;
#X connect 1 0 3 0;
#X connect 2 0 4 1;
#X connect 3 0 4 0;
#X connect 4 0 5 0;
#X connect 6 0 2 3;
#X restore 45 315 pd voice;
#X msg 90 272 60;
#X obj 90 293 mtof;
#N canvas 65 521 450 300 voice 0;
#X obj 124 111 inlet;
#X obj -131 139 inlet;
#X obj 125 174 mm-vco~;
#X obj -137 172 mm-adsr~;
#X obj 65 291 *~;
#X obj 67 321 outlet~;
#X obj 246 148 loadbang;
#X connect 0 0 2 0;
#X connect 1 0 3 0;
#X connect 2 0 4 1;
#X connect 3 0 4 0;
#X connect 4 0 5 0;
#X connect 6 0 2 3;
#X restore 128 313 pd voice;
#X obj 173 291 mtof;
#N canvas 65 521 450 300 voice 0;
#X obj 124 111 inlet;
#X obj -131 139 inlet;
#X obj 125 174 mm-vco~;
#X obj -137 172 mm-adsr~;
#X obj 65 291 *~;
#X obj 67 321 outlet~;
#X obj 246 148 loadbang;
#X connect 0 0 2 0;
#X connect 1 0 3 0;
#X connect 2 0 4 1;
#X connect 3 0 4 0;
#X connect 4 0 5 0;
#X connect 6 0 2 3;
#X restore 215 314 pd voice;
#X obj 260 292 mtof;
#N canvas 65 521 450 300 voice 0;
#X obj 124 111 inlet;
#X obj -131 139 inlet;
#X obj 125 174 mm-vco~;
#X obj -137 172 mm-adsr~;
#X obj 65 291 *~;
#X obj 67 321 outlet~;
#X obj 246 148 loadbang;
#X connect 0 0 2 0;
#X connect 1 0 3 0;
#X connect 2 0 4 1;
#X connect 3 0 4 0;
#X connect 4 0 5 0;
#X connect 6 0 2 3;
#X restore 308 319 pd voice;
#X obj 353 297 mtof;
#N canvas 69 376 791 357 voice 0;
#X obj 124 111 inlet;
#X obj -131 139 inlet;
#X obj 125 174 mm-vco~;
#X obj -137 172 mm-adsr~;
#X obj 65 291 *~;
#X obj 67 321 outlet~;
#X obj 246 148 loadbang;
#X connect 0 0 2 0;
#X connect 1 0 3 0;
#X connect 2 0 4 1;
#X connect 3 0 4 0;
#X connect 4 0 5 0;
#X connect 6 0 2 3;
#X restore 395 316 pd voice;
#X obj 440 294 mtof;
#N canvas 440 151 641 437 voice 0;
#X obj 124 111 inlet;
#X obj -131 139 inlet;
#X obj 125 174 mm-vco~;
#X obj -137 172 mm-adsr~;
#X obj 65 291 *~;
#X obj 67 321 outlet~;
#X obj 246 148 loadbang;
#X connect 0 0 2 0;
#X connect 1 0 3 0;
#X connect 2 0 4 1;
#X connect 3 0 4 0;
#X connect 4 0 5 0;
#X connect 6 0 2 3;
#X restore 488 315 pd voice;
#X obj 533 293 mtof;
#N canvas 65 521 450 300 voice 0;
#X obj 124 111 inlet;
#X obj -131 139 inlet;
#X obj 125 174 mm-vco~;
#X obj -137 172 mm-adsr~;
#X obj 65 291 *~;
#X obj 67 321 outlet~;
#X obj 246 148 loadbang;
#X connect 0 0 2 0;
#X connect 1 0 3 0;
#X connect 2 0 4 1;
#X connect 3 0 4 0;
#X connect 4 0 5 0;
#X connect 6 0 2 3;
#X restore 576 313 pd voice;
#X obj 621 291 mtof;
#N canvas 65 521 450 300 voice 0;
#X obj 124 111 inlet;
#X obj -131 139 inlet;
#X obj 125 174 mm-vco~;
#X obj -137 172 mm-adsr~;
#X obj 65 291 *~;
#X obj 67 321 outlet~;
#X obj 246 148 loadbang;
#X connect 0 0 2 0;
#X connect 1 0 3 0;
#X connect 2 0 4 1;
#X connect 3 0 4 0;
#X connect 4 0 5 0;
#X connect 6 0 2 3;
#X restore 663 314 pd voice;
#X obj 708 292 mtof;
#N canvas 65 521 450 300 voice 0;
#X obj 124 111 inlet;
#X obj -131 139 inlet;
#X obj 125 174 mm-vco~;
#X obj -137 172 mm-adsr~;
#X obj 65 291 *~;
#X obj 67 321 outlet~;
#X obj 246 148 loadbang;
#X connect 0 0 2 0;
#X connect 1 0 3 0;
#X connect 2 0 4 1;
#X connect 3 0 4 0;
#X connect 4 0 5 0;
#X connect 6 0 2 3;
#X restore 756 319 pd voice;
#X obj 801 297 mtof;
#N canvas 65 521 450 300 voice 0;
#X obj 124 111 inlet;
#X obj -131 139 inlet;
#X obj 125 174 mm-vco~;
#X obj -137 172 mm-adsr~;
#X obj 65 291 *~;
#X obj 67 321 outlet~;
#X obj 246 148 loadbang;
#X connect 0 0 2 0;
#X connect 1 0 3 0;
#X connect 2 0 4 1;
#X connect 3 0 4 0;
#X connect 4 0 5 0;
#X connect 6 0 2 3;
#X restore 843 316 pd voice;
#X obj 888 294 mtof;
#N canvas 440 151 641 437 voice 0;
#X obj 124 111 inlet;
#X obj -131 139 inlet;
#X obj 125 174 mm-vco~;
#X obj -137 172 mm-adsr~;
#X obj 65 291 *~;
#X obj 67 321 outlet~;
#X obj 246 148 loadbang;
#X connect 0 0 2 0;
#X connect 1 0 3 0;
#X connect 2 0 4 1;
#X connect 3 0 4 0;
#X connect 4 0 5 0;
#X connect 6 0 2 3;
#X restore 936 315 pd voice;
#X obj 981 293 mtof;
#X obj 128 194 mm-digital 3;
#X obj 215 193 mm-digital 4;
#X obj 308 194 mm-digital 5;
#X obj 395 193 mm-digital 6;
#X obj 488 194 mm-digital 7;
#X obj 576 194 mm-digital 8;
#X obj 663 193 mm-digital 9;
#X obj 756 194 mm-digital 10;
#X obj 843 193 mm-digital 11;
#X obj 936 194 mm-digital 12;
#N canvas 440 151 641 437 voice 0;
#X obj 124 111 inlet;
#X obj -131 139 inlet;
#X obj 125 174 mm-vco~;
#X obj -137 172 mm-adsr~;
#X obj 65 291 *~;
#X obj 67 321 outlet~;
#X obj 246 148 loadbang;
#X connect 0 0 2 0;
#X connect 1 0 3 0;
#X connect 2 0 4 1;
#X connect 3 0 4 0;
#X connect 4 0 5 0;
#X connect 6 0 2 3;
#X restore 1025 314 pd voice;
#X obj 1070 292 mtof;
#X obj 1025 193 mm-digital 13;
#X obj 90 249 loadbang;
#X obj 173 249 loadbang;
#X obj 260 249 loadbang;
#X obj 353 253 loadbang;
#X obj 440 247 loadbang;
#X obj 533 247 loadbang;
#X obj 620 247 loadbang;
#X obj 708 248 loadbang;
#X obj 801 252 loadbang;
#X obj 888 250 loadbang;
#X obj 981 249 loadbang;
#X obj 1070 250 loadbang;
#X msg 173 270 61;
#X msg 260 271 62;
#X msg 353 277 63;
#X msg 440 273 64;
#X msg 533 272 65;
#X msg 621 270 66;
#X msg 708 271 67;
#X msg 801 276 68;
#X msg 888 273 69;
#X msg 981 272 70;
#X msg 1070 271 71;
#X obj 579 525 mm-filter~;
#X text 381 92 uses digital pins 2-13 to trigger notes;
#X text 381 107 uses analog inputs 0 to control a filter;
#X text 383 30 This patch uses all the digital inputs to trigger different
notes. Inside the subpatch [pd voice] is a [mm-waves~] object and a
[mm-adsr~] object to control the sound and when it turns on/off;
#X connect 0 0 1 0;
#X connect 0 1 1 1;
#X connect 3 0 5 0;
#X connect 4 0 64 3;
#X connect 5 0 64 0;
#X connect 6 0 7 0;
#X connect 7 0 5 1;
#X connect 8 0 64 0;
#X connect 9 0 8 1;
#X connect 10 0 64 0;
#X connect 11 0 10 1;
#X connect 12 0 64 0;
#X connect 13 0 12 1;
#X connect 14 0 64 0;
#X connect 15 0 14 1;
#X connect 16 0 64 0;
#X connect 17 0 16 1;
#X connect 18 0 64 0;
#X connect 19 0 18 1;
#X connect 20 0 64 0;
#X connect 21 0 20 1;
#X connect 22 0 64 0;
#X connect 23 0 22 1;
#X connect 24 0 64 0;
#X connect 25 0 24 1;
#X connect 26 0 64 0;
#X connect 27 0 26 1;
#X connect 28 0 8 0;
#X connect 29 0 10 0;
#X connect 30 0 12 0;
#X connect 31 0 14 0;
#X connect 32 0 16 0;
#X connect 33 0 18 0;
#X connect 34 0 20 0;
#X connect 35 0 22 0;
#X connect 36 0 24 0;
#X connect 37 0 26 0;
#X connect 38 0 64 0;
#X connect 39 0 38 1;
#X connect 40 0 38 0;
#X connect 41 0 6 0;
#X connect 42 0 53 0;
#X connect 43 0 54 0;
#X connect 44 0 55 0;
#X connect 45 0 56 0;
#X connect 46 0 57 0;
#X connect 47 0 58 0;
#X connect 48 0 59 0;
#X connect 49 0 60 0;
#X connect 50 0 61 0;
#X connect 51 0 62 0;
#X connect 52 0 63 0;
#X connect 53 0 9 0;
#X connect 54 0 11 0;
#X connect 55 0 13 0;
#X connect 56 0 15 0;
#X connect 57 0 17 0;
#X connect 58 0 19 0;
#X connect 59 0 21 0;
#X connect 60 0 23 0;
#X connect 61 0 25 0;
#X connect 62 0 27 0;
#X connect 63 0 39 0;
#X connect 64 0 0 0;
