#N canvas 0 22 1090 714 10;
#X obj 507 648 *~;
#X obj 568 455 mm-adsr~;
#N canvas 0 22 450 278 (subpatch) 0;
#X array scale 12 float 3;
#A 0 0 2 4 5 7 9 11 12 14 16 17 19;
#X coords 0 20 12 -1 200 140 1 0 0;
#X restore 368 -17 graph;
#X obj 591 -43 loadbang;
#X obj 590 23 loadbang;
#X floatatom 215 290 5 0 0 0 - - -;
#X obj 215 250 int;
#X obj 508 716 mm-filter~;
#X obj 215 391 mm-vco~;
#X obj 417 358 loadbang;
#X text 665 -42 Initialize the notes array (the first 0 is where to
start);
#X text 661 24 set view range for array;
#X obj 501 895 dac~;
#X obj 508 806 mm-reverb~;
#X floatatom 215 232 5 0 8 0 - - -;
#X obj 215 369 mtof;
#X obj 215 270 tabread scale;
#X text 257 -34 major-scale.pd;
#X obj 331 242 bng 15 250 50 0 empty empty empty 17 7 0 10 -262144
-1 -1;
#X obj 331 265 bng 15 250 50 0 empty empty empty 17 7 0 10 -262144
-1 -1;
#N canvas 591 303 450 300 transpose 0;
#X obj 131 117 -;
#X msg 120 32 1;
#X obj 120 63 t b f;
#X floatatom 193 182 5 0 0 0 - - -;
#X obj 96 91 f;
#X msg 241 27 1;
#X obj 241 58 t b f;
#X obj 217 86 f;
#X obj 252 112 +;
#X msg 173 26 60;
#X obj 172 4 loadbang;
#X obj 110 2 inlet;
#X obj 241 3 inlet;
#X obj 309 11 inlet;
#X obj 192 214 outlet;
#X connect 0 0 3 0;
#X connect 1 0 2 0;
#X connect 2 0 4 0;
#X connect 2 1 0 1;
#X connect 3 0 4 1;
#X connect 3 0 7 1;
#X connect 3 0 14 0;
#X connect 4 0 0 0;
#X connect 5 0 6 0;
#X connect 6 0 7 0;
#X connect 6 1 8 1;
#X connect 7 0 8 0;
#X connect 8 0 3 0;
#X connect 9 0 7 0;
#X connect 9 0 4 0;
#X connect 9 0 3 0;
#X connect 10 0 9 0;
#X connect 11 0 1 0;
#X connect 12 0 5 0;
#X connect 13 0 9 0;
#X restore 323 286 pd transpose;
#X obj 401 272 bng 15 250 50 0 empty empty empty 17 7 0 10 -262144
-1 -1;
#X text 417 271 reset;
#X floatatom 323 306 5 0 0 0 - - -;
#X obj 215 349 +;
#X obj 233 324 t b f;
#X text 364 306 60 is MIDI for middle C;
#X msg 591 -20 \; scale 0 0 2 4 5 7 9 11 12 14 16 17 19;
#X msg 590 46 \; scale bounds 0 20 12 -1;
#X obj 80 -27 mm;
#X obj 568 380 mm-digital 2;
#X text 567 357 Digital input 2 is used to trigger the volume envelope
;
#X obj 697 613 mm-analog 0 500 5000;
#X text 823 609 Analog input 0 is used to control the filter cutoff
frequency. set to go from 500 to 5000 Hz;
#X obj 215 154 mm-analog 1 0 7.9;
#X text 336 189 Analog input 1 is used to address the notes list which
is used to determine the pitch;
#X connect 0 0 7 0;
#X connect 1 0 0 1;
#X connect 3 0 27 0;
#X connect 4 0 28 0;
#X connect 5 0 24 0;
#X connect 6 0 16 0;
#X connect 7 0 13 0;
#X connect 8 0 0 0;
#X connect 9 0 8 5;
#X connect 13 0 12 0;
#X connect 13 0 12 1;
#X connect 14 0 6 0;
#X connect 15 0 8 0;
#X connect 16 0 5 0;
#X connect 18 0 20 1;
#X connect 19 0 20 0;
#X connect 20 0 23 0;
#X connect 21 0 20 2;
#X connect 23 0 25 0;
#X connect 24 0 15 0;
#X connect 25 0 24 0;
#X connect 25 1 24 1;
#X connect 30 0 1 0;
#X connect 32 0 7 3;
#X connect 34 0 14 0;
