#N canvas 30 22 1235 594 10;
#X obj 21 153 mm-digital 2;
#N canvas 183 379 887 336 voice 0;
#X obj 96 65 inlet;
#X obj 93 95 mm-adsr~;
#X obj 357 95 mm-vco~;
#X obj 518 60 loadbang;
#X obj 358 51 inlet;
#X obj 331 216 *~;
#X obj 331 254 outlet~;
#X text 575 58 <- turn on square wave;
#X connect 0 0 1 0;
#X connect 1 0 5 0;
#X connect 2 0 5 1;
#X connect 3 0 2 4;
#X connect 4 0 2 0;
#X connect 5 0 6 0;
#X restore 23 259 pd voice;
#X obj 68 240 mtof;
#X obj 68 201 loadbang;
#N canvas 183 379 887 336 voice 0;
#X obj 96 65 inlet;
#X obj 93 95 mm-adsr~;
#X obj 357 95 mm-vco~;
#X obj 518 60 loadbang;
#X obj 358 51 inlet;
#X obj 331 216 *~;
#X obj 331 254 outlet~;
#X text 575 58 <- turn on square wave;
#X connect 0 0 1 0;
#X connect 1 0 5 0;
#X connect 2 0 5 1;
#X connect 3 0 2 4;
#X connect 4 0 2 0;
#X connect 5 0 6 0;
#X restore 119 255 pd voice;
#X obj 164 236 mtof;
#X obj 164 197 loadbang;
#N canvas 183 379 887 336 voice 0;
#X obj 96 65 inlet;
#X obj 93 95 mm-adsr~;
#X obj 357 95 mm-vco~;
#X obj 518 60 loadbang;
#X obj 358 51 inlet;
#X obj 331 216 *~;
#X obj 331 254 outlet~;
#X text 575 58 <- turn on square wave;
#X connect 0 0 1 0;
#X connect 1 0 5 0;
#X connect 2 0 5 1;
#X connect 3 0 2 4;
#X connect 4 0 2 0;
#X connect 5 0 6 0;
#X restore 223 259 pd voice;
#X obj 268 240 mtof;
#X obj 268 201 loadbang;
#N canvas 183 379 887 336 voice 0;
#X obj 96 65 inlet;
#X obj 93 95 mm-adsr~;
#X obj 357 95 mm-vco~;
#X obj 518 60 loadbang;
#X obj 358 51 inlet;
#X obj 331 216 *~;
#X obj 331 254 outlet~;
#X text 575 58 <- turn on square wave;
#X connect 0 0 1 0;
#X connect 1 0 5 0;
#X connect 2 0 5 1;
#X connect 3 0 2 4;
#X connect 4 0 2 0;
#X connect 5 0 6 0;
#X restore 319 255 pd voice;
#X obj 364 236 mtof;
#X obj 364 197 loadbang;
#N canvas 183 379 887 336 voice 0;
#X obj 96 65 inlet;
#X obj 93 95 mm-adsr~;
#X obj 357 95 mm-vco~;
#X obj 518 60 loadbang;
#X obj 358 51 inlet;
#X obj 331 216 *~;
#X obj 331 254 outlet~;
#X text 575 58 <- turn on square wave;
#X connect 0 0 1 0;
#X connect 1 0 5 0;
#X connect 2 0 5 1;
#X connect 3 0 2 4;
#X connect 4 0 2 0;
#X connect 5 0 6 0;
#X restore 423 259 pd voice;
#X obj 468 240 mtof;
#X obj 468 201 loadbang;
#N canvas 183 379 887 336 voice 0;
#X obj 96 65 inlet;
#X obj 93 95 mm-adsr~;
#X obj 357 95 mm-vco~;
#X obj 518 60 loadbang;
#X obj 358 51 inlet;
#X obj 331 216 *~;
#X obj 331 254 outlet~;
#X text 575 58 <- turn on square wave;
#X connect 0 0 1 0;
#X connect 1 0 5 0;
#X connect 2 0 5 1;
#X connect 3 0 2 4;
#X connect 4 0 2 0;
#X connect 5 0 6 0;
#X restore 519 255 pd voice;
#X obj 564 236 mtof;
#X obj 564 197 loadbang;
#X obj 684 538 dac~;
#X obj 120 154 mm-digital 3;
#X obj 221 153 mm-digital 4;
#X obj 321 153 mm-digital 5;
#X obj 421 153 mm-digital 6;
#X obj 521 153 mm-digital 7;
#X obj 67 17 mm;
#X msg 68 221 48;
#X msg 164 217 49;
#X msg 268 221 50;
#X msg 363 217 51;
#X msg 468 221 52;
#X msg 564 217 53;
#X obj 576 432 mm-reverb~;
#N canvas 183 379 887 336 voice 0;
#X obj 96 65 inlet;
#X obj 93 95 mm-adsr~;
#X obj 357 95 mm-vco~;
#X obj 518 60 loadbang;
#X obj 358 51 inlet;
#X obj 331 216 *~;
#X obj 331 254 outlet~;
#X text 575 58 <- turn on square wave;
#X connect 0 0 1 0;
#X connect 1 0 5 0;
#X connect 2 0 5 1;
#X connect 3 0 2 4;
#X connect 4 0 2 0;
#X connect 5 0 6 0;
#X restore 618 256 pd voice;
#X obj 663 237 mtof;
#X obj 663 198 loadbang;
#N canvas 183 379 887 336 voice 0;
#X obj 96 65 inlet;
#X obj 93 95 mm-adsr~;
#X obj 357 95 mm-vco~;
#X obj 518 60 loadbang;
#X obj 358 51 inlet;
#X obj 331 216 *~;
#X obj 331 254 outlet~;
#X text 575 58 <- turn on square wave;
#X connect 0 0 1 0;
#X connect 1 0 5 0;
#X connect 2 0 5 1;
#X connect 3 0 2 4;
#X connect 4 0 2 0;
#X connect 5 0 6 0;
#X restore 714 252 pd voice;
#X obj 759 233 mtof;
#X obj 759 194 loadbang;
#N canvas 183 379 887 336 voice 0;
#X obj 96 65 inlet;
#X obj 93 95 mm-adsr~;
#X obj 357 95 mm-vco~;
#X obj 518 60 loadbang;
#X obj 358 51 inlet;
#X obj 331 216 *~;
#X obj 331 254 outlet~;
#X text 575 58 <- turn on square wave;
#X connect 0 0 1 0;
#X connect 1 0 5 0;
#X connect 2 0 5 1;
#X connect 3 0 2 4;
#X connect 4 0 2 0;
#X connect 5 0 6 0;
#X restore 818 256 pd voice;
#X obj 863 237 mtof;
#X obj 863 198 loadbang;
#N canvas 183 379 887 336 voice 0;
#X obj 96 65 inlet;
#X obj 93 95 mm-adsr~;
#X obj 357 95 mm-vco~;
#X obj 518 60 loadbang;
#X obj 358 51 inlet;
#X obj 331 216 *~;
#X obj 331 254 outlet~;
#X text 575 58 <- turn on square wave;
#X connect 0 0 1 0;
#X connect 1 0 5 0;
#X connect 2 0 5 1;
#X connect 3 0 2 4;
#X connect 4 0 2 0;
#X connect 5 0 6 0;
#X restore 914 252 pd voice;
#X obj 959 233 mtof;
#X obj 959 194 loadbang;
#N canvas 183 379 887 336 voice 0;
#X obj 96 65 inlet;
#X obj 93 95 mm-adsr~;
#X obj 357 95 mm-vco~;
#X obj 518 60 loadbang;
#X obj 358 51 inlet;
#X obj 331 216 *~;
#X obj 331 254 outlet~;
#X text 575 58 <- turn on square wave;
#X connect 0 0 1 0;
#X connect 1 0 5 0;
#X connect 2 0 5 1;
#X connect 3 0 2 4;
#X connect 4 0 2 0;
#X connect 5 0 6 0;
#X restore 1018 256 pd voice;
#X obj 1063 237 mtof;
#X obj 1063 198 loadbang;
#N canvas 183 379 887 336 voice 0;
#X obj 96 65 inlet;
#X obj 93 95 mm-adsr~;
#X obj 357 95 mm-vco~;
#X obj 518 60 loadbang;
#X obj 358 51 inlet;
#X obj 331 216 *~;
#X obj 331 254 outlet~;
#X text 575 58 <- turn on square wave;
#X connect 0 0 1 0;
#X connect 1 0 5 0;
#X connect 2 0 5 1;
#X connect 3 0 2 4;
#X connect 4 0 2 0;
#X connect 5 0 6 0;
#X restore 1114 252 pd voice;
#X obj 1159 233 mtof;
#X obj 1159 194 loadbang;
#X msg 663 218 54;
#X msg 759 214 55;
#X msg 863 218 56;
#X msg 958 214 57;
#X msg 1063 218 58;
#X msg 1159 214 59;
#X obj 616 150 mm-digital 8;
#X obj 715 151 mm-digital 9;
#X obj 816 150 mm-digital 10;
#X obj 916 150 mm-digital 11;
#X obj 1016 150 mm-digital 12;
#X obj 1116 150 mm-digital 13;
#X connect 0 0 1 0;
#X connect 1 0 32 0;
#X connect 2 0 1 1;
#X connect 3 0 26 0;
#X connect 4 0 32 0;
#X connect 5 0 4 1;
#X connect 6 0 27 0;
#X connect 7 0 32 0;
#X connect 8 0 7 1;
#X connect 9 0 28 0;
#X connect 10 0 32 0;
#X connect 11 0 10 1;
#X connect 12 0 29 0;
#X connect 13 0 32 0;
#X connect 14 0 13 1;
#X connect 15 0 30 0;
#X connect 16 0 32 0;
#X connect 17 0 16 1;
#X connect 18 0 31 0;
#X connect 20 0 4 0;
#X connect 21 0 7 0;
#X connect 22 0 10 0;
#X connect 23 0 13 0;
#X connect 24 0 16 0;
#X connect 26 0 2 0;
#X connect 27 0 5 0;
#X connect 28 0 8 0;
#X connect 29 0 11 0;
#X connect 30 0 14 0;
#X connect 31 0 17 0;
#X connect 32 0 19 0;
#X connect 32 1 19 1;
#X connect 33 0 32 0;
#X connect 34 0 33 1;
#X connect 35 0 51 0;
#X connect 36 0 32 0;
#X connect 37 0 36 1;
#X connect 38 0 52 0;
#X connect 39 0 32 0;
#X connect 40 0 39 1;
#X connect 41 0 53 0;
#X connect 42 0 32 0;
#X connect 43 0 42 1;
#X connect 44 0 54 0;
#X connect 45 0 32 0;
#X connect 46 0 45 1;
#X connect 47 0 55 0;
#X connect 48 0 32 0;
#X connect 49 0 48 1;
#X connect 50 0 56 0;
#X connect 51 0 34 0;
#X connect 52 0 37 0;
#X connect 53 0 40 0;
#X connect 54 0 43 0;
#X connect 55 0 46 0;
#X connect 56 0 49 0;
#X connect 57 0 33 0;
#X connect 58 0 36 0;
#X connect 59 0 39 0;
#X connect 60 0 42 0;
#X connect 61 0 45 0;
#X connect 62 0 48 0;
