#N canvas 206 54 889 659 10;
#X obj 67 17 mm-clippys;
#X obj 62 183 mm-digital 2;
#N canvas 183 379 887 336 voice 0;
#X obj 96 65 inlet;
#X obj 93 95 mm-adsr~;
#X obj 357 95 mm-vco~;
#X obj 518 60 loadbang;
#X obj 358 51 inlet;
#X obj 331 216 *~;
#X obj 331 254 outlet~;
#X text 575 58 <- turn on square wave;
#X connect 0 0 1 0;
#X connect 1 0 5 0;
#X connect 2 0 5 1;
#X connect 3 0 2 4;
#X connect 4 0 2 0;
#X connect 5 0 6 0;
#X restore 64 289 pd voice;
#X msg 109 251 50;
#X obj 109 270 mtof;
#X obj 109 231 loadbang;
#N canvas 183 379 887 336 voice 0;
#X obj 96 65 inlet;
#X obj 93 95 mm-adsr~;
#X obj 357 95 mm-vco~;
#X obj 518 60 loadbang;
#X obj 358 51 inlet;
#X obj 331 216 *~;
#X obj 331 254 outlet~;
#X text 575 58 <- turn on square wave;
#X connect 0 0 1 0;
#X connect 1 0 5 0;
#X connect 2 0 5 1;
#X connect 3 0 2 4;
#X connect 4 0 2 0;
#X connect 5 0 6 0;
#X restore 160 285 pd voice;
#X obj 205 266 mtof;
#X obj 205 227 loadbang;
#N canvas 183 379 887 336 voice 0;
#X obj 96 65 inlet;
#X obj 93 95 mm-adsr~;
#X obj 357 95 mm-vco~;
#X obj 518 60 loadbang;
#X obj 358 51 inlet;
#X obj 331 216 *~;
#X obj 331 254 outlet~;
#X text 575 58 <- turn on square wave;
#X connect 0 0 1 0;
#X connect 1 0 5 0;
#X connect 2 0 5 1;
#X connect 3 0 2 4;
#X connect 4 0 2 0;
#X connect 5 0 6 0;
#X restore 264 289 pd voice;
#X obj 309 270 mtof;
#X obj 309 231 loadbang;
#N canvas 183 379 887 336 voice 0;
#X obj 96 65 inlet;
#X obj 93 95 mm-adsr~;
#X obj 357 95 mm-vco~;
#X obj 518 60 loadbang;
#X obj 358 51 inlet;
#X obj 331 216 *~;
#X obj 331 254 outlet~;
#X text 575 58 <- turn on square wave;
#X connect 0 0 1 0;
#X connect 1 0 5 0;
#X connect 2 0 5 1;
#X connect 3 0 2 4;
#X connect 4 0 2 0;
#X connect 5 0 6 0;
#X restore 360 285 pd voice;
#X obj 405 266 mtof;
#X obj 405 227 loadbang;
#N canvas 183 379 887 336 voice 0;
#X obj 96 65 inlet;
#X obj 93 95 mm-adsr~;
#X obj 357 95 mm-vco~;
#X obj 518 60 loadbang;
#X obj 358 51 inlet;
#X obj 331 216 *~;
#X obj 331 254 outlet~;
#X text 575 58 <- turn on square wave;
#X connect 0 0 1 0;
#X connect 1 0 5 0;
#X connect 2 0 5 1;
#X connect 3 0 2 4;
#X connect 4 0 2 0;
#X connect 5 0 6 0;
#X restore 464 289 pd voice;
#X obj 509 270 mtof;
#X obj 509 231 loadbang;
#N canvas 183 379 887 336 voice 0;
#X obj 96 65 inlet;
#X obj 93 95 mm-adsr~;
#X obj 357 95 mm-vco~;
#X obj 518 60 loadbang;
#X obj 358 51 inlet;
#X obj 331 216 *~;
#X obj 331 254 outlet~;
#X text 575 58 <- turn on square wave;
#X connect 0 0 1 0;
#X connect 1 0 5 0;
#X connect 2 0 5 1;
#X connect 3 0 2 4;
#X connect 4 0 2 0;
#X connect 5 0 6 0;
#X restore 560 285 pd voice;
#X obj 605 266 mtof;
#X obj 605 227 loadbang;
#X obj 308 419 mm-tremolo~;
#X obj 308 503 mm-reverb~;
#X obj 417 607 dac~;
#X obj 512 337 mm-analog 0 0 12;
#X msg 205 247 53;
#X msg 309 251 55;
#X msg 404 247 57;
#X msg 509 251 60;
#X msg 605 247 62;
#X obj 161 184 mm-digital 3;
#X obj 262 183 mm-digital 4;
#X obj 362 183 mm-digital 5;
#X obj 462 183 mm-digital 6;
#X obj 562 183 mm-digital 7;
#X connect 1 0 2 0;
#X connect 2 0 21 0;
#X connect 3 0 4 0;
#X connect 4 0 2 1;
#X connect 5 0 3 0;
#X connect 6 0 21 0;
#X connect 7 0 6 1;
#X connect 8 0 25 0;
#X connect 9 0 21 0;
#X connect 10 0 9 1;
#X connect 11 0 26 0;
#X connect 12 0 21 0;
#X connect 13 0 12 1;
#X connect 14 0 27 0;
#X connect 15 0 21 0;
#X connect 16 0 15 1;
#X connect 17 0 28 0;
#X connect 18 0 21 0;
#X connect 19 0 18 1;
#X connect 20 0 29 0;
#X connect 21 0 22 0;
#X connect 22 0 23 0;
#X connect 22 1 23 1;
#X connect 24 0 21 3;
#X connect 25 0 7 0;
#X connect 26 0 10 0;
#X connect 27 0 13 0;
#X connect 28 0 16 0;
#X connect 29 0 19 0;
#X connect 30 0 6 0;
#X connect 31 0 9 0;
#X connect 32 0 12 0;
#X connect 33 0 15 0;
#X connect 34 0 18 0;
