#N canvas 212 38 1029 750 10;
#X obj 62 183 mm-digital 2;
#N canvas 183 379 887 336 voice 0;
#X obj 96 65 inlet;
#X obj 93 95 mm-adsr~;
#X obj 357 95 mm-vco~;
#X obj 518 60 loadbang;
#X obj 358 51 inlet;
#X obj 331 216 *~;
#X obj 331 254 outlet~;
#X text 575 58 <- turn on square wave;
#X connect 0 0 1 0;
#X connect 1 0 5 0;
#X connect 2 0 5 1;
#X connect 3 0 2 4;
#X connect 4 0 2 0;
#X connect 5 0 6 0;
#X restore 64 398 pd voice;
#X obj 109 377 mtof;
#X obj 109 231 loadbang;
#N canvas 183 379 887 336 voice 0;
#X obj 96 65 inlet;
#X obj 93 95 mm-adsr~;
#X obj 357 95 mm-vco~;
#X obj 518 60 loadbang;
#X obj 358 51 inlet;
#X obj 331 216 *~;
#X obj 331 254 outlet~;
#X text 575 58 <- turn on square wave;
#X connect 0 0 1 0;
#X connect 1 0 5 0;
#X connect 2 0 5 1;
#X connect 3 0 2 4;
#X connect 4 0 2 0;
#X connect 5 0 6 0;
#X restore 160 405 pd voice;
#N canvas 183 379 887 336 voice 0;
#X obj 96 65 inlet;
#X obj 93 95 mm-adsr~;
#X obj 357 95 mm-vco~;
#X obj 518 60 loadbang;
#X obj 358 51 inlet;
#X obj 331 216 *~;
#X obj 331 254 outlet~;
#X text 575 58 <- turn on square wave;
#X connect 0 0 1 0;
#X connect 1 0 5 0;
#X connect 2 0 5 1;
#X connect 3 0 2 4;
#X connect 4 0 2 0;
#X connect 5 0 6 0;
#X restore 264 409 pd voice;
#N canvas 183 379 887 336 voice 0;
#X obj 96 65 inlet;
#X obj 93 95 mm-adsr~;
#X obj 357 95 mm-vco~;
#X obj 518 60 loadbang;
#X obj 358 51 inlet;
#X obj 331 216 *~;
#X obj 331 254 outlet~;
#X text 575 58 <- turn on square wave;
#X connect 0 0 1 0;
#X connect 1 0 5 0;
#X connect 2 0 5 1;
#X connect 3 0 2 4;
#X connect 4 0 2 0;
#X connect 5 0 6 0;
#X restore 360 405 pd voice;
#N canvas 183 379 887 336 voice 0;
#X obj 96 65 inlet;
#X obj 93 95 mm-adsr~;
#X obj 357 95 mm-vco~;
#X obj 518 60 loadbang;
#X obj 358 51 inlet;
#X obj 331 216 *~;
#X obj 331 254 outlet~;
#X text 575 58 <- turn on square wave;
#X connect 0 0 1 0;
#X connect 1 0 5 0;
#X connect 2 0 5 1;
#X connect 3 0 2 4;
#X connect 4 0 2 0;
#X connect 5 0 6 0;
#X restore 464 409 pd voice;
#N canvas 183 379 887 336 voice 0;
#X obj 96 65 inlet;
#X obj 93 95 mm-adsr~;
#X obj 357 95 mm-vco~;
#X obj 518 60 loadbang;
#X obj 358 51 inlet;
#X obj 331 216 *~;
#X obj 331 254 outlet~;
#X text 575 58 <- turn on square wave;
#X connect 0 0 1 0;
#X connect 1 0 5 0;
#X connect 2 0 5 1;
#X connect 3 0 2 4;
#X connect 4 0 2 0;
#X connect 5 0 6 0;
#X restore 560 405 pd voice;
#X obj 308 579 mm-tremolo~;
#X obj 308 663 mm-reverb~;
#X obj 417 767 dac~;
#X obj 490 497 mm-analog 0 0 12;
#X obj 161 184 mm-digital 3;
#X obj 262 183 mm-digital 4;
#X obj 361 183 mm-digital 5;
#X obj 462 183 mm-digital 6;
#X obj 562 183 mm-digital 7;
#X obj 67 17 mm;
#X obj 109 325 tabread scale;
#N canvas 0 22 450 278 (subpatch) 0;
#X array scale 20 float 3;
#A 0 -2 0 2 3 5 7 9 10 12 14 15 17 19 21 22 23 24 26 27 29;
#X coords 0 24 20 -2 200 140 1 0 0;
#X restore 682 64 graph;
#X obj 724 381 int;
#X msg 109 251 0;
#X obj 106 303 +;
#X obj 724 425 s offset;
#X obj 76 277 r offset;
#X obj 209 377 mtof;
#X obj 209 231 loadbang;
#X obj 209 325 tabread scale;
#X obj 206 303 +;
#X obj 176 277 r offset;
#X obj 309 380 mtof;
#X obj 309 234 loadbang;
#X obj 309 328 tabread scale;
#X obj 306 306 +;
#X obj 276 280 r offset;
#X obj 409 380 mtof;
#X obj 409 234 loadbang;
#X obj 409 328 tabread scale;
#X obj 406 306 +;
#X obj 376 280 r offset;
#X obj 509 380 mtof;
#X obj 509 234 loadbang;
#X obj 509 328 tabread scale;
#X obj 506 306 +;
#X obj 476 280 r offset;
#X obj 609 380 mtof;
#X obj 609 234 loadbang;
#X obj 609 328 tabread scale;
#X obj 606 306 +;
#X obj 576 280 r offset;
#X msg 209 251 1;
#X msg 309 254 2;
#X msg 409 254 3;
#X msg 509 254 4;
#X msg 609 253 5;
#X obj 724 300 mm-analog 1 12 0;
#X obj 109 357 +;
#X obj 9 296 bng 15 250 50 0 empty empty empty 17 7 0 10 -262144 -1
-1;
#X obj 209 357 +;
#X obj 309 356 +;
#X obj 409 360 +;
#X obj 509 358 +;
#X obj 609 357 +;
#X msg 9 319 36;
#X connect 0 0 1 0;
#X connect 1 0 9 0;
#X connect 2 0 1 1;
#X connect 3 0 22 0;
#X connect 4 0 9 0;
#X connect 5 0 9 0;
#X connect 6 0 9 0;
#X connect 7 0 9 0;
#X connect 8 0 9 0;
#X connect 9 0 10 0;
#X connect 10 0 11 0;
#X connect 10 1 11 1;
#X connect 12 0 9 3;
#X connect 13 0 4 0;
#X connect 14 0 5 0;
#X connect 15 0 6 0;
#X connect 16 0 7 0;
#X connect 17 0 8 0;
#X connect 19 0 57 0;
#X connect 21 0 24 0;
#X connect 22 0 23 1;
#X connect 23 0 19 0;
#X connect 25 0 23 0;
#X connect 26 0 4 1;
#X connect 27 0 51 0;
#X connect 28 0 59 0;
#X connect 29 0 28 0;
#X connect 30 0 29 0;
#X connect 31 0 5 1;
#X connect 32 0 52 0;
#X connect 33 0 60 0;
#X connect 34 0 33 0;
#X connect 35 0 34 0;
#X connect 36 0 6 1;
#X connect 37 0 53 0;
#X connect 38 0 61 0;
#X connect 39 0 38 0;
#X connect 40 0 39 0;
#X connect 41 0 7 1;
#X connect 42 0 54 0;
#X connect 43 0 62 0;
#X connect 44 0 43 0;
#X connect 45 0 44 0;
#X connect 46 0 8 1;
#X connect 47 0 55 0;
#X connect 48 0 63 0;
#X connect 49 0 48 0;
#X connect 50 0 49 0;
#X connect 51 0 29 1;
#X connect 52 0 34 1;
#X connect 53 0 39 1;
#X connect 54 0 44 1;
#X connect 55 0 49 1;
#X connect 56 0 21 0;
#X connect 57 0 2 0;
#X connect 58 0 64 0;
#X connect 59 0 26 0;
#X connect 60 0 31 0;
#X connect 61 0 36 0;
#X connect 62 0 41 0;
#X connect 63 0 46 0;
#X connect 64 0 57 1;
#X connect 64 0 59 1;
#X connect 64 0 60 1;
#X connect 64 0 62 1;
#X connect 64 0 63 1;
#X connect 64 0 61 1;
