#N canvas 0 22 1267 742 16;
#X obj 442 351 *~;
#X obj 562 223 mm-adsr~;
#X obj 280 224 mm-vco~;
#X text 231 -10 This is a subtractive synthesis example with both mm-vco~
and mm-fm~ as sound sources. Use the mm-gain~ object to change the
balance;
#X obj 432 646 dac~;
#X text 231 -40 simple-synth.pd;
#X obj 280 133 mm-analog 0 200 800;
#X obj 443 525 mm-gain~;
#X text 503 329 Digital input 1 toggles filter;
#X text 401 127 Analog input 0 controls frequency;
#X text 122 353 multiply the waveform by an envelope ->;
#X text 482 644 <- stereo output to speakers;
#X obj 54 -33 mm;
#X obj 531 174 mm-digital 2;
#X text 639 171 Digital input 2 controls the volume envelope;
#X obj 442 444 mm-tremolo~;
#X obj 624 353 mm-analog 1 1 15;
#X text 751 352 Analog input 1 controls the speed of the tremolo effect
between 1 and 15 times a second;
#X connect 0 0 15 0;
#X connect 1 0 0 1;
#X connect 2 0 0 0;
#X connect 6 0 2 0;
#X connect 7 0 4 0;
#X connect 7 0 4 1;
#X connect 13 0 1 0;
#X connect 15 0 7 0;
#X connect 16 0 15 3;
