#N canvas 84 22 1145 756 12;
#X obj 14 29 modular-mus;
#X obj 759 669 dac~;
#X obj 760 198 mm-overdrive~;
#X obj 255 357 mm-analog 1 40 64;
#X obj 255 439 s fret;
#X obj 17 437 s strum;
#N canvas 47 136 1031 542 sixstrings 1;
#X obj 131 112 mtof;
#X obj 50 45 > 1;
#X obj 81 44 < 2;
#X obj 50 70 &&;
#X obj 50 90 change;
#X obj 312 68 &&;
#X obj 312 88 change;
#X obj 312 42 > 2;
#X obj 343 41 < 3;
#X obj 569 67 &&;
#X obj 569 87 change;
#X obj 569 108 sel 1;
#X obj 569 41 > 3;
#X obj 600 40 < 4;
#X obj 724 249 loadbang;
#X obj 448 251 loadbang;
#X obj 195 247 loadbang;
#X obj 171 52 loadbang;
#X obj 427 47 loadbang;
#X obj 690 42 loadbang;
#X obj 78 263 &&;
#X obj 78 283 change;
#X obj 78 304 sel 1;
#X obj 340 262 &&;
#X obj 340 282 change;
#X obj 340 303 sel 1;
#X obj 603 261 &&;
#X obj 603 281 change;
#X obj 603 302 sel 1;
#X obj 78 237 > 4;
#X obj 109 236 < 5;
#X obj 340 236 > 5;
#X obj 371 235 < 6;
#X obj 603 235 > 6;
#X obj 634 234 < 7;
#X obj 50 108 sel 1;
#X obj 312 109 sel 1;
#X msg 171 73 0;
#X msg 428 68 7;
#X msg 692 65 12;
#X msg 195 269 16;
#X msg 448 273 19;
#X msg 725 273 24;
#X obj 118 63 r fret;
#X obj 131 93 +;
#X obj 392 105 mtof;
#X obj 379 56 r fret;
#X obj 392 86 +;
#X obj 647 103 mtof;
#X obj 644 54 r fret;
#X obj 647 84 +;
#X obj 50 22 r strum;
#X obj 153 307 mtof;
#X obj 150 258 r fret;
#X obj 153 288 +;
#X obj 413 309 mtof;
#X obj 410 260 r fret;
#X obj 413 290 +;
#X obj 682 305 mtof;
#X obj 679 256 r fret;
#X obj 682 286 +;
#X obj 310 15 r strum;
#X obj 83 212 r strum;
#X obj 340 213 r strum;
#X obj 603 210 r strum;
#X obj 571 11 r strum;
#X obj 94 505 outlet~;
#X text -132 57 when the input becomes;
#X text -132 89 than 2 the send one bang;
#X text -132 72 greater than 1 AND less;
#X text 157 11 initial string tuning;
#X obj 206 92 r decay;
#X obj 249 109 r bright;
#X obj 466 88 r decay;
#X obj 509 105 r bright;
#X obj 724 86 r decay;
#X obj 767 103 r bright;
#X obj 226 281 r decay;
#X obj 269 298 r bright;
#X obj 490 279 r decay;
#X obj 533 296 r bright;
#X obj 759 279 r decay;
#X obj 802 296 r bright;
#X obj 769 6 inlet;
#X obj 819 6 inlet;
#X obj 768 37 s decay;
#X obj 825 35 s bright;
#X obj 312 131 mm-pluck~;
#X obj 75 328 mm-pluck~;
#X obj 603 328 mm-pluck~;
#X obj 50 132 mm-pluck~;
#X obj 568 132 mm-pluck~;
#X obj 337 328 mm-pluck~;
#X text 159 26 is loaded here;
#X text 428 25 fifth;
#X text 689 23 octave;
#X connect 0 0 90 1;
#X connect 1 0 3 0;
#X connect 2 0 3 1;
#X connect 3 0 4 0;
#X connect 4 0 35 0;
#X connect 5 0 6 0;
#X connect 6 0 36 0;
#X connect 7 0 5 0;
#X connect 8 0 5 1;
#X connect 9 0 10 0;
#X connect 10 0 11 0;
#X connect 11 0 91 0;
#X connect 12 0 9 0;
#X connect 13 0 9 1;
#X connect 14 0 42 0;
#X connect 15 0 41 0;
#X connect 16 0 40 0;
#X connect 17 0 37 0;
#X connect 18 0 38 0;
#X connect 19 0 39 0;
#X connect 20 0 21 0;
#X connect 21 0 22 0;
#X connect 22 0 88 0;
#X connect 23 0 24 0;
#X connect 24 0 25 0;
#X connect 25 0 92 0;
#X connect 26 0 27 0;
#X connect 27 0 28 0;
#X connect 28 0 89 0;
#X connect 29 0 20 0;
#X connect 30 0 20 1;
#X connect 31 0 23 0;
#X connect 32 0 23 1;
#X connect 33 0 26 0;
#X connect 34 0 26 1;
#X connect 35 0 90 0;
#X connect 36 0 87 0;
#X connect 37 0 44 1;
#X connect 38 0 47 1;
#X connect 39 0 50 1;
#X connect 40 0 54 1;
#X connect 41 0 57 1;
#X connect 42 0 60 1;
#X connect 43 0 44 0;
#X connect 44 0 0 0;
#X connect 45 0 87 1;
#X connect 46 0 47 0;
#X connect 47 0 45 0;
#X connect 48 0 91 1;
#X connect 49 0 50 0;
#X connect 50 0 48 0;
#X connect 51 0 1 0;
#X connect 51 0 2 0;
#X connect 52 0 88 1;
#X connect 53 0 54 0;
#X connect 54 0 52 0;
#X connect 55 0 92 1;
#X connect 56 0 57 0;
#X connect 57 0 55 0;
#X connect 58 0 89 1;
#X connect 59 0 60 0;
#X connect 60 0 58 0;
#X connect 61 0 7 0;
#X connect 61 0 8 0;
#X connect 62 0 29 0;
#X connect 62 0 30 0;
#X connect 63 0 31 0;
#X connect 63 0 32 0;
#X connect 64 0 33 0;
#X connect 64 0 34 0;
#X connect 65 0 12 0;
#X connect 65 0 13 0;
#X connect 71 0 90 2;
#X connect 72 0 90 3;
#X connect 73 0 87 2;
#X connect 74 0 87 3;
#X connect 75 0 91 2;
#X connect 76 0 91 3;
#X connect 77 0 88 2;
#X connect 78 0 88 3;
#X connect 79 0 92 2;
#X connect 80 0 92 3;
#X connect 81 0 89 2;
#X connect 82 0 89 3;
#X connect 83 0 85 0;
#X connect 84 0 86 0;
#X connect 87 0 66 0;
#X connect 88 0 66 0;
#X connect 89 0 66 0;
#X connect 90 0 66 0;
#X connect 91 0 66 0;
#X connect 92 0 66 0;
#X restore 760 153 pd sixstrings;
#X obj 760 360 mm-tremolo~;
#X obj 759 452 mm-reverb~;
#X obj 760 546 mm-gain~;
#X floatatom 760 121 5 0 0 0 - - -;
#X msg 760 61 30;
#X obj 760 38 loadbang;
#X obj 848 111 knob 32 32 400 5000 0 0 empty empty brightness 0 -8
0 12 -262144 -1 -1 0 1;
#X msg 748 90 0.25;
#X text 604 61 click for sustained ->;
#X text 600 91 click for stacatto->;
#X text 134 360 analog in 0;
#X text 373 357 analog in 1;
#X text 15 462 [s strum] and [s fret] are sends. The values can be
recieved with a corresponding receive object. In this example these
values are recieved inside of the sixstrings sub-patch with [r strum]
and [r fret];
#X text 17 147 This example uses 3 analog inputs and two digital inputs.
Analog input 0 is used to "strum" six strings. When the value of A0
enters a region for the first time the string is "plucked".;
#X text 855 152 <= open me to see the "strings";
#X obj 662 153 mm-digital 0;
#X obj 655 303 mm-digital 1;
#X text 191 29 strummer.pd;
#X text 190 48 This example uses six mm-pluck~ objects tuned to a major
chord.;
#X text 17 211 - Analog input 1 is used to determine the "root note"
for all the strings. It is meant to be like sliding up the fret board.
;
#X text 17 260 - Analog input 2 is used to control the speed of the
tremolo effect;
#X text 17 297 - Digital inputs 0 and 1 are used to enable/ disable
the overdrive and tremolo effects respsectively;
#X msg 1006 175 18;
#X obj 1011 129 loadbang;
#X obj 16 357 mm-analog 0 0 8;
#X obj 1027 370 loadbang;
#X msg 1027 402 1;
#X obj 943 278 mm-analog 2 1 15;
#X connect 2 0 7 0;
#X connect 3 0 4 0;
#X connect 6 0 2 0;
#X connect 7 0 8 0;
#X connect 8 0 9 0;
#X connect 9 0 1 0;
#X connect 9 0 1 1;
#X connect 10 0 6 0;
#X connect 11 0 10 0;
#X connect 12 0 11 0;
#X connect 13 0 6 1;
#X connect 14 0 10 0;
#X connect 22 0 2 1;
#X connect 23 0 7 1;
#X connect 29 0 2 4;
#X connect 30 0 29 0;
#X connect 31 0 5 0;
#X connect 32 0 33 0;
#X connect 33 0 7 4;
#X connect 34 0 7 3;
